<?xml version="1.0" encoding="UTF-8"?>
<svg width="45px" height="45px" viewBox="0 0 45 45" version="1.1" xmlns="http://www.w3.org/2000/svg" xmlns:xlink="http://www.w3.org/1999/xlink">
    <!-- Generator: Sketch 63.1 (92452) - https://sketch.com -->
    <title>Icon1</title>
    <desc>Created with Sketch.</desc>
    <g id="Page-1" stroke="none" stroke-width="1" fill="none" fill-rule="evenodd">
        <g id="itro.vn/host" transform="translate(-604.000000, -1295.000000)" fill="#FFFFFF">
            <g id="Group-16" transform="translate(0.000000, 1025.000000)">
                <g id="Group-5" transform="translate(192.000000, 68.000000)">
                    <g id="Group-17" transform="translate(0.000000, 172.000000)">
                        <g id="2" transform="translate(364.000000, 0.000000)">
                            <g id="Group-18" transform="translate(48.000000, 30.000000)">
                                <g id="support">
                                    <g>
                                        <path d="M15.9714844,32.2395117 C15.9079395,32.2214063 15.8429004,32.2112109 15.7774219,32.2076953 C16.7401758,31.1958105 17.3330859,29.8288477 17.3330859,28.3252148 L17.3330859,23.7012012 C17.3330859,23.6589258 17.329043,23.6177051 17.3233301,23.5770996 C17.3291309,23.4936035 17.3330859,23.4095801 17.3330859,23.3246777 L17.3330859,20.3991504 C17.3330859,19.9137305 16.9395996,19.5202441 16.4541797,19.5202441 L10.5590918,19.5202441 C8.07662109,19.5202441 6.05707031,21.5398828 6.05707031,24.0222656 L6.05707031,28.3252148 C6.05707031,29.8288477 6.64989258,31.1958105 7.61273437,32.2076953 C7.54734375,32.2112109 7.48230469,32.2214063 7.41884766,32.2395117 C3.26540039,32.6155957 0,36.1163672 0,40.3660547 L0,44.1210938 C0,44.6065137 0.393486328,45 0.87890625,45 L22.5111621,45 C22.996582,45 23.3900684,44.6065137 23.3900684,44.1210938 L23.3900684,40.3660547 C23.3900684,36.1164551 20.1248438,32.6156836 15.9714844,32.2395117 Z M7.81488281,25.1368066 L7.81488281,24.0221777 C7.81488281,22.5090527 9.0459668,21.2779687 10.5590918,21.2779687 L15.5752734,21.2779687 L15.5752734,23.3245898 C15.5752734,24.3549316 14.7370605,25.1931445 13.7067188,25.1931445 L7.81488281,25.1931445 L7.81488281,25.1368066 Z M7.81488281,26.950957 L13.7067188,26.950957 C14.3898047,26.950957 15.029209,26.7609375 15.5752734,26.4311719 L15.5752734,28.325127 C15.5752734,30.4646484 13.8345996,32.2053223 11.6950781,32.2053223 C9.55555664,32.2053223 7.81488281,30.4646484 7.81488281,28.325127 L7.81488281,26.950957 Z M13.6080176,33.9632227 L11.6950781,35.87625 L9.78213867,33.9632227 L13.6080176,33.9632227 Z M21.6323438,43.2421875 L21.6323438,43.2421875 L1.7578125,43.2421875 L1.7578125,41.484375 L5.40527344,41.484375 C5.89069336,41.484375 6.28417969,41.0908887 6.28417969,40.6054688 C6.28417969,40.1200488 5.89069336,39.7265625 5.40527344,39.7265625 L1.78989258,39.7265625 C2.08511719,36.7632422 4.40956055,34.3901074 7.34941406,34.0163965 L11.0736035,37.7405859 C11.2383984,37.9053809 11.4619922,37.9980176 11.6950781,37.9980176 C11.9281641,37.9980176 12.1517578,37.9053809 12.3165527,37.7405859 L16.0407422,34.0163965 C19.1893359,34.4165625 21.6323438,37.110498 21.6323438,40.3660547 L21.6323438,43.2421875 Z" id="Shape" fill-rule="nonzero"></path>
                                        <path d="M37.5815918,12.7193555 C37.5180469,12.70125 37.4529199,12.6910547 37.3873535,12.6875391 C38.3501074,11.6756543 38.9429297,10.3086914 38.9429297,8.80505859 L38.9429297,4.18095703 C38.9429297,4.13868164 38.9388867,4.09746094 38.9331738,4.05685547 C38.9389746,3.97335937 38.9429297,3.88933594 38.9429297,3.80443359 L38.9429297,0.87890625 C38.9429297,0.393486328 38.5494434,0 38.0640234,0 L32.1689355,0 C29.6864648,0 27.6669141,2.01963867 27.6669141,4.50202148 L27.6669141,8.8049707 C27.6669141,10.3086035 28.2597363,11.6755664 29.2224902,12.6874512 C29.1570117,12.6909668 29.0917969,12.7011621 29.028252,12.7192676 C24.8749805,13.0955273 21.6098438,16.5962988 21.6098438,20.8458105 L21.6098438,24.6007617 C21.6098438,25.0861816 22.0033301,25.4797559 22.48875,25.4797559 L29.5604297,25.4797559 C30.0458496,25.4797559 30.4393359,25.0861816 30.4393359,24.6007617 C30.4393359,24.1153418 30.0458496,23.7218555 29.5604297,23.7218555 L23.3676563,23.7218555 L23.3676563,20.8458984 C23.3676563,17.5903418 25.8105762,14.8964062 28.9591699,14.4962402 L32.6833594,18.2204297 C32.8550098,18.3920801 33.0799219,18.4778613 33.304834,18.4778613 C33.5297461,18.4778613 33.7547461,18.3920801 33.9263086,18.2204297 L37.650498,14.4962402 C40.7992676,14.8964941 43.2421875,17.5903418 43.2421875,20.8458984 L43.2421875,23.7219434 L36.7675488,23.7219434 C36.2821289,23.7219434 35.8886426,24.1154297 35.8886426,24.6008496 C35.8886426,25.0862695 36.2821289,25.4797559 36.7675488,25.4797559 L44.1210938,25.4797559 C44.6065137,25.4797559 45,25.0862695 45,24.6008496 L45,20.8458984 C45,16.5963867 41.7347754,13.0956152 37.5815918,12.7193555 Z M33.3050098,16.3560059 L31.3920703,14.4430664 L35.2179492,14.4430664 L33.3050098,16.3560059 Z M37.1852051,8.8049707 C37.1852051,10.9444922 35.4445313,12.685166 33.3050098,12.685166 C31.1654883,12.685166 29.4248145,10.9445801 29.4248145,8.80505859 L29.4248145,7.43080078 L35.3166504,7.43080078 C35.9997363,7.43080078 36.6391406,7.24069336 37.1852051,6.91101563 L37.1852051,8.8049707 L37.1852051,8.8049707 Z M37.1852051,3.80443359 C37.1852051,4.83477539 36.3469922,5.67298828 35.3166504,5.67298828 L29.4248145,5.67298828 L29.4248145,5.61665039 L29.4248145,4.50202148 C29.4248145,2.98889648 30.6558984,1.7578125 32.1690234,1.7578125 L37.1852051,1.7578125 L37.1852051,3.80443359 Z" id="Shape" fill-rule="nonzero"></path>
                                        <path d="M33.9266602,23.9791992 C33.7631836,23.8157227 33.5364258,23.7216797 33.3052734,23.7216797 C33.0732422,23.7216797 32.8473633,23.8157227 32.6838867,23.9791992 C32.5195313,24.1426758 32.4263672,24.3694336 32.4263672,24.6005859 C32.4263672,24.8326172 32.5195313,25.0584961 32.6838867,25.2219727 C32.8473633,25.3863281 33.0732422,25.4794922 33.3052734,25.4794922 C33.5364258,25.4794922 33.7631836,25.3863281 33.9266602,25.2219727 C34.0901367,25.0584961 34.1841797,24.8326172 34.1841797,24.6005859 C34.1841797,24.3694336 34.0901367,24.1426758 33.9266602,23.9791992 Z" id="Path" fill-rule="nonzero"></path>
                                        <path d="M23.5023926,12.2984473 L19.8267187,8.62277344 L19.8267187,4.39453125 C19.8267187,1.97138672 17.855332,0 15.4321875,0 L4.39453125,0 C1.97138672,0 0,1.97138672 0,4.39453125 L0,12.1289062 C0,14.5520508 1.97138672,16.5234375 4.39453125,16.5234375 L15.4320996,16.5234375 C17.2491504,16.5234375 18.8336426,15.4329785 19.4984473,13.7988281 L22.8808301,13.7988281 C23.2362598,13.7988281 23.5567969,13.5846387 23.6928516,13.2562793 C23.8289063,12.9279199 23.7536719,12.5498145 23.5023926,12.2984473 Z M18.8572852,12.0410156 C18.4478027,12.0410156 18.0925488,12.3237598 18.0007031,12.7228711 C17.7240234,13.9255664 16.6678418,14.765625 15.4320996,14.765625 L4.39453125,14.765625 C2.94064453,14.765625 1.7578125,13.582793 1.7578125,12.1289062 L1.7578125,4.39453125 C1.7578125,2.94064453 2.94064453,1.7578125 4.39453125,1.7578125 L15.4320996,1.7578125 C16.8859863,1.7578125 18.0688184,2.94064453 18.0688184,4.39453125 L18.0688184,8.98681641 C18.0688184,9.21990234 18.1614551,9.44349609 18.32625,9.60829102 L20.7589746,12.0410156 L18.8572852,12.0410156 Z" id="Shape" fill-rule="nonzero"></path>
                                        <path d="M40.6054688,28.4765625 L29.5679004,28.4765625 C27.7508496,28.4765625 26.1663574,29.5670215 25.5015527,31.2011719 L22.1191699,31.2011719 C21.7637402,31.2011719 21.4432031,31.4153613 21.3071484,31.7437207 C21.1710938,32.0720801 21.2463281,32.4501855 21.4976074,32.7015527 L25.1732813,36.3772266 L25.1732813,40.6054688 C25.1732813,43.0286133 27.144668,45 29.5678125,45 L40.6054688,45 C43.0286133,45 45,43.0286133 45,40.6054688 L45,32.8710938 C45,30.4479492 43.0286133,28.4765625 40.6054688,28.4765625 Z M43.2421875,40.6054688 C43.2421875,42.0593555 42.0593555,43.2421875 40.6054688,43.2421875 L29.5679004,43.2421875 C28.1140137,43.2421875 26.9311816,42.0593555 26.9311816,40.6054688 L26.9311816,36.0131836 C26.9311816,35.7800977 26.8385449,35.5565039 26.67375,35.391709 L24.2410254,32.9589844 L26.1427148,32.9589844 C26.5521973,32.9589844 26.9074512,32.6762402 26.9992969,32.2771289 C27.2759766,31.0744336 28.3321582,30.234375 29.5679004,30.234375 L40.6054688,30.234375 C42.0593555,30.234375 43.2421875,31.417207 43.2421875,32.8710938 L43.2421875,40.6054688 Z" id="Shape" fill-rule="nonzero"></path>
                                        <path d="M39.0371484,34.3996875 C38.6940234,34.0564746 38.1375,34.0564746 37.7942871,34.3996875 L35.4578906,36.736084 L34.3714746,35.649668 C34.0282617,35.3064551 33.4717383,35.3064551 33.1284375,35.649668 C32.7852246,35.9928809 32.7852246,36.5494043 33.1284375,36.8927051 L34.8363281,38.6005957 C35.0079785,38.7722461 35.2328906,38.8580273 35.4578027,38.8580273 C35.6827148,38.8580273 35.9077148,38.7722461 36.0792773,38.6005957 L39.0371484,35.6427246 C39.3803613,35.2995117 39.3803613,34.7429883 39.0371484,34.3996875 Z" id="Path" fill-rule="nonzero"></path>
                                        <path d="M13.9089551,5.82433594 C13.8050684,4.31727539 12.5902441,3.10245117 11.0831836,2.99856445 C10.228623,2.93976563 9.41405273,3.22804688 8.7900293,3.81058594 C8.17470703,4.38495117 7.82173828,5.19706055 7.82173828,6.03852539 C7.82182617,6.5240332 8.2153125,6.91751953 8.70073242,6.91751953 C9.18615234,6.91751953 9.57963867,6.5240332 9.57963867,6.03861328 C9.57963867,5.67729492 9.72518555,5.34243164 9.98956055,5.09563477 C10.2534961,4.84918945 10.5993457,4.7268457 10.9624219,4.75233398 C11.5986621,4.79619141 12.1115039,5.3090332 12.1553613,5.94527344 C12.1997461,6.58854492 11.7780469,7.15702148 11.1527051,7.29694336 C10.4682129,7.45004883 9.99017578,8.04515625 9.99017578,8.7440625 L9.99017578,9.21295898 C9.99017578,9.69837891 10.3836621,10.0918652 10.869082,10.0918652 C11.354502,10.0918652 11.7479883,9.69837891 11.7479883,9.21295898 L11.7479883,8.95719727 C13.1097656,8.5509668 14.0084473,7.26714844 13.9089551,5.82433594 Z" id="Path" fill-rule="nonzero"></path>
                                        <path d="M11.4908203,11.9548828 C11.3273438,11.7914063 11.1005859,11.6973633 10.8694336,11.6973633 C10.6374023,11.6973633 10.4115234,11.7914063 10.2480469,11.9548828 C10.0836914,12.1183594 9.99052734,12.3451172 9.99052734,12.5762695 C9.99052734,12.8074219 10.0836914,13.0341797 10.2480469,13.1976563 C10.4115234,13.3611328 10.6374023,13.4551758 10.8694336,13.4551758 C11.1005859,13.4551758 11.3273438,13.3611328 11.4908203,13.1976563 C11.6542969,13.0341797 11.7483398,12.8074219 11.7483398,12.5762695 C11.7483398,12.3451172 11.6542969,12.1183594 11.4908203,11.9548828 Z" id="Path" fill-rule="nonzero"></path>
                                        <path d="M9.54228516,39.984082 C9.37880859,39.8206055 9.15205078,39.7265625 8.92089844,39.7265625 C8.68974609,39.7265625 8.46298828,39.8206055 8.29951172,39.984082 C8.13603516,40.1475586 8.04199219,40.3743164 8.04199219,40.6054688 C8.04199219,40.8366211 8.13603516,41.0633789 8.29951172,41.2268555 C8.46298828,41.390332 8.68974609,41.484375 8.92089844,41.484375 C9.15205078,41.484375 9.37880859,41.390332 9.54228516,41.2268555 C9.70576172,41.0633789 9.79980469,40.8366211 9.79980469,40.6054688 C9.79980469,40.3743164 9.70576172,40.1475586 9.54228516,39.984082 Z" id="Path" fill-rule="nonzero"></path>
                                    </g>
                                </g>
                            </g>
                        </g>
                    </g>
                </g>
            </g>
        </g>
    </g>
</svg>