<?xml version="1.0" encoding="UTF-8"?>
<svg width="45px" height="45px" viewBox="0 0 45 45" version="1.1" xmlns="http://www.w3.org/2000/svg" xmlns:xlink="http://www.w3.org/1999/xlink">
    <!-- Generator: Sketch 63.1 (92452) - https://sketch.com -->
    <title>Icon1</title>
    <desc>Created with Sketch.</desc>
    <g id="Page-1" stroke="none" stroke-width="1" fill="none" fill-rule="evenodd">
        <g id="itro.vn/host" transform="translate(-960.000000, -1293.000000)" fill="#1CCCBF">
            <g id="Group-16" transform="translate(0.000000, 1025.000000)">
                <g id="Group-5" transform="translate(192.000000, 68.000000)">
                    <g id="Group-17" transform="translate(0.000000, 172.000000)">
                        <g id="3" transform="translate(728.000000, 0.000000)">
                            <g id="Group-19" transform="translate(40.000000, 28.000000)">
                                <g id="save-money">
                                    <g>
                                        <path d="M35.1174546,22.9003144 C35.4813767,22.9003144 35.7766342,22.6054001 35.7766342,22.2411347 L35.7766342,20.7610703 C35.7766342,20.3968048 35.4813767,20.1018906 35.1174546,20.1018906 C34.753189,20.1018906 34.4582749,20.3968048 34.4582749,20.7610703 L34.4582749,22.2411347 C34.4582749,22.6054001 34.753189,22.9003144 35.1174546,22.9003144 Z" id="Path" fill-rule="nonzero"></path>
                                        <path d="M42.4631882,23.0122375 L40.6542206,23.0122375 C40.1910782,21.1988067 39.3444443,19.4739532 38.1874466,17.9949189 C37.0218658,16.5052414 35.5356216,15.2558899 33.8711929,14.363594 L33.8711929,9.58007812 C33.8711929,9.18045044 33.6988449,8.80004883 33.3980942,8.53637695 C33.0983735,8.27339168 32.7001191,8.15219877 32.3049546,8.20404053 C29.7114944,8.54701998 27.5722504,10.3103256 26.7276763,12.7547837 L26.0321045,12.7547837 C26.0427475,12.6054382 26.0482407,12.4554062 26.0482407,12.3040009 C26.0482407,8.96999361 23.3366775,6.25774386 20.0033569,6.25774386 C16.6693496,6.25774386 13.9570999,8.96999361 13.9570999,12.3040009 C13.9570999,12.76577 14.0106582,13.2210159 14.1129685,13.6621856 C11.7045593,14.5829773 9.61269381,16.1481858 8.03546903,18.216362 C7.81471248,18.5057831 7.87033081,18.919487 8.16009521,19.1402436 C8.27922823,19.2312241 8.41964722,19.2751694 8.55903621,19.2751694 C8.75782011,19.2751694 8.95385742,19.1859055 9.08397677,19.0159607 C10.504303,17.1534348 12.3846817,15.7416916 14.549675,14.9067307 C14.8442459,15.521965 15.241127,16.086731 15.7248687,16.5735626 C15.6558609,16.5910721 15.5871963,16.6096115 15.5185318,16.6284942 C15.167656,16.7256546 14.9620056,17.0885468 15.0588227,17.4397659 C15.1398468,17.7315903 15.404892,17.9231643 15.6939697,17.9231643 C15.7519913,17.9231643 15.8113862,17.915268 15.8700943,17.8991318 C16.3586426,17.7638626 16.8598938,17.6673889 17.3597717,17.612114 C18.1119919,17.5293731 17.6752854,17.5544358 25.3197098,17.5537491 C25.6839752,17.5537491 25.9788894,17.2588349 25.9788894,16.8945694 C25.9788894,16.5306473 25.6839752,16.2353897 25.3197098,16.2353897 L24.6011353,16.2353897 C25.1428985,15.6047058 25.5466461,14.8696518 25.788002,14.073143 L27.2151947,14.073143 C27.5142288,14.073143 27.7758408,13.8719558 27.8524018,13.5828781 C28.4298706,11.4044952 30.2453613,9.80632784 32.4769592,9.51141357 C32.484169,9.51004028 32.5061416,9.507637 32.528801,9.52754977 C32.5449371,9.54162598 32.5528335,9.55913546 32.5528335,9.58042143 L32.5528335,14.7649384 C32.5528335,15.0152207 32.6942825,15.2438736 32.9184722,15.3551101 C36.2590027,17.0161057 38.714447,20.1763916 39.4869233,23.8090896 C39.5514679,24.1132736 39.8202896,24.3309402 40.1316833,24.3309402 L42.4631882,24.3309402 C42.7996445,24.3309402 43.0732727,24.6045684 43.0732727,24.9406814 L43.0732727,29.8196411 C43.0732727,30.1554107 42.7996445,30.4286957 42.4631882,30.4286957 L39.9363327,30.4286957 C39.4316482,30.4286957 38.9764023,30.7294464 38.7762451,31.1963653 C38.5802078,31.6564179 38.3536148,32.1102905 38.1023025,32.5445938 C37.9196548,32.8594208 38.0271148,33.262825 38.3422852,33.4451294 C38.446312,33.5055542 38.5599517,33.53405 38.671875,33.53405 C38.899498,33.53405 39.1209412,33.415947 39.2428208,33.2051468 C39.515419,32.7347946 39.7615815,32.2438431 39.9744415,31.7470551 L42.4631882,31.7470551 C43.5264587,31.7470551 44.3916321,30.8825684 44.3916321,29.8196411 L44.3916321,24.9406814 C44.3916321,23.8774109 43.5264587,23.0122375 42.4631882,23.0122375 L42.4631882,23.0122375 Z M17.4425125,16.2789917 C16.1008072,15.4117584 15.275116,13.9073181 15.275116,12.3040009 C15.275116,9.69715116 17.396164,7.57644653 20.0030136,7.57644653 C22.60952,7.57644653 24.7298813,9.69715116 24.7298813,12.3040009 C24.7298813,12.621231 24.6989822,12.9326248 24.6389008,13.2350922 C24.6310044,13.2639312 24.6248245,13.293457 24.6207046,13.3236694 C24.3628692,14.5067597 23.6597442,15.5473709 22.6284028,16.2353897 C18.5401153,16.2491226 18.2805634,16.203804 17.4425125,16.2789917 L17.4425125,16.2789917 Z" id="Shape" fill-rule="nonzero"></path>
                                        <path d="M37.4637222,34.6405792 C37.1952439,34.3951035 36.7781067,34.4136429 36.5326309,34.6824646 C35.935936,35.3347778 35.2678299,35.9246064 34.5468521,36.4351272 C34.3782807,36.5542603 34.2752838,36.745491 34.2687607,36.951828 C34.2224121,38.40065 34.0765,40.014267 33.835144,41.7473603 C33.6813354,42.8521729 32.7268982,43.6816406 31.6121292,43.6816406 L31.6001129,43.6816406 C30.5080032,43.6758042 29.5659256,42.8432465 29.3884277,41.7360306 C29.270668,40.8866501 29.1755676,40.0633621 29.1051865,39.2884827 C29.0674209,38.8788986 29.0361786,38.4823608 29.0118027,38.1095123 C28.9860535,37.7064514 28.9671707,37.3119736 28.9551544,36.9370651 C28.9438247,36.573143 28.6358643,36.2850952 28.2757187,36.2991714 C27.9117966,36.3105011 27.6261521,36.6150284 27.6374817,36.9786072 C27.6498413,37.3675918 27.6694107,37.7764893 27.6961899,38.1939697 C27.7064895,38.3543015 27.7181626,38.518753 27.7312088,38.6862945 C27.636795,38.6883545 27.5427246,38.6897278 27.4496841,38.6897278 L18.8837815,38.6897278 C18.4432983,38.6897278 17.9859924,38.6639786 17.52388,38.6131668 C17.3477554,38.5935974 17.1712876,38.6461258 17.0343018,38.7583923 C16.897316,38.8703155 16.811142,39.0330505 16.7953491,39.2095185 C16.721878,40.0283432 16.6233444,40.8821869 16.5028381,41.7473603 C16.3493728,42.8501129 15.3939057,43.6816406 14.2801666,43.6816406 C13.166771,43.6816406 12.2109604,42.8501129 12.0574951,41.7473603 C12.0547485,41.7291641 12.0523453,41.710968 12.049942,41.6927719 C12.0489121,41.6862488 12.0478821,41.6793823 12.0471954,41.6728592 C12.0461655,41.6666794 12.0454788,41.6604996 12.0444488,41.6543198 C11.9139862,40.7036591 11.7636108,39.4237519 11.6777802,38.0690002 C11.5081787,35.3334045 11.6970063,33.6875152 11.8604278,32.8443145 C11.9294358,32.4869156 11.6959763,32.1411895 11.3385772,32.0718384 C10.980835,32.0028305 10.6351089,32.23629 10.5661011,32.593689 C10.4116059,33.3912277 10.329895,34.2776871 10.3010559,35.2012253 C7.92697904,32.8992462 6.58458712,29.7667695 6.57566068,26.4149094 C6.57531738,26.3606643 6.57566068,26.3067627 6.57634737,26.2525177 C6.57634737,26.2521744 6.57634737,26.2518311 6.57634737,26.2514878 C6.57634737,26.2453079 6.57634737,26.2391281 6.57634737,26.2329483 C6.59729004,24.5087815 6.97940824,22.8409195 7.71411894,21.2726211 C7.86861422,20.942688 7.72647855,20.5502701 7.39688871,20.3957749 C7.06695557,20.241623 6.67488094,20.3837585 6.52038574,20.7133484 C5.79734807,22.2569275 5.38192749,23.8877105 5.28133395,25.5717087 C3.38104248,25.6019211 2.04517362,26.0056687 1.10481258,26.8251801 C0.16101835,27.6498413 -0.21594999,28.8264084 0.121536211,29.8965454 C0.625190713,31.4929962 2.47913358,32.0285797 3.60454562,30.8801651 C4.00726318,30.4692078 4.19952393,29.9315644 4.13223267,29.4045639 C4.08588407,29.0433884 3.75629423,28.7886429 3.39477539,28.8343048 C3.03359985,28.8803101 2.77816772,29.2105865 2.82451632,29.5717621 C2.84717558,29.74823 2.71911621,29.900322 2.66315458,29.9573135 C2.51518254,30.1083755 2.30541231,30.1938629 2.12928768,30.1749802 C1.78081515,30.137558 1.50066378,29.8852158 1.37912748,29.5000076 C1.19888306,28.9287185 1.42066951,28.3000946 1.9717026,27.8187561 C2.65113826,27.2261811 3.73191838,26.9213105 5.26657104,26.8910981 C5.4107666,30.8355332 7.22625732,34.4689179 10.3041458,36.964531 C10.3546143,38.5894775 10.5262756,40.3129578 10.7514954,41.928978 C10.9952545,43.679924 12.5123977,45.0001526 14.2801666,45.0001526 C16.0479355,45.0001526 17.5647354,43.679924 17.8084946,41.928978 C17.9001617,41.2704849 17.9794693,40.6178284 18.0450439,39.981308 C18.3286285,39.9991607 18.6087799,40.0080872 18.8837815,40.0080872 L27.4493408,40.0080872 C27.5815201,40.0080872 27.7150727,40.0060273 27.8493118,40.0022507 C27.9124832,40.6119919 27.9880142,41.2368393 28.0748749,41.8661499 C28.0776215,41.8867493 28.0807114,41.9076919 28.0841446,41.9282913 L28.0841446,41.928978 C28.0851746,41.9355011 28.0862046,41.9420242 28.0872345,41.9485474 C28.3673858,43.6847305 29.8601532,44.9907303 31.5929031,45.0001526 C31.5994263,45.0001526 31.605606,45.0001526 31.6121292,45.0001526 C33.3812714,45.0001526 34.8963547,43.6830139 35.1408005,41.9293213 C35.3708267,40.2772522 35.5163955,38.7278366 35.5744171,37.3178101 C36.271019,36.7990494 36.9192124,36.2129975 37.5052642,35.5720139 C37.7510834,35.3031921 37.7325439,34.8863984 37.4637222,34.6405792 L37.4637222,34.6405792 Z" id="Path" fill-rule="nonzero"></path>
                                        <path d="M20.4582596,11.6444778 L19.5474243,11.6444778 C19.3479538,11.6444778 19.1855621,11.4820862 19.1855621,11.2826157 C19.1855621,11.0834885 19.3479538,10.9210968 19.5474243,10.9210968 L21.2904739,10.9210968 C21.6547393,10.9210968 21.9496536,10.6261826 21.9496536,10.2619171 C21.9496536,9.89799504 21.6547393,9.60273738 21.2904739,9.60273738 L20.7600403,9.60273738 L20.7600403,9.27658081 C20.7600403,8.91231539 20.465126,8.61740112 20.1008606,8.61740112 C19.7369385,8.61740112 19.4416809,8.91231539 19.4416809,9.27658081 L19.4416809,9.60617065 C18.5644912,9.66075899 17.8672027,10.3920364 17.8672027,11.282959 C17.8672027,12.2092437 18.6207962,12.9628372 19.5474243,12.9628372 L20.4582596,12.9628372 C20.6573868,12.9628372 20.8197784,13.1252289 20.8197784,13.324356 C20.8197784,13.5238266 20.6573868,13.685875 20.4582596,13.685875 L18.7148667,13.685875 C18.3509445,13.685875 18.055687,13.9811325 18.055687,14.3450546 C18.055687,14.7093201 18.3509445,15.0042343 18.7148667,15.0042343 L19.4416809,15.0042343 L19.4416809,15.3307343 C19.4416809,15.6946563 19.7369385,15.989914 20.1008606,15.989914 C20.465126,15.989914 20.7600403,15.6946563 20.7600403,15.3307343 L20.7600403,14.9771118 C21.5428162,14.8346329 22.1381378,14.147644 22.1381378,13.324356 C22.1381378,12.3980713 21.3845444,11.6444778 20.4582596,11.6444778 Z" id="Path" fill-rule="nonzero"></path>
                                        <path d="M8.10894015,12.0914841 C11.442604,12.0914841 14.1548538,9.37957764 14.1548538,6.04557035 C14.1548538,2.71190646 11.442604,0 8.10894015,0 C6.89769747,0 5.72868352,0.357055664 4.72824097,1.03305814 C4.42646024,1.23664852 4.34715275,1.64623263 4.55108643,1.94801326 C4.7546768,2.24979398 5.16460421,2.32910156 5.46638484,2.12551119 C6.24778752,1.59748075 7.16171265,1.31835938 8.10894015,1.31835938 C10.7157898,1.31835938 12.8364944,3.439064 12.8364944,6.04557035 C12.8364944,8.65242 10.7157898,10.7731247 8.10894015,10.7731247 C5.5024338,10.7731247 3.38172908,8.65242 3.38172908,6.04557035 C3.38172908,5.28957369 3.55476375,4.56756592 3.89568331,3.89945988 C4.06116483,3.5753632 3.93276217,3.17813871 3.60832219,3.01265719 C3.28422551,2.84717558 2.88734432,2.97557833 2.72151949,3.30001831 C2.29099271,4.14321899 2.06336971,5.09284969 2.06336971,6.04557035 C2.06336971,9.37957764 4.77527616,12.0914841 8.10894015,12.0914841 Z" id="Path" fill-rule="nonzero"></path>
                                        <path d="M8.20713041,2.35965727 C7.84320829,2.35965727 7.54795072,2.65457153 7.54795072,3.01883695 L7.54795072,3.3484268 C6.67076115,3.40301514 5.97381592,4.13429256 5.97381592,5.02521513 C5.97381592,5.95149996 6.727066,6.70509334 7.65369413,6.70509334 L8.56452937,6.70509334 C8.76365666,6.70509334 8.9260483,6.86714168 8.9260483,7.06661227 C8.9260483,7.26608276 8.76365666,7.4281311 8.56452937,7.4281311 L6.82147978,7.4281311 C6.45721436,7.4281311 6.16230009,7.72304537 6.16230009,8.08731079 C6.16230009,8.45157621 6.45721436,8.74649048 6.82147978,8.74649048 L7.54829402,8.74649048 L7.54829402,9.07264705 C7.54829402,9.43691256 7.84320829,9.73182674 8.20747371,9.73182674 C8.57139592,9.73182674 8.8666534,9.43691256 8.8666534,9.07264705 L8.8666534,8.71936796 C9.64908598,8.57688908 10.2444077,7.88990019 10.2444077,7.06661227 C10.2444077,6.14032743 9.49081421,5.38673396 8.56452937,5.38673396 L7.65369413,5.38673396 C7.45422363,5.38673396 7.29217529,5.22434232 7.29217529,5.02521513 C7.29217529,4.82574463 7.45422363,4.66369629 7.65369413,4.66369629 L9.39674373,4.66369629 C9.76100924,4.66369629 10.0559234,4.36843872 10.0559234,4.0045166 C10.0559234,3.64025118 9.76100924,3.34533691 9.39674373,3.34533691 L8.8666534,3.34533691 L8.8666534,3.01883695 C8.8663101,2.65457153 8.57139592,2.35965727 8.20713041,2.35965727 Z" id="Path" fill-rule="nonzero"></path>
                                    </g>
                                </g>
                            </g>
                        </g>
                    </g>
                </g>
            </g>
        </g>
    </g>
</svg>