<?xml version="1.0" encoding="UTF-8"?>
<svg width="62px" height="45px" viewBox="0 0 62 45" version="1.1" xmlns="http://www.w3.org/2000/svg" xmlns:xlink="http://www.w3.org/1999/xlink">
    <!-- Generator: Sketch 63.1 (92452) - https://sketch.com -->
    <title>Icon1</title>
    <desc>Created with Sketch.</desc>
    <g id="Page-1" stroke="none" stroke-width="1" fill="none" fill-rule="evenodd">
        <g id="itro.vn/host" transform="translate(-240.000000, -1295.000000)" fill="#1CCCBF">
            <g id="Group-16" transform="translate(0.000000, 1025.000000)">
                <g id="Group-5" transform="translate(192.000000, 68.000000)">
                    <g id="Group-17" transform="translate(0.000000, 172.000000)">
                        <g id="1">
                            <g id="Group-20" transform="translate(48.000000, 30.000000)">
                                <g id="users">
                                    <g>
                                        <path d="M54.062234,20.2571809 C51.9771543,19.2147606 48.0677793,19.2026729 47.9023803,19.2026729 C47.4066622,19.2026729 47.0047739,19.6045612 47.0047739,20.1002793 C47.0047739,20.5959973 47.4066622,20.9978856 47.9023803,20.9978856 C48.9111702,20.9980053 51.8401197,21.1533511 53.2594149,21.8629388 C53.3883112,21.9274468 53.5252261,21.9578457 53.6601064,21.9578457 C53.9893484,21.9578457 54.306383,21.7759309 54.4636436,21.4615293 C54.6854122,21.0181117 54.5056516,20.4789495 54.062234,20.2571809 Z" id="Path" fill-rule="nonzero"></path>
                                        <path d="M58.5373404,33.0368218 L54.8302261,31.9776463 C54.6702128,31.9319282 54.5584309,31.7837633 54.5584309,31.6172872 L54.5584309,30.3799069 C54.8600266,30.1709441 55.1477394,29.9370878 55.4166622,29.6760638 C56.7199867,28.4112766 57.4377128,26.7148005 57.4377128,24.8990027 L57.4377128,23.191516 L57.7961569,22.4747473 C58.1895479,21.6878457 58.3974335,20.806875 58.3974335,19.9272207 L58.3974335,15.3015559 C58.3974335,14.8058378 57.9955452,14.4039495 57.4998271,14.4039495 L48.8621011,14.4039495 C45.7211968,14.4039495 43.1657713,16.959375 43.1657713,20.1002793 L43.1657713,20.1537766 C43.1657713,20.885266 43.3387101,21.6178324 43.6657979,22.272008 L44.125492,23.1913963 L44.125492,24.6574867 C44.125492,26.9809707 45.2704787,29.0656915 47.0047739,30.3201862 L47.0050133,31.6170479 C47.0050133,31.8170346 47.0050133,31.8998537 46.2638298,32.1116888 L44.4549734,32.6284707 L39.2224069,30.7257846 C39.2411968,30.478883 39.1578989,30.2277926 38.9777793,30.0385771 L37.3057181,28.2819016 L37.3057181,25.3329654 C37.4824867,25.1873138 37.656742,25.0377128 37.8256117,24.8794947 C39.9349867,22.902367 41.1447207,20.1109309 41.1447207,17.2209973 L41.1447207,14.8659176 C41.7816622,13.4798936 42.1044415,12.0132048 42.1044415,10.5027128 L42.1044415,0.905505319 C42.1044415,0.409787234 41.7025532,0.00789893617 41.2068351,0.00789893617 L27.7703856,0.00789893617 C23.0417952,0.00789893617 19.1948936,3.85492021 19.1948936,8.58339096 L19.1948936,10.5029521 C19.1948936,12.0134441 19.5176729,13.480133 20.1546144,14.8661569 L20.1546144,16.8924734 C20.1546144,20.2478457 21.6465559,23.2707447 23.993617,25.2636702 L23.993617,28.2820213 L22.3215559,30.0386968 C22.1414362,30.2279122 22.0581383,30.4790027 22.0769282,30.7259043 L16.5542553,32.7340293 C16.1540426,32.8795612 15.7821941,33.0766755 15.4445745,33.3154388 L14.577367,32.8818351 C17.158883,31.7581516 17.9766622,30.177766 18.0159176,30.0992553 C18.1423005,29.846609 18.1423005,29.5490824 18.0159176,29.2964362 C17.3688032,28.0022074 17.2904122,25.6300133 17.2274601,23.7239761 C17.206516,23.0894282 17.1866489,22.4899468 17.1487101,21.9561702 C16.8426862,17.6507713 13.5696543,14.4039495 9.53521277,14.4039495 C5.50077128,14.4039495 2.22761968,17.6506516 1.92171543,21.9561702 C1.8837766,22.4900665 1.86390957,23.0895479 1.84296543,23.7242154 C1.7800133,25.630133 1.70150266,28.0020878 1.05450798,29.2963165 C0.928125,29.5489628 0.928125,29.8464894 1.05450798,30.0991356 C1.0937633,30.1776463 1.90986702,31.7548005 4.49652926,32.8798005 L2.08771277,34.0841489 C0.799946809,34.7285106 0,36.022859 0,37.4625 L0,44.0938963 C0,44.5896144 0.401888298,44.9915027 0.897606383,44.9915027 C1.39332447,44.9915027 1.79521277,44.5896144 1.79521277,44.0938963 L1.79521277,37.4625 C1.79521277,36.7070745 2.21493351,36.0278856 2.89053191,35.6900266 L5.89009309,34.1903059 L6.93347074,35.1818617 C7.66304521,35.8751729 8.59894947,36.2216489 9.53521277,36.2216489 C10.4712367,36.2216489 11.4076197,35.8749335 12.1369548,35.1818617 L13.1802128,34.1904255 L14.1582447,34.6794415 C13.6977128,35.4163165 13.4363298,36.2804122 13.4363298,37.1855585 L13.4363298,44.0941356 C13.4363298,44.5898537 13.8382181,44.9919814 14.3339362,44.9919814 C14.8296543,44.9919814 15.2315426,44.5898537 15.2315426,44.0941356 L15.2315426,37.1855585 C15.2315426,35.9533245 16.0095878,34.8424468 17.1677394,34.4212899 L22.9904521,32.304016 L25.4143484,35.9400399 C25.7242021,36.4048803 26.220758,36.7030053 26.7766755,36.7580585 C26.8386702,36.7641622 26.9003059,36.7671543 26.9618218,36.7671543 C27.4522739,36.7671543 27.9220213,36.574109 28.2731649,36.2230851 L29.7519415,34.7443085 L29.7519415,44.0942553 C29.7519415,44.5899734 30.1538298,44.9919814 30.6495479,44.9919814 C31.145266,44.9919814 31.5471543,44.5899734 31.5471543,44.0942553 L31.5471543,34.7443085 L33.0259309,36.2230851 C33.3769548,36.5742287 33.8467021,36.7672739 34.3372739,36.7672739 C34.3986702,36.7672739 34.4604255,36.7642819 34.5223005,36.7581782 C35.0783378,36.703125 35.5748936,36.405 35.8847473,35.9401596 L38.3087633,32.3042553 L44.1313564,34.4215293 C45.2893883,34.8426862 46.0675532,35.9535638 46.0675532,37.1857979 L46.0675532,44.094375 C46.0675532,44.5900931 46.4694415,44.9919814 46.9651596,44.9919814 C47.4608777,44.9919814 47.862766,44.5900931 47.862766,44.094375 L47.862766,37.1857979 C47.862766,35.937766 47.3669282,34.7672872 46.5351463,33.9016356 L46.7569149,33.8383245 C46.9805984,33.7744149 47.2857846,33.6869282 47.5921676,33.5367287 L49.8839362,35.8284973 L49.8839362,44.094375 C49.8839362,44.5900931 50.2858245,44.9919814 50.7815426,44.9919814 C51.2772606,44.9919814 51.6791489,44.5900931 51.6791489,44.094375 L51.6791489,35.8284973 L53.955,33.5526463 C54.0759973,33.6141622 54.2030984,33.6661037 54.3369016,33.7042819 L58.0441356,34.7634574 C58.8902793,35.0052128 59.481383,35.7887633 59.481383,36.6688963 L59.481383,44.094375 C59.481383,44.5900931 59.8832713,44.9919814 60.3789894,44.9919814 C60.8747074,44.9919814 61.2765957,44.5900931 61.2765957,44.094375 L61.2765957,36.6688963 C61.2765957,34.9912101 60.1501596,33.4977128 58.5373404,33.0368218 Z M5.75844415,31.4514096 C4.07944149,30.8472606 3.23724734,30.0418085 2.87772606,29.6019814 C3.12283245,28.9612101 3.28176862,28.2273271 3.3893617,27.452633 C3.8843617,28.639508 4.71339096,29.6527261 5.75844415,30.3755984 L5.75844415,31.4514096 Z M10.9005319,33.8806915 C10.1349335,34.6081117 8.9356117,34.607992 8.17025266,33.8805718 L7.33547872,33.0873271 C7.47634309,32.8234309 7.5537766,32.5242287 7.5537766,32.2107846 L7.5537766,31.2540559 C8.17994681,31.449734 8.8456117,31.5552926 9.53545213,31.5552926 C10.2244548,31.5552926 10.8897606,31.4492553 11.517008,31.2546543 L11.5168883,32.2106649 C11.5168883,32.5242287 11.5942021,32.8235505 11.7351862,33.0875665 L10.9005319,33.8806915 Z M9.53569149,29.7600798 C6.85531915,29.7600798 4.67485372,27.5794947 4.67485372,24.899242 C4.67485372,24.4035239 4.27296543,24.0016356 3.77724734,24.0016356 C3.72698138,24.0016356 3.67791223,24.0067819 3.62992021,24.0148005 C3.63255319,23.9376064 3.63506649,23.8602926 3.63769947,23.7838165 C3.65768617,23.1666223 3.67695479,22.5836569 3.7125,22.0836303 C3.82715426,20.4708112 4.47163564,18.9846144 5.52722074,17.8986303 C6.59226064,16.8028324 8.01574468,16.1994016 9.53545213,16.1994016 C11.0551596,16.1994016 12.4785239,16.8028324 13.5436835,17.8986303 C14.5992686,18.9846144 15.24375,20.4708112 15.3584043,22.0836303 C15.3938298,22.5835372 15.4132181,23.166383 15.4335638,23.7834574 C15.435359,23.8364761 15.4371543,23.8902128 15.4389495,23.9435904 C14.4623537,22.4389628 12.9541356,21.3301197 11.0053723,20.7039495 C9.2050133,20.1255319 7.65658245,20.1613165 7.5912367,20.162992 C7.35618351,20.1695745 7.1330984,20.2679521 6.9699734,20.4371809 L5.35045213,22.1167819 C5.00636968,22.4736702 5.01666223,23.0419149 5.37355053,23.3859973 C5.73043883,23.7300798 6.29868351,23.7196676 6.64276596,23.3628989 L7.99037234,21.9653856 C9.15091755,22.0221144 12.8846011,22.4563165 14.3366888,25.6538298 C13.9713032,28.0101064 11.9460638,29.7600798 9.53569149,29.7600798 Z M13.3119814,31.4544016 L13.3121011,30.3838564 C14.3563165,29.6649335 15.1865426,28.6536303 15.6819016,27.4577793 C15.7894947,28.2306782 15.9483112,28.9628856 16.1929388,29.6022207 C15.8354521,30.037859 14.9893085,30.850492 13.3119814,31.4544016 Z M21.9498271,16.8923537 L21.9498271,14.6653324 C21.9498271,14.5302128 21.9193085,14.3967686 21.8605452,14.2750532 C21.2829654,13.0789628 20.9901064,11.809867 20.9901064,10.5029521 L20.9901064,8.58351064 C20.9901064,4.84480053 24.0317952,1.80323138 27.7703856,1.80323138 L40.3092287,1.80323138 L40.3092287,10.5030718 C40.3092287,11.8099867 40.0163697,13.0790824 39.4387899,14.2751729 C39.3800266,14.3968883 39.349508,14.5303324 39.349508,14.6654521 L39.349508,17.2212367 C39.349508,19.6520745 38.3723138,21.906742 36.5979255,23.5699468 C36.3763963,23.7774734 36.1464894,23.9720745 35.9088032,24.153391 C35.9035372,24.1569814 35.8985106,24.1609309 35.8933644,24.164641 C34.231117,25.4266755 32.1951064,26.0400399 30.0688564,25.9022872 C25.5160771,25.6075133 21.9498271,21.6499069 21.9498271,16.8923537 Z M27.0038298,34.9535106 C26.9976064,34.959734 26.983125,34.9744548 26.9538032,34.9713431 C26.9246011,34.9684707 26.9131117,34.9513564 26.9082048,34.9439362 L24.1166489,30.7565426 L25.0149734,29.8126197 L29.2498803,32.7073404 L27.0038298,34.9535106 Z M30.6496676,31.4895878 L25.7888298,28.167008 L25.7888298,26.4914761 C27.0465559,27.171383 28.4548404,27.596609 29.9526463,27.6935505 C30.1892553,27.7088697 30.4244282,27.7164096 30.658883,27.7164096 C32.3752261,27.7164096 34.0270612,27.3061436 35.5105053,26.5273803 L35.5105053,28.167008 L30.6496676,31.4895878 Z M34.3911303,34.9441755 C34.3862234,34.9515957 34.374734,34.9687101 34.3455319,34.9715824 C34.3162101,34.9752926 34.3018484,34.9598537 34.2955053,34.95375 L32.0494548,32.7076995 L36.2843617,29.812859 L37.1828059,30.7567819 L34.3911303,34.9441755 Z M50.7815426,34.1868351 L48.7445745,32.1499867 C48.7801197,31.9885372 48.8002261,31.8117686 48.8001064,31.6168085 L48.7999867,31.2380186 C49.3652394,31.4235239 49.9610106,31.5336303 50.5774867,31.5520612 C50.6466622,31.5542154 50.7152394,31.5551729 50.7841755,31.5551729 C51.4653989,31.5551729 52.1303457,31.4522473 52.7632181,31.2558511 L52.7632181,31.6172872 C52.7632181,31.7963298 52.7857181,31.9717819 52.8280851,32.1404122 L50.7815426,34.1868351 Z M54.1664761,28.3878191 C53.215133,29.3110372 51.9583644,29.798617 50.6314628,29.7576862 C48.0339096,29.6797739 45.9207048,27.3918351 45.9207048,24.6577261 L45.9207048,22.9796809 C45.9207048,22.8402527 45.8882713,22.702859 45.8259176,22.5782713 L45.2714362,21.4693085 C45.0683378,21.062992 44.960984,20.6082048 44.960984,20.1538963 L44.960984,20.1003989 C44.960984,17.9492553 46.7110771,16.1992819 48.8621011,16.1992819 L56.6022207,16.1992819 L56.6022207,19.9273404 C56.6022207,20.5298138 56.4598005,21.133125 56.1903989,21.6720479 L55.7372872,22.5782713 C55.6749335,22.7029787 55.6425,22.8402527 55.6425,22.9796809 L55.6425,24.8991223 C55.6425,26.2251862 55.1182979,27.4641223 54.1664761,28.3878191 Z" id="Shape" fill-rule="nonzero"></path>
                                        <path d="M56.5399867,37.4378457 C56.0442686,37.4378457 55.6423803,37.839734 55.6423803,38.3354521 L55.6423803,44.0938963 C55.6423803,44.5896144 56.0442686,44.9915027 56.5399867,44.9915027 C57.0357048,44.9915027 57.4375931,44.5896144 57.4375931,44.0938963 L57.4375931,38.3354521 C57.4375931,37.8398537 57.0357048,37.4378457 56.5399867,37.4378457 Z" id="Path" fill-rule="nonzero"></path>
                                        <path d="M4.73660904,38.6243617 C4.24089096,38.6243617 3.83900266,39.02625 3.83900266,39.5219681 L3.83900266,44.0938963 C3.83900266,44.5896144 4.24089096,44.9915027 4.73660904,44.9915027 C5.23232713,44.9915027 5.63421543,44.5896144 5.63421543,44.0938963 L5.63421543,39.5219681 C5.63421543,39.0263697 5.23232713,38.6243617 4.73660904,38.6243617 Z" id="Path" fill-rule="nonzero"></path>
                                        <path d="M38.0025,10.828125 C34.607633,7.43325798 27.5046941,8.08228723 24.6081782,8.51888298 C23.6958511,8.65639628 23.0337766,9.42845745 23.0337766,10.3546676 L23.0337766,12.4225133 C23.0337766,12.9182314 23.4356649,13.3201197 23.931383,13.3201197 C24.4271011,13.3201197 24.8289894,12.9182314 24.8289894,12.4225133 L24.8289894,10.3545479 C24.8289894,10.3240293 24.8490957,10.2979388 24.8759043,10.2938697 C26.032859,10.1194947 28.3286968,9.85045213 30.7073537,10.0090293 C33.5064495,10.1953723 35.5338431,10.8980186 36.7331649,12.0974601 C37.0837101,12.4480053 37.6520745,12.4480053 38.0025,12.0974601 C38.3530452,11.7469149 38.3530452,11.1785505 38.0025,10.828125 Z" id="Path" fill-rule="nonzero"></path>
                                        <path d="M20.0925,39.3574069 C19.5967819,39.3574069 19.1948936,39.7592952 19.1948936,40.2550133 L19.1948936,44.094016 C19.1948936,44.589734 19.5967819,44.9916223 20.0925,44.9916223 C20.5882181,44.9916223 20.9901064,44.589734 20.9901064,44.094016 L20.9901064,40.2550133 C20.9901064,39.7594149 20.5882181,39.3574069 20.0925,39.3574069 Z" id="Path" fill-rule="nonzero"></path>
                                        <path d="M41.2068351,39.3574069 C40.711117,39.3574069 40.3092287,39.7592952 40.3092287,40.2550133 L40.3092287,44.094016 C40.3092287,44.589734 40.711117,44.9916223 41.2068351,44.9916223 C41.7025532,44.9916223 42.1044415,44.589734 42.1044415,44.094016 L42.1044415,40.2550133 C42.1044415,39.7594149 41.7025532,39.3574069 41.2068351,39.3574069 Z" id="Path" fill-rule="nonzero"></path>
                                    </g>
                                </g>
                            </g>
                        </g>
                    </g>
                </g>
            </g>
        </g>
    </g>
</svg>