<?xml version="1.0" encoding="UTF-8"?>
<svg width="32px" height="39px" viewBox="0 0 32 39" version="1.1" xmlns="http://www.w3.org/2000/svg" xmlns:xlink="http://www.w3.org/1999/xlink">
    <!-- Generator: Sketch 63.1 (92452) - https://sketch.com -->
    <title>app-2</title>
    <desc>Created with Sketch.</desc>
    <g id="Page-1" stroke="none" stroke-width="1" fill="none" fill-rule="evenodd">
        <g id="quanlynhatro.com/download" transform="translate(-1224.000000, -1327.000000)" fill="#F06134" fill-rule="nonzero">
            <g id="section-2" transform="translate(-122.000000, 1062.000000)">
                <g id="HowItWorksSection" transform="translate(282.000000, 153.000000)">
                    <g id="HowItWorksCard" transform="translate(800.000000, 75.186246)">
                        <g id="app-2" transform="translate(264.000000, 37.593123)">
                            <path d="M25.9624867,14.567711 L25.0639659,15.4907564 L29.1502865,19.0113544 C30.1122734,19.8431285 30.6606477,21.0150957 30.6609808,22.2432659 L30.6609808,37.5730842 L31.9936034,37.5730842 L31.9936034,22.2432659 C31.9919377,20.6636308 31.2869803,19.1572632 30.049307,18.0881524 L25.9624867,14.567711 Z" id="Path"></path>
                            <path d="M20.6663113,0 L3.34221748,0 C1.50319829,0.00219176325 0.0129930917,1.40272848 0.0106609808,3.13109035 L0.0106609808,34.4419939 C0.0129930917,36.1703558 1.50319829,37.5708924 3.34221748,37.5730842 L20,37.5730842 L20,36.4527801 C19.996835,33.6318242 20.8853612,30.872864 22.5533049,28.5273642 C22.7298774,28.2787556 22.6943963,27.9479559 22.470016,27.737077 L17.8058369,23.3535505 C17.3747335,22.9479177 17.1461887,22.390114 17.1763393,21.8175941 C17.2066565,21.2447612 17.4930038,20.7112234 17.964419,20.3477038 C18.8724347,19.6953411 20.1565832,19.788491 20.9474947,20.5635925 L27.5246535,26.7451476 L28.4668177,25.8596752 L23.9978678,21.6583782 L23.9978678,3.13109035 C23.9955357,1.40272848 22.5053305,0.00219176325 20.6663113,0 Z M22.6652452,20.405942 L21.8896588,19.6770242 C20.6113406,18.4496368 18.5554371,18.3217318 17.1162047,19.3805099 C16.3549441,19.9685287 15.8930237,20.8317703 15.8448827,21.7571641 C15.7969083,22.6824013 16.1667111,23.5836856 16.8636727,24.2390229 L21.1480544,28.2657616 C19.5502399,30.6856248 18.6933635,33.4729214 18.6720416,36.3206481 L3.34221748,36.3206481 C2.23847284,36.3206481 1.34328358,35.4793241 1.34328358,34.4419939 L1.34328358,32.5633397 L18.0010661,32.5633397 L18.0010661,31.3109035 L1.34328358,31.3109035 L1.34328358,5.00974456 L22.6652452,5.00974456 L22.6652452,20.405942 Z M22.6652452,3.75730842 L1.34328358,3.75730842 L1.34328358,3.13109035 C1.34328358,2.09376014 2.23847284,1.25243614 3.34221748,1.25243614 L20.6663113,1.25243614 C21.7700559,1.25243614 22.6652452,2.09376014 22.6652452,3.13109035 L22.6652452,3.75730842 Z" id="Shape"></path>
                            <path d="M4.00852878,11.2719253 L6.67377399,11.2719253 C7.40988141,11.2719253 8.00639659,10.7113036 8.00639659,10.0194891 L8.00639659,7.51461685 C8.00639659,6.82280242 7.40988141,6.26218071 6.67377399,6.26218071 L4.00852878,6.26218071 C3.27242136,6.26218071 2.67590618,6.82280242 2.67590618,7.51461685 L2.67590618,10.0194891 C2.67590618,10.7113036 3.27242136,11.2719253 4.00852878,11.2719253 Z M4.00852878,7.51461685 L6.67377399,7.51461685 L6.67377399,10.0194891 L4.00852878,10.0194891 L4.00852878,7.51461685 Z" id="Shape"></path>
                            <path d="M10.6716418,11.2719253 L13.336887,11.2719253 C14.0729944,11.2719253 14.6695096,10.7113036 14.6695096,10.0194891 L14.6695096,7.51461685 C14.6695096,6.82280242 14.0729944,6.26218071 13.336887,6.26218071 L10.6716418,6.26218071 C9.93553437,6.26218071 9.33901919,6.82280242 9.33901919,7.51461685 L9.33901919,10.0194891 C9.33901919,10.7113036 9.93553437,11.2719253 10.6716418,11.2719253 Z M10.6716418,7.51461685 L13.336887,7.51461685 L13.336887,10.0194891 L10.6716418,10.0194891 L10.6716418,7.51461685 Z" id="Shape"></path>
                            <path d="M17.3347548,11.2719253 L20,11.2719253 C20.7361074,11.2719253 21.3326226,10.7113036 21.3326226,10.0194891 L21.3326226,7.51461685 C21.3326226,6.82280242 20.7361074,6.26218071 20,6.26218071 L17.3347548,6.26218071 C16.5986474,6.26218071 16.0021322,6.82280242 16.0021322,7.51461685 L16.0021322,10.0194891 C16.0021322,10.7113036 16.5986474,11.2719253 17.3347548,11.2719253 Z M17.3347548,7.51461685 L20,7.51461685 L20,10.0194891 L17.3347548,10.0194891 L17.3347548,7.51461685 Z" id="Shape"></path>
                            <path d="M4.00852878,17.534106 L6.67377399,17.534106 C7.40988141,17.534106 8.00639659,16.9734843 8.00639659,16.2816698 L8.00639659,13.7767976 C8.00639659,13.0849831 7.40988141,12.5243614 6.67377399,12.5243614 L4.00852878,12.5243614 C3.27242136,12.5243614 2.67590618,13.0849831 2.67590618,13.7767976 L2.67590618,16.2816698 C2.67590618,16.9734843 3.27242136,17.534106 4.00852878,17.534106 Z M4.00852878,13.7767976 L6.67377399,13.7767976 L6.67377399,16.2816698 L4.00852878,16.2816698 L4.00852878,13.7767976 Z" id="Shape"></path>
                            <path d="M4.00852878,23.7962867 L6.67377399,23.7962867 C7.40988141,23.7962867 8.00639659,23.235665 8.00639659,22.5438505 L8.00639659,20.0389783 C8.00639659,19.3471638 7.40988141,18.7865421 6.67377399,18.7865421 L4.00852878,18.7865421 C3.27242136,18.7865421 2.67590618,19.3471638 2.67590618,20.0389783 L2.67590618,22.5438505 C2.67590618,23.235665 3.27242136,23.7962867 4.00852878,23.7962867 Z M4.00852878,20.0389783 L6.67377399,20.0389783 L6.67377399,22.5438505 L4.00852878,22.5438505 L4.00852878,20.0389783 Z" id="Shape"></path>
                            <path d="M10.6716418,17.534106 L13.336887,17.534106 C14.0729944,17.534106 14.6695096,16.9734843 14.6695096,16.2816698 L14.6695096,13.7767976 C14.6695096,13.0849831 14.0729944,12.5243614 13.336887,12.5243614 L10.6716418,12.5243614 C9.93553437,12.5243614 9.33901919,13.0849831 9.33901919,13.7767976 L9.33901919,16.2816698 C9.33901919,16.9734843 9.93553437,17.534106 10.6716418,17.534106 Z M10.6716418,13.7767976 L13.336887,13.7767976 L13.336887,16.2816698 L10.6716418,16.2816698 L10.6716418,13.7767976 Z" id="Shape"></path>
                            <path d="M17.3347548,17.534106 L20,17.534106 C20.7361074,17.534106 21.3326226,16.9734843 21.3326226,16.2816698 L21.3326226,13.7767976 C21.3326226,13.0849831 20.7361074,12.5243614 20,12.5243614 L17.3347548,12.5243614 C16.5986474,12.5243614 16.0021322,13.0849831 16.0021322,13.7767976 L16.0021322,16.2816698 C16.0021322,16.9734843 16.5986474,17.534106 17.3347548,17.534106 Z M17.3347548,13.7767976 L20,13.7767976 L20,16.2816698 L17.3347548,16.2816698 L17.3347548,13.7767976 Z" id="Shape"></path>
                            <path d="M10.6716418,23.7962867 L13.336887,23.7962867 C14.0729944,23.7962867 14.6695096,23.235665 14.6695096,22.5438505 L14.6695096,20.0389783 C14.6695096,19.3471638 14.0729944,18.7865421 13.336887,18.7865421 L10.6716418,18.7865421 C9.93553437,18.7865421 9.33901919,19.3471638 9.33901919,20.0389783 L9.33901919,22.5438505 C9.33901919,23.235665 9.93553437,23.7962867 10.6716418,23.7962867 Z M10.6716418,20.0389783 L13.336887,20.0389783 L13.336887,22.5438505 L10.6716418,22.5438505 L10.6716418,20.0389783 Z" id="Shape"></path>
                            <path d="M4.00852878,30.0584674 L6.67377399,30.0584674 C7.40988141,30.0584674 8.00639659,29.4978457 8.00639659,28.8060312 L8.00639659,26.301159 C8.00639659,25.6093445 7.40988141,25.0487228 6.67377399,25.0487228 L4.00852878,25.0487228 C3.27242136,25.0487228 2.67590618,25.6093445 2.67590618,26.301159 L2.67590618,28.8060312 C2.67590618,29.4978457 3.27242136,30.0584674 4.00852878,30.0584674 Z M4.00852878,26.301159 L6.67377399,26.301159 L6.67377399,28.8060312 L4.00852878,28.8060312 L4.00852878,26.301159 Z" id="Shape"></path>
                            <path d="M10.6716418,30.0584674 L13.336887,30.0584674 C14.0729944,30.0584674 14.6695096,29.4978457 14.6695096,28.8060312 L14.6695096,26.301159 C14.6695096,25.6093445 14.0729944,25.0487228 13.336887,25.0487228 L10.6716418,25.0487228 C9.93553437,25.0487228 9.33901919,25.6093445 9.33901919,26.301159 L9.33901919,28.8060312 C9.33901919,29.4978457 9.93553437,30.0584674 10.6716418,30.0584674 Z M10.6716418,26.301159 L13.336887,26.301159 L13.336887,28.8060312 L10.6716418,28.8060312 L10.6716418,26.301159 Z" id="Shape"></path>
                            <polygon id="Path" points="11.3379531 33.8157758 12.6705757 33.8157758 12.6705757 35.0682119 11.3379531 35.0682119"></polygon>
                        </g>
                    </g>
                </g>
            </g>
        </g>
    </g>
</svg>