<?xml version="1.0" encoding="UTF-8"?>
<svg width="40px" height="39px" viewBox="0 0 40 39" version="1.1" xmlns="http://www.w3.org/2000/svg" xmlns:xlink="http://www.w3.org/1999/xlink">
    <!-- Generator: Sketch 63.1 (92452) - https://sketch.com -->
    <title>app</title>
    <desc>Created with Sketch.</desc>
    <g id="Page-1" stroke="none" stroke-width="1" fill="none" fill-rule="evenodd">
        <g id="quanlynhatro.com/download" transform="translate(-820.000000, -1284.000000)" fill="#F06134" fill-rule="nonzero">
            <g id="section-2" transform="translate(-122.000000, 1062.000000)">
                <g id="HowItWorksSection" transform="translate(282.000000, 153.000000)">
                    <g id="HowItWorksCard" transform="translate(400.000000, 37.593123)">
                        <g id="app" transform="translate(260.000000, 31.954155)">
                            <path d="M31.796875,0 L8.203125,0 C3.67992188,0 0,3.45849391 0,7.70952722 L0,29.883596 C0,34.1346293 3.67992188,37.5931232 8.203125,37.5931232 L31.796875,37.5931232 C36.3200781,37.5931232 40,34.1346293 40,29.883596 L40,7.70952722 C40,3.45849391 36.3200781,0 31.796875,0 Z M12.3163281,28.9668965 C11.955,29.5550967 11.2971094,29.8842568 10.6215625,29.8843302 C10.2903906,29.8843302 9.95507812,29.8052525 9.64828125,29.6388001 C8.715625,29.1327615 8.39492187,28.0079047 8.93335938,27.1313682 L9.3175,26.5060888 L13.8280469,26.5060888 L12.3163281,28.9668965 Z M8.6328125,25.0376074 C7.55585938,25.0376074 6.6796875,24.2141565 6.6796875,23.2020057 C6.6796875,22.1898549 7.55585938,21.366404 8.6328125,21.366404 L12.4748438,21.366404 L17.7446875,12.7879764 L16.3164844,10.4630766 C15.7780469,9.58654011 16.0986719,8.46168338 17.0313281,7.95557128 L17.0314063,7.95557128 C17.9640625,7.44953259 19.1609375,7.75101182 19.699375,8.62747493 L20,9.11684635 L20.300625,8.62754835 C20.8392969,7.7509384 22.0361719,7.44960602 22.9685938,7.9556447 C23.4203906,8.20080766 23.7435938,8.59663682 23.8785938,9.07022206 C24.0136719,9.54380731 23.9442969,10.0385387 23.6834375,10.4631501 L16.9853906,21.366404 L21.2103125,21.366404 L23.465625,25.0376074 L8.6328125,25.0376074 Z M31.3671875,25.0376074 L29.7803906,25.0376074 L31.0665625,27.1312948 C31.6050781,28.0077579 31.284375,29.1326146 30.3517969,29.6387267 C30.0507812,29.8020218 29.7167187,29.885505 29.3782813,29.885505 C29.2085937,29.885505 29.0379688,29.8645792 28.8696094,29.82214 C28.365625,29.6951898 27.9444531,29.3914345 27.6835938,28.9667496 L20.9020313,17.9275878 L23.1572656,14.2563843 L27.5251562,21.366404 L31.3671875,21.366404 C32.4441406,21.366404 33.3203125,22.1898549 33.3203125,23.2020057 C33.3203125,24.2141565 32.4441406,25.0376074 31.3671875,25.0376074 Z" id="Shape"></path>
                        </g>
                    </g>
                </g>
            </g>
        </g>
    </g>
</svg>