<?xml version="1.0" encoding="UTF-8"?>
<svg width="27px" height="39px" viewBox="0 0 27 39" version="1.1" xmlns="http://www.w3.org/2000/svg" xmlns:xlink="http://www.w3.org/1999/xlink">
    <!-- Generator: Sketch 63.1 (92452) - https://sketch.com -->
    <title>contract</title>
    <desc>Created with Sketch.</desc>
    <g id="Page-1" stroke="none" stroke-width="1" fill="none" fill-rule="evenodd">
        <g id="quanlynhatro.com/download" transform="translate(-411.000000, -1251.000000)" fill="#F06134" fill-rule="nonzero">
            <g id="section-2" transform="translate(-122.000000, 1062.000000)">
                <g id="HowItWorksSection" transform="translate(282.000000, 153.000000)">
                    <g id="HowItWorksCard">
                        <g id="contract" transform="translate(251.000000, 36.653295)">
                            <path d="M4.22191235,3.71482962 L12.4752988,3.71482962 C12.7393393,3.71482962 12.9533864,3.51366211 12.9533864,3.26550942 C12.9533864,3.01735674 12.7393393,2.81618923 12.4752988,2.81618923 L4.22191235,2.81618923 C3.95787183,2.81618923 3.7438247,3.01735673 3.7438247,3.26550942 C3.7438247,3.51366212 3.95787183,3.71482962 4.22191235,3.71482962 L4.22191235,3.71482962 Z" id="Path"></path>
                            <path d="M3.84996016,6.56876174 L12.4752988,6.56876174 C12.7393393,6.56876174 12.9533865,6.36759424 12.9533865,6.11944155 C12.9533865,5.87128885 12.7393393,5.67012135 12.4752988,5.67012135 L3.84996016,5.67012135 C3.58591964,5.67012135 3.37187251,5.87128885 3.37187251,6.11944155 C3.37187251,6.36759424 3.58591964,6.56876174 3.84996016,6.56876174 Z" id="Path"></path>
                            <path d="M3.84996016,9.42276875 L23.1060558,9.42276875 C23.3700963,9.42276875 23.5841434,9.22160125 23.5841434,8.97344856 C23.5841434,8.72529586 23.3700963,8.52412836 23.1060558,8.52412836 L3.84996016,8.52412836 C3.58591964,8.52412836 3.37187251,8.72529586 3.37187251,8.97344856 C3.37187251,9.22160125 3.58591964,9.42276875 3.84996016,9.42276875 Z" id="Path"></path>
                            <path d="M23.1060558,12.2767009 C23.3700963,12.2767009 23.5841434,12.0755334 23.5841434,11.8273807 C23.5841434,11.579228 23.3700963,11.3780605 23.1060558,11.3780605 L3.84996016,11.3780605 C3.58591964,11.3780605 3.37187251,11.579228 3.37187251,11.8273807 C3.37187251,12.0755334 3.58591964,12.2767009 3.84996016,12.2767009 L23.1060558,12.2767009 Z" id="Path"></path>
                            <path d="M22.5640637,29.5249051 C22.7605041,29.7815503 23.0763568,29.9336667 23.412749,29.9336367 C23.5566296,29.9335139 23.6989721,29.9058156 23.8310757,29.8522348 L25.6462151,29.1198429 C25.9068539,29.0153991 26.1110288,28.8157459 26.2117396,28.5668423 C26.3124505,28.3179387 26.3010201,28.0412304 26.1800797,27.8004142 L25.5487649,26.5462117 L25.4103586,1.72037215 C25.402815,0.764759573 24.5737026,-0.00481584717 23.5568924,-2.24796051e-05 L3.32414343,-2.24796051e-05 C2.30733327,-0.00481584717 1.47822081,0.764759573 1.47067729,1.72037215 L1.47067729,25.4643236 L0.134900398,27.8464695 C-0.131896419,28.3170046 0.0534120542,28.9016926 0.550677291,29.1583347 L2.27394422,30.062966 C2.43025818,30.1455995 2.60655131,30.1890774 2.78589641,30.189225 C2.88754981,30.1891168 2.98866044,30.1752966 3.08613546,30.1481871 C3.35717186,30.0740774 3.58454278,29.8996607 3.71609562,29.6649432 L3.90270916,29.3340189 L4.52422311,29.8167385 L3.43298805,31.2277537 C3.06554694,31.7026244 3.01276637,32.3311239 3.29639381,32.8542885 C3.58002125,33.377453 4.1520611,33.7067524 4.77681275,33.7065035 C4.8738758,33.7064868 4.97075611,33.6985944 5.0663745,33.6829142 C5.06685259,33.6858348 5.06693227,33.6888302 5.06741036,33.6917508 C5.1372187,34.1029335 5.38010124,34.4704344 5.74135458,34.711483 C6.02315643,34.9007468 6.36096893,35.0022804 6.70733068,35.0018187 C6.80460745,35.0017801 6.90169974,34.9938628 6.99752988,34.9781545 C6.99808765,34.9812249 6.99816733,34.9843701 6.99864542,34.9875154 C7.12909081,35.7433505 7.82382853,36.2985395 8.63856574,36.2980326 C8.73560252,36.2980191 8.83245666,36.2901266 8.92804781,36.2744433 C8.9285259,36.2774388 8.92860558,36.2803594 8.92908367,36.2832799 C9.05973475,37.0389967 9.75459741,37.5939191 10.569243,37.5931281 C11.1040656,37.5943775 11.6071559,37.3547523 11.9223108,36.9486483 L12.2681275,36.5014998 L12.9152988,36.983171 C13.6623286,37.5745904 14.775495,37.4957379 15.419761,36.8057644 C15.6491964,36.5598174 15.7955431,36.2552517 15.8401594,35.9308631 C16.5113102,36.1195493 17.2378921,35.9228237 17.6993625,35.4274747 C17.9286828,35.1815412 18.0749432,34.8770341 18.1195219,34.5527232 C18.7906484,34.7414165 19.5172117,34.5446875 19.9786454,34.0493348 C20.1933224,33.8183634 20.3351621,33.535674 20.3882072,33.2330698 C21.093019,33.4894729 21.8932079,33.3040667 22.3904382,32.7691467 L22.4119522,32.7460067 C22.7152616,32.419358 22.8668342,31.9922 22.8328521,31.5598369 C22.7988701,31.1274739 22.5821611,30.7258827 22.2310757,30.4446635 L21.8372112,30.1279677 C22.1059564,29.957008 22.3502372,29.7543305 22.5640637,29.5249051 L22.5640637,29.5249051 Z M25.3183267,28.2464393 C25.3096383,28.2680903 25.2917326,28.2853528 25.2689243,28.2940673 L23.4537849,29.0265341 C23.4073366,29.0457334 23.3530199,29.0274901 23.3300398,28.984972 L23.1007968,28.5318326 C23.0851776,28.47046 23.0560229,28.4128529 23.0152191,28.3627384 L18.8811155,20.1979913 C18.8708339,20.1782708 18.8699647,20.1553705 18.8787251,20.1350116 C18.8879764,20.1128532 18.9068914,20.0954854 18.9306773,20.0873088 L20.7960956,19.4026946 C20.8421059,19.3851539 20.8947299,19.4038472 20.9168924,19.4456046 L25.3152988,28.1848825 C25.3253168,28.2041263 25.3264128,28.2264089 25.3183267,28.2464393 L25.3183267,28.2464393 Z M2.42685259,1.72037215 C2.43380376,1.26083469 2.83516837,0.893268204 3.32414343,0.89858225 L23.5568924,0.89858225 C24.0467441,0.893523532 24.4483638,1.26239624 24.4541833,1.72276852 L24.5816733,24.6252181 L21.7810359,19.0611363 C21.5430643,18.5936551 20.96191,18.377584 20.4480478,18.5655361 L18.5826295,19.2500755 C18.3123796,19.3485071 18.0979209,19.5482202 17.9907118,19.8012947 C17.8835027,20.0543693 17.8932192,20.3379641 18.0175299,20.5840322 L18.2122709,20.9687252 L18.1533865,20.9920899 C17.4412749,21.1296567 16.9443825,21.1097369 16.2079681,20.9172032 L14.3445418,20.4290917 C13.7923062,20.2841189 13.2071648,20.292938 12.6601594,20.4544782 L10.8615936,20.9844514 C10.5024968,21.0900524 10.1682233,21.25927 9.87681275,21.4829722 C9.39946321,21.349736 8.89908312,21.3050973 8.40358566,21.351546 L8.53426295,21.1198466 C8.79254446,20.6600108 8.62385982,20.090647 8.14988048,19.8224345 L6.43673307,18.8515284 C6.18910072,18.7110711 5.89087024,18.6726027 5.61212986,18.7451638 C5.33338948,18.8177249 5.09871818,18.9949172 4.96326693,19.2350981 L2.42645418,23.7590036 L2.42685259,1.72037215 Z M2.87123506,29.2441548 C2.85957173,29.2647797 2.83940552,29.2799961 2.81545817,29.2862412 C2.79035571,29.2935677 2.76315108,29.2908593 2.74023904,29.2787525 L1.01689243,28.3741212 C0.975323483,28.3533422 0.959239768,28.3050246 0.980796813,28.2656852 L5.80948207,19.6544636 C5.82132585,19.633314 5.84208957,19.6178221 5.86669323,19.6117782 C5.87551856,19.6094848 5.88462849,19.6082585 5.89378486,19.6082585 C5.91125473,19.6082585 5.92837651,19.612852 5.94326693,19.6214386 L7.65593625,20.5923447 C7.69595895,20.6137477 7.71072629,20.6611143 7.68932271,20.6994326 L2.87123506,29.2441548 Z M4.36709163,32.6850489 C4.21402934,32.5823167 4.11096498,32.4263849 4.08080097,32.2519036 C4.05063696,32.0774224 4.09587199,31.8988453 4.20645418,31.7558547 L5.99713147,29.4406575 C6.22743181,29.1445154 6.66816587,29.0772202 6.9863745,29.2896111 C7.13938277,29.3922443 7.24241792,29.5480777 7.27256944,29.7224607 C7.30272095,29.8968437 7.25748939,30.0753207 7.14693227,30.2182061 L6.66135458,30.8458316 L5.36326693,32.5241174 L5.35569721,32.5338527 C5.12563193,32.829895 4.68516076,32.8972602 4.36709163,32.6850489 Z M6.29705179,33.9805888 C6.14425661,33.8780856 6.04134532,33.7224783 6.01118203,33.5483387 C5.98101874,33.3741991 6.02610158,33.1959494 6.13641434,33.0531919 L7.43521912,31.3744568 C7.6654447,31.0789772 8.10537233,31.0118239 8.42326693,31.223635 C8.57632923,31.3263672 8.67939358,31.482299 8.70955759,31.6567803 C8.7397216,31.8312615 8.69448657,32.0098386 8.58390438,32.1528291 L8.17482072,32.6817539 L7.29482072,33.8188335 L7.287251,33.8285688 C7.05679543,34.1250241 6.61572766,34.1925721 6.29705179,33.9802144 L6.29705179,33.9805888 Z M8.22884462,35.2770274 C8.07577714,35.1742814 7.97271112,35.0183365 7.94254744,34.8438431 C7.91238375,34.6693496 7.95762083,34.4907608 8.06820717,34.3477583 L8.96143426,33.1929305 C9.19178318,32.8968628 9.63244764,32.8295782 9.95067729,33.041884 C10.103673,33.1445287 10.2066922,33.3003675 10.2368287,33.4747498 C10.2669651,33.6491322 10.2217206,33.8276029 10.1111554,33.9704791 L9.51824701,34.7370943 L9.22501992,35.1161707 L9.22501992,35.1165452 L9.21752988,35.1262056 C8.98711689,35.4218956 8.54676462,35.4889037 8.22884462,35.2766529 L8.22884462,35.2770274 Z M11.1488446,36.4209217 C10.9183003,36.717208 10.4773067,36.7845554 10.1588048,36.5721179 C10.006063,36.4695764 9.90319417,36.3139739 9.87303406,36.1398527 C9.84287396,35.9657315 9.88791817,35.787499 9.99816733,35.6447211 L10.4884462,35.01088 C10.7188437,34.7148867 11.1594386,34.6476127 11.4776892,34.8598336 C11.630685,34.9624782 11.7337042,35.118317 11.7638406,35.2926994 C11.793977,35.4670817 11.7487326,35.6455524 11.6381673,35.7884286 L11.1488446,36.4209217 Z M21.6906773,32.1558246 L21.669243,32.1789646 C21.3680419,32.5038252 20.8450852,32.5411497 20.4951394,32.2627628 L19.798008,31.7015619 C19.7968924,31.7006632 19.7960159,31.6996897 19.7949004,31.6987911 L17.9471713,30.2120654 C17.8180356,30.1032555 17.6363261,30.0687071 17.4723429,30.1217865 C17.3083597,30.1748658 17.1878238,30.3072472 17.1573681,30.4677149 C17.1269125,30.6281826 17.1913141,30.791567 17.3256574,30.8946577 L17.3352191,30.9021464 L17.3511554,30.9148022 C17.5043825,31.0381406 18.3520319,31.7201338 19.1764143,32.3837048 C19.3400231,32.5154975 19.4407488,32.7033153 19.4561502,32.9053133 C19.4715516,33.1073112 19.4003491,33.3067077 19.2584064,33.4590778 C18.9571493,33.7813014 18.4364483,33.8165517 18.0891633,33.5382331 L16.2411155,32.0515074 C16.1005455,31.9384543 15.9031888,31.9117747 15.7344137,31.9830093 C15.5656386,32.0542439 15.4557461,32.2106036 15.4522709,32.3844537 L15.4522709,32.3857268 C15.4499027,32.5195073 15.5112755,32.6472819 15.6196016,32.7340997 L16.894502,33.7595982 C17.059217,33.8911167 17.1609362,34.0792199 17.1768864,34.2817948 C17.1928366,34.4843698 17.1216855,34.6844956 16.9793625,34.8373675 C16.67807,35.1596484 16.1572832,35.1948998 15.8099602,34.9165228 L15.2370518,34.4555952 L15.2365737,34.4551458 L14.5353785,33.891249 C14.3342378,33.7359926 14.0379036,33.7604863 13.8686849,33.9463551 C13.6994662,34.1322239 13.7195478,34.4111643 13.9138645,34.5739161 L14.5234263,35.0642742 L14.6148207,35.137813 C14.7795762,35.269336 14.8813281,35.4574618 14.8972935,35.6600678 C14.9132589,35.8626738 14.842104,36.0628343 14.699761,36.2157321 C14.3984965,36.5380039 13.877735,36.5732559 13.5304382,36.2948874 C13.5258167,36.291143 13.5210359,36.2873987 13.5163347,36.2839539 L12.701992,35.6778959 C12.7878571,35.2403996 12.6703114,34.7892868 12.3790666,34.4385838 C12.0878217,34.0878809 11.6507493,33.8711493 11.1783267,33.8431717 C11.2584733,33.4076948 11.1377828,32.9607325 10.846386,32.613871 C10.5549892,32.2670094 10.1203855,32.0529822 9.6510757,32.0252222 C9.72924738,31.6000444 9.61613141,31.1634464 9.33872745,30.8196399 C9.06132349,30.4758333 8.64452176,30.2556665 8.18780876,30.211691 C8.38127875,29.4845121 7.99901374,28.7305057 7.27622931,28.4136277 C6.55344488,28.0967497 5.69308286,28.3059723 5.22454183,28.9125565 L5.08820717,29.0887649 L4.36063745,28.5235201 L7.83896414,22.3546534 C8.27622326,22.2402509 8.73292089,22.20653 9.1838247,22.2553536 C9.12790824,22.3474295 9.07765318,22.4424418 9.03330677,22.5399231 L8.48350598,23.7872359 C8.34262948,24.1070021 8.21258964,24.4358296 8.09697211,24.7644325 L7.5485259,26.3237982 C7.47122342,26.5433179 7.58381487,26.7821343 7.80876494,26.8757881 L7.92693227,26.9248389 C8.8179343,27.3041462 9.85331402,27.2297349 10.6725896,26.7275124 C11.3768234,26.2955382 11.8345105,25.5866231 11.9169721,24.8000785 C11.9196813,24.7742177 11.9220983,24.7481571 11.9242231,24.7218968 C11.9504382,24.6059722 12.1177689,23.955057 12.5776096,23.9042838 L13.3455777,24.1060286 C13.6305638,24.1808752 13.8908973,24.3219846 14.1025498,24.5163328 L19.0085259,29.0342474 C19.016494,29.0412868 19.0244622,29.0481015 19.0324303,29.0546915 L21.6095618,31.1274805 C21.7667313,31.2528671 21.8638264,31.4322581 21.8791032,31.6254798 C21.8943799,31.8187015 21.826562,32.0096092 21.6908367,32.1554502 L21.6906773,32.1558246 Z M19.6653386,28.3820592 L14.7709163,23.8748534 C14.4443024,23.5747198 14.0425151,23.3567346 13.6026295,23.2410123 L12.7596016,23.0194975 C12.7171215,23.0080709 12.6731079,23.0024715 12.6289243,23.0028726 C12.0585657,23.0051192 11.5721116,23.3037674 11.2591235,23.8437754 C11.1259509,24.0766878 11.0311407,24.3272379 10.9779283,24.5868761 C10.9752704,24.6015804 10.9734088,24.6164021 10.9723506,24.6312839 C10.9702789,24.6588422 10.9678619,24.6863007 10.9650996,24.7136593 C10.9098486,25.2298252 10.6085434,25.6946047 10.1458167,25.9774472 C9.68695687,26.2538992 9.1246584,26.3339217 8.59928287,26.1975392 L9.00398406,25.0464558 C9.11227092,24.7385217 9.23410359,24.4305876 9.36613546,24.1310408 L9.91394422,22.8879216 C10.1421305,22.3862315 10.5930241,22.0038872 11.1474104,21.841979 L12.9459761,21.3120058 C13.3167743,21.2025622 13.7133991,21.1966049 14.0877291,21.2948568 L15.9513147,21.7827436 C16.8601594,22.0206587 17.4998406,22.0415521 18.3959363,21.8626477 C18.4256108,21.8567275 18.4546142,21.8481513 18.4825498,21.8370365 L18.6234263,21.7810961 L22.0895618,28.6257405 C21.8345171,28.996259 21.4855262,29.3014253 21.0739442,29.5138218 L19.6653386,28.3820592 Z" id="Shape"></path>
                            <path d="M5.49912351,17.7548127 C5.78086581,17.8752911 6.08737855,17.9359884 6.39689243,17.9325938 C6.84247592,17.934704 7.27990845,17.8203364 7.66031873,17.6022685 C7.93262778,17.4312155 8.16758507,17.2127601 8.35250996,16.9586922 C8.38390438,16.9193767 8.42175299,16.8719734 8.45505976,16.8338561 C8.58456927,16.9420161 8.72739177,17.0352143 8.88047809,17.1114611 C9.27518476,17.3068406 9.71338472,17.4119091 10.1594422,17.4181221 C10.6958072,17.4267471 11.2242977,17.2960637 11.6866932,17.0404685 C11.8358765,16.9604014 11.9278806,16.8112642 11.9276967,16.6498065 C11.9275122,16.4883487 11.835168,16.3393973 11.6858023,16.2596311 C11.5364367,16.1798648 11.3530173,16.1815492 11.2053386,16.2640432 C10.8953232,16.4364166 10.5406421,16.5248959 10.1804781,16.5197064 C9.88511319,16.5167498 9.59467172,16.4482391 9.33282869,16.3197589 C9.23054592,16.2687353 9.13608829,16.2049259 9.05203187,16.1300709 C8.90252897,15.9832117 8.69865537,15.8960156 8.48262948,15.8865393 C8.02223108,15.8742579 7.77163347,16.1890816 7.58780876,16.4192084 C7.47136051,16.5845998 7.32298654,16.7280336 7.15035857,16.8420936 C6.79713147,17.051402 6.25171315,17.0955851 5.90876494,16.9428162 C5.79337202,16.8891587 5.69114524,16.8134867 5.60860558,16.7206274 C5.98286228,16.6674757 6.33665749,16.5259703 6.63689243,16.3093497 C6.92679597,16.0929544 7.15982163,15.8167587 7.31792829,15.5021459 C7.52270916,15.0849521 7.52015936,14.687154 7.31075697,14.3822153 C7.13418327,14.1251293 6.81553785,13.9490707 6.41346614,13.8864654 C5.87776892,13.8028918 5.28812749,13.9300494 4.91123506,14.2101257 C4.49585657,14.5188087 4.26581673,15.0527508 4.27091633,15.6730374 L4.26199203,15.6694428 C4.10500868,15.6061819 3.92404002,15.6264367 3.7872552,15.7225774 C3.65047038,15.818718 3.57865028,15.9761385 3.59884882,16.1355401 C3.61904737,16.2949416 3.72819592,16.4321073 3.88517928,16.4953682 C4.07785757,16.5732778 4.2776345,16.6346601 4.48207171,16.6787657 C4.69434263,17.1681503 5.05306773,17.5560634 5.49912351,17.7548127 L5.49912351,17.7548127 Z M5.50430279,14.9150342 C5.67399086,14.8080708 5.8750586,14.7537317 6.07928287,14.7596443 C6.13882683,14.7595236 6.19828147,14.7639817 6.25705179,14.7729741 C6.42525896,14.7991845 6.49609562,14.8528782 6.50741036,14.869578 C6.55792829,14.9432665 6.40310757,15.3397916 6.04701195,15.6020448 C5.81311708,15.7649213 5.53021933,15.8537649 5.23912351,15.8557609 C5.1910757,15.4463553 5.29729084,15.0688515 5.50430279,14.9150342 Z" id="Shape"></path>
                            <path d="M23.1060558,15.7574347 L15.9301195,15.7574347 C15.666079,15.7574347 15.4520319,15.9586022 15.4520319,16.2067549 C15.4520319,16.4549076 15.666079,16.6560751 15.9301195,16.6560751 L23.1060558,16.6560751 C23.3700963,16.6560751 23.5841434,16.4549076 23.5841434,16.2067549 C23.5841434,15.9586022 23.3700963,15.7574347 23.1060558,15.7574347 Z" id="Path"></path>
                        </g>
                    </g>
                </g>
            </g>
        </g>
    </g>
</svg>