<?xml version="1.0" encoding="UTF-8"?>
<svg width="420px" height="420px" viewBox="0 0 420 420" version="1.1" xmlns="http://www.w3.org/2000/svg" xmlns:xlink="http://www.w3.org/1999/xlink">
    <!-- Generator: Sketch 63.1 (92452) - https://sketch.com -->
    <title>icons8-zalo</title>
    <desc>Created with Sketch.</desc>
    <g id="icon" stroke="none" stroke-width="1" fill="none" fill-rule="evenodd">
        <g id="icons8-zalo" transform="translate(10.000000, 6.000000)">
            <path d="M360,404 L40,404 C17.91,404 0,386.09 0,364 L0,44 C0,21.91 17.91,4 40,4 L360,4 C382.09,4 400,21.91 400,44 L400,364 C400,386.09 382.09,404 360,404 Z" id="Path" stroke="#FFFFFF" stroke-width="20"></path>
            <path d="M335,160 C326.7,160 320,166.7 320,175 C320,183.3 326.7,190 335,190 C343.3,190 350,183.3 350,175 C350,166.7 343.3,160 335,160 Z M335,160 C326.7,160 320,166.7 320,175 C320,183.3 326.7,190 335,190 C343.3,190 350,183.3 350,175 C350,166.7 343.3,160 335,160 Z M225,160 C216.7,160 210,166.7 210,175 C210,183.3 216.7,190 225,190 C233.3,190 240,183.3 240,175 C240,166.7 233.3,160 225,160 Z M335,160 C326.7,160 320,166.7 320,175 C320,183.3 326.7,190 335,190 C343.3,190 350,183.3 350,175 C350,166.7 343.3,160 335,160 Z M335,160 C326.7,160 320,166.7 320,175 C320,183.3 326.7,190 335,190 C343.3,190 350,183.3 350,175 C350,166.7 343.3,160 335,160 Z M225,160 C216.7,160 210,166.7 210,175 C210,183.3 216.7,190 225,190 C233.3,190 240,183.3 240,175 C240,166.7 233.3,160 225,160 Z M360,0 L116,0 C73.9,38.3 50,90.6 50,145 C50,196.6 71.1,246 109.1,283.4 C110.3,285.5 111.3,295.8 106.7,307.7 C103.8,315.2 98,325 86.8,328.7 C82.5,330.1 79.7,334.3 80,338.8 C80.3,343.3 83.6,347.1 88,348 C116.7,353.7 135.3,345.1 150.3,338.3 C163.8,332.1 172.7,327.9 186.4,333.5 C214.4,344.4 244.2,350 275,350 C319.9,350 363,338.1 400,315.5 L400,40 C400,17.9 382.1,0 360,0 Z M180,210 L130,210 C126.4,210 123,208 121.2,204.8 C119.5,201.7 119.6,197.8 121.5,194.7 L162,130 L130,130 C124.5,130 120,125.5 120,120 C120,114.5 124.5,110 130,110 L180,110 C183.6,110 187,112 188.8,115.2 C190.5,118.3 190.4,122.2 188.5,125.3 L148,190 L180,190 C185.5,190 190,194.5 190,200 C190,205.5 185.5,210 180,210 Z M260,200 C260,205.5 255.5,210 250,210 C246.5,210 243.7,208.1 241.9,205.5 C236.8,208.3 231.1,210 225,210 C205.7,210 190,194.3 190,175 C190,155.7 205.7,140 225,140 C231.1,140 236.8,141.7 241.9,144.5 C243.7,141.9 246.5,140 250,140 C255.5,140 260,144.5 260,150 L260,200 Z M290,200 C290,205.5 285.5,210 280,210 C274.5,210 270,205.5 270,200 L270,110 C270,104.5 274.5,100 280,100 C285.5,100 290,104.5 290,110 L290,200 Z M335,210 C315.7,210 300,194.3 300,175 C300,155.7 315.7,140 335,140 C354.3,140 370,155.7 370,175 C370,194.3 354.3,210 335,210 Z M335,160 C326.7,160 320,166.7 320,175 C320,183.3 326.7,190 335,190 C343.3,190 350,183.3 350,175 C350,166.7 343.3,160 335,160 Z M225,160 C216.7,160 210,166.7 210,175 C210,183.3 216.7,190 225,190 C233.3,190 240,183.3 240,175 C240,166.7 233.3,160 225,160 Z M225,160 C216.7,160 210,166.7 210,175 C210,183.3 216.7,190 225,190 C233.3,190 240,183.3 240,175 C240,166.7 233.3,160 225,160 Z M335,160 C326.7,160 320,166.7 320,175 C320,183.3 326.7,190 335,190 C343.3,190 350,183.3 350,175 C350,166.7 343.3,160 335,160 Z M335,160 C326.7,160 320,166.7 320,175 C320,183.3 326.7,190 335,190 C343.3,190 350,183.3 350,175 C350,166.7 343.3,160 335,160 Z M225,160 C216.7,160 210,166.7 210,175 C210,183.3 216.7,190 225,190 C233.3,190 240,183.3 240,175 C240,166.7 233.3,160 225,160 Z" id="Shape" fill="#FFFFFF" fill-rule="nonzero"></path>
        </g>
    </g>
</svg>