<?xml version="1.0" encoding="UTF-8"?>
<svg width="272px" height="127px" viewBox="0 0 272 127" version="1.1" xmlns="http://www.w3.org/2000/svg" xmlns:xlink="http://www.w3.org/1999/xlink">
    <!-- Generator: Sketch 63.1 (92452) - https://sketch.com -->
    <title>logo-timkhach-white</title>
    <desc>Created with Sketch.</desc>
    <g id="icon" stroke="none" stroke-width="1" fill="none" fill-rule="evenodd">
        <g id="logo-timtro-1024" transform="translate(-763.000000, -928.000000)" fill="#FFFFFF">
            <g id="logo-timkhach-white" transform="translate(763.000000, 928.000000)">
                <g>
                    <path d="M72,59.9 L72,46 L82.4,46 L82.4,33.8 L98,19.5 L98,46.1 L112.7,46.1 L112.7,60 L98,60 L98,98.6 C98,104.8 98.3,108.6 99,110.1 C99.7,111.6 101.4,112.3 104.1,112.3 C107,112.3 109.9,111.8 112.6,110.7 L112.6,124.9 C108.6,126.3 104.6,127 100.6,127 C95.8,127 92,125.9 89,123.8 C86,121.7 84.2,119 83.4,115.9 C82.6,112.7 82.2,107.2 82.2,99.5 L82.2,60 L72,60 L72,59.9 Z" id="Path" fill-rule="nonzero"></path>
                    <path d="M137.5,111.7 L137.5,59.9 L121.5,59.9 L121.5,46 L150,46 L150,63.9 C151.8,59.2 154.2,55.4 157.3,52.3 C160.4,49.2 163.7,47.2 167.2,46.2 C170.7,45.2 175.4,44.7 181.5,44.7 L185.6,44.7 L185.6,60.5 L182.5,60.5 C174.6,60.5 168.6,61.3 164.7,62.9 C160.8,64.5 157.9,67.4 156,71.6 C154.1,75.8 153.2,83.3 153.2,94.2 L153.2,111.7 L170.5,111.7 L170.5,125.6 L121.5,125.6 L121.5,111.7 L137.5,111.7 L137.5,111.7 Z" id="Path" fill-rule="nonzero"></path>
                    <path d="M271.9,85.8 L271.9,85.8 C271.9,73.3 267.8,63.2 259.6,55.4 C251.4,47.6 241.5,43.8 230.1,43.8 C218.4,43.8 208.5,47.7 200.4,55.6 C192.3,63.5 188.2,73.5 188.2,85.8 L188.2,85.8 L188.2,112 L188.2,112 L188.2,125.9 L271.6,125.9 L271.6,125.9 L271.9,125.9 L271.9,85.8 Z M204.7,112 L204.7,85.8 L204.8,85.8 C204.8,85.8 204.8,85.8 204.8,85.8 C204.8,78.2 207.2,71.9 212,66.7 C216.8,61.5 222.8,59 230.2,59 C237.2,59 243.2,61.5 248.1,66.6 C253,71.6 255.5,78.1 255.5,85.9 C255.5,85.9 255.5,85.9 255.5,85.9 L255.6,85.9 L255.6,112.1 L219.9,112.1 L204.7,112.1 L204.7,112 Z" id="Shape" fill-rule="nonzero"></path>
                    <path d="M241.5,75.6 L235.3,75.6 C233.4,75.6 231.8,77.2 231.8,79.1 L231.8,85.3 C231.8,87.2 233.4,88.8 235.3,88.8 L241.5,88.8 C243.4,88.8 245,87.2 245,85.3 L245,79.1 C245,77.2 243.4,75.6 241.5,75.6 Z" id="Path" fill-rule="nonzero"></path>
                    <path d="M224.8,75.6 L218.6,75.6 C216.7,75.6 215.1,77.2 215.1,79.1 L215.1,85.3 C215.1,87.2 216.7,88.8 218.6,88.8 L224.8,88.8 C226.7,88.8 228.3,87.2 228.3,85.3 L228.3,79.1 C228.3,77.2 226.7,75.6 224.8,75.6 Z" id="Path" fill-rule="nonzero"></path>
                    <path d="M241.5,91.8 L235.3,91.8 C233.4,91.8 231.8,93.4 231.8,95.3 L231.8,101.5 C231.8,103.4 233.4,105 235.3,105 L241.5,105 C243.4,105 245,103.4 245,101.5 L245,95.3 C245,93.3 243.4,91.8 241.5,91.8 Z" id="Path" fill-rule="nonzero"></path>
                    <path d="M224.8,91.8 L218.6,91.8 C216.7,91.8 215.1,93.4 215.1,95.3 L215.1,101.5 C215.1,103.4 216.7,105 218.6,105 L224.8,105 C226.7,105 228.3,103.4 228.3,101.5 L228.3,95.3 C228.3,93.3 226.7,91.8 224.8,91.8 Z" id="Path" fill-rule="nonzero"></path>
                    <path d="M33.7,0.8 C52.2,0.8 67.2,15.8 67.2,34.3 C67.2,52.8 52.2,67.8 33.7,67.8 C15.2,67.8 0.199506158,52.8 0.199506158,34.3 C0.1,15.8 15.2,0.8 33.7,0.8 L33.7,0.8 Z M33.7,1.8 C51.6,1.8 66.2,16.3 66.2,34.3 C66.2,52.2 51.7,66.8 33.7,66.8 C15.8,66.8 1.2,52.3 1.2,34.3 C1.2,16.4 15.8,1.8 33.7,1.8 L33.7,1.8 Z" id="Shape"></path>
                    <path d="M43,92.7 L43,121.6 C43,124.3 41.1,126.4 38.7,126.4 L28.8,126.4 C26.4,126.4 24.5,124.2 24.5,121.6 L24.5,92.7 C24.5,90.1 26.3,88 28.6,87.9 L28.6,69.2 C29.3,69.5 31.3,69.7 33.7,69.7 C36.1,69.7 38.2,69.5 38.8,69.2 L38.8,87.9 C41.1,88 43,90.1 43,92.7 Z" id="Path"></path>
                    <path d="M31.5,124.5 L30.5,124.5 C28.5,124.5 26.9,122.6 26.8,120.4 L26.8,95.9 C26.8,93.7 28.4,91.9 30.3,91.8 L30.3,77.5 C30.3,77 30.7,76.5 31.3,76.5 L31.3,76.5 L31.3,91.8 C29.4,91.9 27.8,93.7 27.8,95.9 L27.8,120.4 C27.8,122.6 29.5,124.5 31.5,124.5 Z" id="Path"></path>
                    <g id="Group" transform="translate(3.000000, 5.000000)">
                        <path d="M55.6,32 C55.6,32.1 55.6,32.2 55.5,32.2 C55.4,32.6 55.3,33 55.1,33.4 L55,33.7 C55,33.7 55,33.7 55,33.7 C55,33.9 55,34.1 55,34.3 C55,34.6 55.1,35 55.1,35.4 C55.1,35.7 55.2,36 55.2,36.3 C55.4,38.1 55.2,39.9 54.6,41.5 C54.3,42.3 53.9,43 53.6,43.5 C53.3,44.1 53,44.5 52.8,45 C52.8,45.1 52.8,45.1 52.7,45.2 C52.7,45.4 52.6,45.5 52.6,45.7 L52.3,47 L51,47.4 C50.7,47.5 50.5,47.6 50.2,47.6 C49.7,47.7 49.2,47.8 48.7,47.8 C47.4,47.8 46.2,47.4 45.1,46.8 C44.4,46.3 43.7,45.7 43,44.9 L42.7,44.5 C42.5,44.2 42.3,44 42.1,43.8 C41.9,44.1 41.8,44.4 41.6,44.8 C41.2,45.6 40.8,46.3 40.5,47 C40,48.1 39.8,49.1 39.7,50.1 C39.6,51.2 39.7,52.4 39.8,53.8 C39.9,54.4 40,55.1 40.1,55.8 C40.1,55.9 40.1,55.9 40.1,56 L40.1,56.1 C40.1,56.2 40.2,56.4 40.2,56.5 L40.5,57.9 C50.5,54.3 58.1,45.6 60.1,34.9 L55.6,32 Z M44,26.6 C44,26.5 44,26.5 44,26.4 C44,26 44.1,25.7 44.2,25.4 L39.5,22.7 C39.4,22.8 39.4,22.9 39.3,23 C39.1,23.3 38.8,23.6 38.5,23.9 C38.5,23.9 38.5,24 38.4,24 C38.3,24.1 38.2,24.3 38.2,24.4 C38.1,24.7 38,25 37.9,25.2 L37.9,25.3 C37.9,25.5 37.9,25.6 37.9,25.8 C38,25.9 38.1,25.9 38.2,26 L38.3,26.1 C38.4,26.2 38.5,26.2 38.6,26.3 C38.7,26.4 38.9,26.5 39,26.6 C39.5,26.9 40,27.2 40.6,27.5 C41.2,27.8 41.9,28.1 42.8,28.4 C43.1,28.5 43.6,28.7 44,28.9 C44,28.6 44.1,28.4 44.2,28.2 C44,27.7 43.9,27.2 44,26.6 Z M23.5,26.1 C23.3,25.8 23.1,25.4 23,25.1 C22.8,24.8 22.7,24.4 22.6,24.1 L22.4,23.5 C22.3,23.2 22.2,23 22.1,22.7 L1.1,34.9 C2.9,44.9 9.7,53.2 18.8,57.2 L18.8,57.2 L17.7,55.5 C17.7,55.5 17.7,55.4 17.6,55.4 L17.5,55.2 C17.3,54.9 17.1,54.7 16.9,54.4 C16.7,54.1 16.5,53.9 16.2,53.6 C15.9,53.3 15.6,52.9 15.3,52.6 C14.7,51.9 14.1,51.1 13.5,50.1 L13.4,50 L13.3,49.8 C12.4,48.4 11.8,47.1 11.4,45.7 C11.2,45.2 11.1,44.6 10.9,44 C10.8,43.7 10.8,43.5 10.7,43.2 L10.5,42.2 L11.4,41 C11.9,40.3 12.4,39.6 12.9,38.8 C13.1,38.5 13.3,38.2 13.5,37.9 C14.1,37.1 14.7,36.2 15.3,35.4 C15.3,35.2 15.4,34.9 15.4,34.7 C15.6,33.7 15.9,32.8 16.4,31.9 C16.9,31 17.6,30.2 18.3,29.6 C18.7,29.2 19.1,28.9 19.6,28.7 C19.9,28.5 20.1,28.4 20.4,28.3 C20.6,28.2 20.9,28.1 21.1,28.1 L21.2,28.1 C21.7,28 22.1,27.8 22.6,27.7 L23.4,27.4 C23.5,27.4 23.6,27.3 23.7,27.3 L23.8,27.3 C24,27.2 24.1,27.2 24.3,27.1 C24.3,27.1 24.3,27.1 24.4,27.1 C24,26.7 23.7,26.4 23.5,26.1 Z" id="Shape"></path>
                        <path d="M22.2,4.5 C22.2,4.4 22.1,4.3 22.1,4.1 C22,3.9 22,3.9 22,3.8 C22,3.8 21.9,3.7 21.9,3.7 C21.8,3.6 21.7,3.5 21.6,3.4 L20.4,2.2 L21.2,0.7 C21.3,0.6 21.3,0.5 21.4,0.4 C9.3,4.3 0.5,15.8 0.5,29.2 C0.5,30 0.5,30.8 0.6,31.5 L20.9,19.8 C20.8,19.7 20.8,19.7 20.7,19.6 C20.2,19 19.9,18.2 19.6,17.2 C19.3,16.1 19.3,14.9 19.4,13.7 C19.5,13.3 19.5,12.9 19.7,12.5 C20,11.6 20.4,11 20.9,10.5 C21.1,10.3 21.3,10.1 21.6,10 C21.6,9.7 21.7,9.5 21.7,9.2 C21.6,8.2 21.6,7.2 21.9,6.1 C21.9,5.6 22,5 22.2,4.5 Z M15.7,19.8 L8.7,23.9 L8.7,16.8 L15.7,16.8 L15.7,19.8 Z M39.9,0.5 C41.2,1.2 42.3,2 43.2,2.8 C43.4,3 43.6,3.1 43.8,3.3 L44.5,3.9 L44.5,4.8 C44.5,5.2 44.5,5.5 44.5,5.8 L44.5,6.2 C44.5,7.3 44.3,8.4 44.1,9.5 C43.9,10.5 43.7,11.3 43.4,12.2 C43.5,12.3 43.5,12.4 43.6,12.5 C44.6,13.9 44.5,15.6 44.5,16.3 C44.3,18 43.7,19.4 42.6,20.5 C42.5,20.7 42.3,20.8 42.1,20.9 L45.4,22.8 C45.6,22.6 45.9,22.3 46.2,22.1 C46.4,22 46.7,21.9 46.8,21.8 L46.9,21.8 C47.4,21.7 47.7,21.7 48,21.7 C48.7,21.7 49.2,21.8 49.6,21.9 C49.8,21.9 50.1,22 50.5,22.2 C51.2,22.6 51.5,23.1 51.7,23.4 C51.9,23.9 52,24.4 51.9,24.9 L51.9,25 C51.9,25.1 51.9,25.2 51.8,25.4 L51.8,25.5 C51.8,25.6 51.7,25.8 51.7,25.9 C51.8,25.9 52,25.8 52.1,25.8 C53.4,25.5 54.8,26.2 55.3,27.4 L55.4,27.6 L55.5,27.9 C55.6,28.1 55.6,28.4 55.7,28.7 L60.8,31.7 C60.9,30.9 60.9,30.2 60.9,29.4 C61,15.8 52.2,4.4 39.9,0.5 Z" id="Shape"></path>
                    </g>
                    <path d="M56.4,33.6 C56.4,33.5 56.4,33.5 56.3,33.4 C56.3,33.4 56.3,33.3 56.3,33.3 C56.2,33.1 55.9,32.9 55.7,33 C55.1,33.1 54.5,33.3 53.9,33.5 C53.6,33.6 53.3,33.5 53,33.5 L52.7,33.5 C52.6,33.5 52.4,33.5 52.3,33.5 C52.3,33.4 52.3,33.4 52.3,33.3 C52.3,33.3 52.3,33.2 52.3,33.2 C52.3,32.6 52.3,32 52.3,31.4 C52.3,31.1 52.5,30.4 52.6,29.9 C52.6,29.7 52.7,29.5 52.7,29.4 C52.7,29.4 52.7,29.3 52.7,29.1 C52.6,29 52.5,28.9 52.5,28.9 C52.4,28.8 52.3,28.8 52.3,28.8 C52.1,28.7 51.7,28.6 51.3,28.7 C51.1,28.7 51,28.7 50.8,28.8 C50.7,28.8 50.6,28.9 50.6,28.9 C50.4,29 50.2,29.2 50,29.7 C49.6,30.5 49.5,30.9 49.4,31.5 C49.4,31.5 49.4,31.5 49.4,31.6 C49.4,32.3 49.7,32.8 49.9,33.4 C49.9,33.5 50,33.6 50,33.7 C49.9,33.7 49.9,33.7 49.8,33.7 C49.8,33.7 49.7,33.7 49.7,33.7 C49.5,33.7 49.3,33.9 49.3,34.2 L49.3,34.2 C49.3,34.4 49.3,34.7 49.3,34.9 C49.2,35 49.2,35.1 49.1,35.3 C49,35.5 48.9,35.8 48.8,36 C48.7,36.4 48.6,36.8 48.7,37.3 C48.7,37.4 48.7,37.5 48.8,37.6 L48.6,37.4 C48.6,37.4 48.6,37.4 48.6,37.4 C48.4,37.2 48.2,37 47.9,36.8 C47.6,36.5 45.3,35.5 44.9,35.4 C44.1,35.1 43.3,34.8 42.5,34.4 C41.8,34.1 41.2,33.7 40.6,33.3 C40.4,33.2 40.3,33.1 40.1,33 C40,32.9 39.9,32.8 39.7,32.7 C39.5,32.6 39.3,32.4 39.2,32.2 C39.1,32.1 39.1,32.1 39,32 C39,32 39,32 39,32 C38.9,31.9 38.8,31.8 38.8,31.7 C38.8,31.6 38.7,31.6 38.7,31.5 C38.7,31.3 38.6,31.1 38.6,31 C38.6,30.6 38.6,30.1 38.7,29.7 C38.7,29.7 38.7,29.6 38.7,29.6 C38.8,29.1 38.9,28.7 39.1,28.2 C39.3,27.9 39.5,27.5 39.6,27.2 C39.9,26.9 40.2,26.7 40.4,26.4 C40.8,25.9 41.1,25.4 41.3,24.8 C41.3,24.8 41.3,24.7 41.3,24.7 C41.9,24.8 42.4,24.7 42.9,24.4 C43.3,24.2 43.7,24 44,23.6 C44.7,22.8 45.1,21.8 45.2,20.8 C45.3,20.1 45.2,19.2 44.8,18.6 C44.4,18.1 43.9,18.1 43.4,18.3 C43.7,17.8 43.9,17.2 44.1,16.6 C44.4,15.7 44.7,14.8 44.8,13.8 C45,12.8 45.1,11.9 45.1,10.9 C45.1,10.8 45.1,10.6 45.1,10.5 C45.1,10.2 45.1,10 45.1,9.7 C44.9,9.6 44.8,9.4 44.6,9.3 C43.4,8.3 42.2,7.5 40.8,6.8 C39.3,6 37.7,5.3 36,4.7 C35.1,4.4 34.3,4.1 33.4,3.8 C32.9,3.6 32.3,3.5 31.8,3.4 C31.3,3.3 30.9,3.2 30.4,3.1 C30.2,3.1 30,3 29.8,3 C29.9,3.1 29.9,3.2 30,3.3 C30.2,3.6 30.4,3.8 30.6,4.1 C30.8,4.4 31.1,4.6 31.4,4.9 C31.6,5.1 31.7,5.2 31.9,5.4 C31.2,5.2 30.5,5.1 29.9,4.9 C29.4,4.8 28.9,4.6 28.3,4.4 C28.3,4.4 28.3,4.4 28.3,4.4 C28.1,4.3 28,4.3 27.8,4.2 C27.7,4.1 27.5,4.1 27.4,4 C27.3,4 27.2,3.9 27,3.9 C27.1,4.1 27.1,4.2 27.2,4.4 C27.2,4.5 27.3,4.5 27.3,4.6 C27.6,5.4 28,6.3 28.5,7 C28.3,6.9 28.2,6.9 28,6.9 C27.4,6.8 26.7,6.7 26.1,6.8 C26.1,6.8 26.1,6.8 26.1,6.8 C26.1,6.8 26.1,6.8 26.1,6.9 C26.3,7.1 26.5,7.3 26.7,7.5 C26.9,7.7 27,8 27.1,8.2 C27.2,8.4 27.3,8.7 27.4,9 C27.5,9.2 27.5,9.4 27.7,9.6 C27.6,9.7 27.6,9.8 27.5,10 C27.2,10.5 27.1,11.1 27,11.6 C26.8,12.5 26.7,13.4 26.9,14.3 C26.9,14.3 26.9,14.3 26.9,14.3 C26.8,15 26.7,15.6 26.7,16.3 L26.7,16.3 C26.7,16.9 26.8,17.5 26.8,18.1 C26.8,18 26.7,17.9 26.7,17.8 C26.5,17.2 25.9,16.7 25.3,17.2 C25,17.5 24.9,17.8 24.7,18.2 C24.6,18.5 24.6,18.7 24.5,19 C24.4,19.9 24.4,20.8 24.6,21.7 C24.7,22.2 24.9,22.7 25.2,23.1 C25.3,23.3 25.5,23.4 25.7,23.6 C25.8,23.7 26,23.8 26.2,23.8 C26.2,23.8 26.2,23.8 26.2,23.9 C26.3,24.8 26.5,25.7 26.8,26.5 C26.8,26.5 26.8,26.5 26.8,26.6 C27,27 27.2,27.5 27.3,27.9 C27.5,28.3 27.6,28.7 27.9,29.1 C28,29.3 28.1,29.5 28.2,29.7 C28.6,30.3 29.4,30.6 30.1,30.7 C30.3,31.1 30.2,31.6 30,32 C30,32 30,32.1 30,32.1 C29.9,32.2 29.9,32.4 29.8,32.5 C29.8,32.5 29.8,32.6 29.7,32.6 C29.6,32.7 29.6,32.8 29.5,32.9 C29.2,33.2 28.9,33.5 28.5,33.7 C28.4,33.8 28.2,33.8 28.1,33.9 C28.1,33.9 28.1,33.9 28,33.9 C28,33.9 27.9,33.9 27.9,33.9 C27.8,33.9 27.8,33.9 27.8,34 C27.6,34.1 27.4,34.2 27.1,34.2 C27,34.3 26.8,34.3 26.7,34.3 C26.4,34.4 26.2,34.5 25.9,34.6 C25.4,34.7 25,34.9 24.5,35 C24.4,35 24.3,35.1 24.2,35.1 C24.1,35.1 24,35.1 23.9,35.2 C23.7,35.3 23.5,35.4 23.4,35.5 C23.1,35.7 22.8,35.9 22.5,36.1 C21.9,36.6 21.5,37.2 21.1,37.8 C20.7,38.5 20.5,39.2 20.3,39.9 C20.2,40.3 20.2,40.7 20.2,41 C20.1,41.1 20,41.2 19.9,41.3 C19.2,42.2 18.6,43 18,43.9 C17.3,45 16.6,46 15.8,47.1 C15.7,47.2 15.6,47.3 15.5,47.5 C15.5,47.7 15.6,47.9 15.6,48.2 C15.7,48.7 15.9,49.3 16,49.8 C16.4,51.1 17,52.3 17.7,53.4 C17.7,53.4 17.7,53.4 17.7,53.4 C18.2,54.3 18.8,55.1 19.5,55.9 C20,56.5 20.5,57.1 21,57.8 C21.2,58.1 21.5,58.4 21.7,58.7 C21.7,58.7 21.8,58.8 21.8,58.8 C21.9,58.9 21.9,59 22,59.1 C22.1,59.1 22.1,59 22.2,59 C22.2,59 22.3,58.9 22.3,58.9 C22.3,58.9 22.4,58.9 22.4,58.8 C22.6,58.7 22.8,58.5 23,58.4 C23,58.4 23,58.4 23,58.4 C23,58.4 23,58.5 23,58.5 C23,58.8 23,59.1 23,59.4 C23,59.9 23.3,60.2 23.6,60.4 C23.6,60.5 23.7,60.7 23.7,60.8 C23.8,61 23.9,61.2 24,61.4 C24.1,61.6 24.2,61.8 24.4,61.9 C24.4,62 24.4,62 24.4,62.1 C24.4,62.2 24.3,62.4 24.3,62.5 C24.3,62.7 24.2,62.9 24.1,63.2 C27,64.1 30.1,64.6 33.3,64.6 C35.8,64.6 38.2,64.3 40.5,63.7 L40.5,63.3 C40.5,62.9 40.4,62.4 40.4,62 C40.5,62 40.7,62 40.8,61.9 C40.9,61.9 41,61.9 41,61.9 C41,61.7 40.9,61.5 40.9,61.3 C40.9,61.2 40.9,61.2 40.9,61.2 C40.8,60.5 40.7,59.8 40.6,59.1 C40.4,57.7 40.3,56.3 40.4,54.9 C40.5,53.5 40.8,52.3 41.4,51 C41.9,49.8 42.6,48.6 43.2,47.4 C43.6,46.6 44,45.8 44.3,45 C44.3,45 44.3,45 44.3,45 C44.3,45 44.3,45 44.4,45 C44.8,45.4 45.3,45.7 45.7,46.1 C46.5,46.8 47.1,47.6 47.8,48.4 C48.2,48.9 48.7,49.4 49.3,49.8 C50,50.2 50.8,50.5 51.7,50.5 C52,50.5 52.4,50.5 52.7,50.4 C52.9,50.4 53.1,50.3 53.3,50.2 C53.3,50 53.4,49.8 53.5,49.5 C53.5,49.4 53.5,49.4 53.6,49.3 C54,48 55,46.9 55.4,45.6 C55.9,44.3 56,42.9 55.9,41.5 C55.8,40.8 55.7,40.1 55.6,39.4 C55.6,39 55.5,38.7 55.5,38.3 L55.5,38.3 C55.5,38.2 55.6,38.1 55.6,37.9 C55.7,37.4 55.9,37 56,36.5 C56.1,36.2 56.1,35.9 56.2,35.6 C56.6,35 56.6,34.3 56.4,33.6 Z" id="Path" fill-rule="nonzero"></path>
                </g>
            </g>
        </g>
    </g>
</svg>