<?xml version="1.0" encoding="UTF-8"?>
<svg width="960px" height="444px" viewBox="0 0 960 444" version="1.1" xmlns="http://www.w3.org/2000/svg" xmlns:xlink="http://www.w3.org/1999/xlink">
    <!-- Generator: Sketch 63.1 (92452) - https://sketch.com -->
    <title>logo-tim-nha</title>
    <desc>Created with Sketch.</desc>
    <g id="icon" stroke="none" stroke-width="1" fill="none" fill-rule="evenodd">
        <g id="logo-timtro-1024" transform="translate(-32.000000, -289.000000)" fill="#FFFFFF">
            <g id="logo-tim-nha" transform="translate(32.000000, 289.000000)">
                <path d="M254.139535,207.255814 L254.139535,158.139535 L290.604651,158.139535 L290.604651,114.976744 L345.674419,64.372093 L345.674419,158.139535 L397.767442,158.139535 L397.767442,207.255814 L345.674419,207.255814 L345.674419,343.813953 C345.674419,365.767442 346.790698,379.162791 349.395349,384.372093 C351.627907,389.581395 357.953488,392.186047 367.627907,392.186047 C378.046512,392.186047 388.093023,390.325581 397.767442,386.232558 L397.767442,436.465116 C383.627907,441.674419 369.488372,443.906977 355.348837,443.906977 C338.604651,443.906977 324.837209,440.186047 314.418605,432.744186 C304,425.302326 297.302326,416 294.697674,404.837209 C292.093023,393.674419 290.604651,374.325581 290.604651,346.790698 L290.604651,207.255814 L254.139535,207.255814 Z" id="Path" fill-rule="nonzero"></path>
                <path d="M485.209302,390.325581 L485.209302,207.255814 L428.651163,207.255814 L428.651163,158.139535 L529.488372,158.139535 L529.488372,221.395349 C535.813953,205.023256 544.372093,191.255814 555.162791,180.465116 C566.325581,169.674419 577.860465,162.604651 590.139535,158.883721 C602.418605,155.534884 619.162791,153.674419 640.372093,153.674419 L654.883721,153.674419 L654.883721,209.488372 L643.72093,209.488372 C615.813953,209.488372 594.604651,212.465116 580.837209,218.046512 C567.069767,223.627907 556.651163,234.046512 549.953488,248.55814 C543.255814,263.44186 539.906977,289.860465 539.906977,328.186047 L539.906977,389.953488 L601.302326,389.953488 L601.302326,439.069767 L428.27907,439.069767 L428.27907,389.953488 L485.209302,389.953488 L485.209302,390.325581 Z" id="Path" fill-rule="nonzero"></path>
                <path d="M960,298.790698 L960,298.790698 C960,254.511628 945.488372,218.790698 916.465116,191.627907 C887.44186,164.093023 852.837209,150.697674 812.27907,150.697674 C770.976744,150.697674 736,164.465116 707.348837,192.372093 C678.697674,220.27907 664.55814,255.627907 664.186047,299.162791 L664.186047,299.162791 L664.186047,391.813953 L664.186047,391.813953 L664.186047,440.930233 L958.883721,440.930233 L958.883721,440.930233 L960,440.930233 L960,298.790698 Z M722.604651,391.44186 L722.604651,298.790698 L722.976744,298.790698 C722.976744,298.790698 722.976744,298.790698 722.976744,298.790698 C722.976744,272 731.534884,249.674419 748.27907,231.44186 C765.023256,213.209302 786.604651,204.27907 812.651163,204.27907 C837.581395,204.27907 858.418605,213.209302 875.906977,231.069767 C893.395349,248.930233 901.953488,271.627907 901.953488,299.162791 C901.953488,299.162791 901.953488,299.162791 901.953488,299.162791 L902.325581,299.162791 L902.325581,391.813953 L776.186047,391.813953 L722.604651,391.813953 L722.604651,391.44186 Z" id="Shape" fill-rule="nonzero"></path>
                <path d="M853.581395,263.069767 L830.139535,263.069767 C823.813953,263.069767 818.604651,268.27907 818.604651,274.604651 L818.604651,298.046512 C818.604651,304.372093 823.813953,309.581395 830.139535,309.581395 L853.581395,309.581395 C859.906977,309.581395 865.116279,304.372093 865.116279,298.046512 L865.116279,274.604651 C865.116279,268.27907 859.906977,263.069767 853.581395,263.069767 Z" id="Path" fill-rule="nonzero"></path>
                <path d="M794.418605,263.069767 L770.976744,263.069767 C764.651163,263.069767 759.44186,268.27907 759.44186,274.604651 L759.44186,298.046512 C759.44186,304.372093 764.651163,309.581395 770.976744,309.581395 L794.418605,309.581395 C800.744186,309.581395 805.953488,304.372093 805.953488,298.046512 L805.953488,274.604651 C806.325581,268.27907 801.116279,263.069767 794.418605,263.069767 Z" id="Path" fill-rule="nonzero"></path>
                <path d="M853.581395,320 L830.139535,320 C823.813953,320 818.604651,325.209302 818.604651,331.534884 L818.604651,354.976744 C818.604651,361.302326 823.813953,366.511628 830.139535,366.511628 L853.581395,366.511628 C859.906977,366.511628 865.116279,361.302326 865.116279,354.976744 L865.116279,331.534884 C865.116279,325.209302 859.906977,320 853.581395,320 Z" id="Path" fill-rule="nonzero"></path>
                <path d="M794.418605,320 L770.976744,320 C764.651163,320 759.44186,325.209302 759.44186,331.534884 L759.44186,354.976744 C759.44186,361.302326 764.651163,366.511628 770.976744,366.511628 L794.418605,366.511628 C800.744186,366.511628 805.953488,361.302326 805.953488,354.976744 L805.953488,331.534884 C806.325581,325.209302 801.116279,320 794.418605,320 Z" id="Path" fill-rule="nonzero"></path>
                <g id="Group">
                    <path d="M226.232558,130.232558 C220.27907,184.55814 174.511628,226.604651 118.697674,226.604651 C72.9302326,226.604651 33.8604651,198.325581 18.2325581,158.139535 L44.6511628,115.348837 L107.906977,214.325581 L192.372093,78.5116279 L226.232558,130.232558 Z M184.186047,100.465116 L191.255814,100.465116 L191.255814,107.906977 L184.186047,107.906977 L184.186047,100.465116 Z M193.116279,100.465116 L200.186047,100.465116 L200.186047,107.906977 L193.116279,107.906977 L193.116279,100.465116 Z M184.186047,110.139535 L191.255814,110.139535 L191.255814,117.581395 L184.186047,117.581395 L184.186047,110.139535 Z M193.116279,110.139535 L200.186047,110.139535 L200.186047,117.581395 L193.116279,117.581395 L193.116279,110.139535 Z M36.0930233,141.023256 L43.5348837,141.023256 L43.5348837,148.837209 L36.0930233,148.837209 L36.0930233,141.023256 Z M45.3953488,141.023256 L52.8372093,141.023256 L52.8372093,148.837209 L45.3953488,148.837209 L45.3953488,141.023256 Z M36.0930233,151.069767 L43.5348837,151.069767 L43.5348837,158.883721 L36.0930233,158.883721 L36.0930233,151.069767 Z M45.3953488,151.069767 L52.8372093,151.069767 L52.8372093,158.883721 L45.3953488,158.883721 L45.3953488,151.069767 Z" id="Shape"></path>
                    <path d="M118.697674,10.0465116 C177.860465,10.0465116 225.488372,57.3023256 226.976744,116.093023 L193.116279,64 L156.651163,64.372093 L151.44186,74.4186047 L151.44186,55.8139535 L141.395349,55.8139535 L141.395349,64 L129.488372,64 L110.883721,93.7674419 L141.767442,98.6046512 L90.0465116,98.6046512 L82.9767442,116.837209 L82.6046512,82.2325581 L64.744186,82.2325581 L64.372093,98.9767442 L44.2790698,98.9767442 L14.1395349,146.976744 C11.5348837,138.046512 10.4186047,128.744186 10.4186047,119.069767 C10.4186047,58.7906977 58.7906977,10.0465116 118.697674,10.0465116 L118.697674,10.0465116 Z" id="Path"></path>
                    <path d="M118.697674,0 C184.186047,0 237.395349,53.2093023 237.395349,118.325581 C237.395349,183.813953 184.186047,237.023256 118.697674,237.023256 C53.2093023,237.023256 0,183.813953 0,118.325581 C0,52.8372093 53.2093023,0 118.697674,0 L118.697674,0 Z M118.697674,3.72093023 C181.953488,3.72093023 233.302326,55.0697674 233.302326,118.325581 C233.302326,181.581395 181.953488,232.930233 118.697674,232.930233 C55.4418605,232.930233 4.09101372,181.581395 4.09101372,118.325581 C3.72093023,55.0697674 55.0697674,3.72093023 118.697674,3.72093023 L118.697674,3.72093023 Z" id="Shape"></path>
                </g>
                <path d="M151.44186,323.348837 L151.44186,425.674419 C151.44186,434.976744 144.744186,442.418605 136.186047,442.790698 L101.209302,442.790698 C93.0232558,442.790698 85.9534884,434.976744 85.9534884,425.674419 L85.9534884,323.348837 C85.9534884,314.418605 92.6511628,306.604651 100.465116,306.232558 L100.465116,240.372093 C103.069767,241.488372 110.139535,242.232558 118.697674,242.232558 C127.255814,242.232558 134.325581,241.488372 136.930233,240.372093 L136.930233,306.232558 C144.744186,306.604651 151.069767,314.046512 151.44186,323.348837 Z" id="Path"></path>
                <path d="M110.511628,435.348837 L107.162791,435.348837 C100.093023,435.348837 94.1395349,428.651163 94.1395349,420.837209 L94.1395349,334.511628 C94.1395349,326.697674 99.7209302,320.372093 106.418605,320 L106.418605,269.395349 C106.418605,267.534884 107.906977,266.046512 109.767442,266.046512 L109.767442,266.046512 L109.767442,320 C103.069767,320.372093 97.4883721,326.697674 97.4883721,334.511628 L97.4883721,420.837209 C97.8604651,429.023256 103.44186,435.348837 110.511628,435.348837 Z" id="Path"></path>
            </g>
        </g>
    </g>
</svg>