<?xml version="1.0" encoding="UTF-8"?>
<svg width="234px" height="108px" viewBox="0 0 234 108" version="1.1" xmlns="http://www.w3.org/2000/svg" xmlns:xlink="http://www.w3.org/1999/xlink">
    <!-- Generator: Sketch 63.1 (92452) - https://sketch.com -->
    <title>logo-quanly-white</title>
    <desc>Created with Sketch.</desc>
    <g id="icon" stroke="none" stroke-width="1" fill="none" fill-rule="evenodd">
        <g id="logo-timtro-1024" transform="translate(-782.000000, -559.000000)" fill="#FFFFFF">
            <g id="logo-quanly-white" transform="translate(782.000000, 559.000000)">
                <g id="Group">
                    <path d="M10.2,10.3 C10.2,7.8 11.1,5.6 12.9,3.7 C14.7,1.8 16.9,0.9 19.7,0.9 C22.3,0.9 24.5,1.8 26.4,3.6 C28.3,5.4 29.2,7.6 29.2,10.3 C29.2,12.9 28.3,15.2 26.4,17 C24.5,18.8 22.3,19.8 19.7,19.8 C17.1,19.8 14.8,18.9 13,17 C11.2,15.1 10.2,12.9 10.2,10.3 Z" id="Path" fill-rule="nonzero"></path>
                    <polygon id="Path" fill-rule="nonzero" points="12.5 92.1 12.5 40.4 0.1 40.4 0.1 26.5 28.1 26.5 28.1 92.1 40.4 92.1 40.4 106 0.1 106 0.1 92.1"></polygon>
                    <path d="M48.9,40.4 L48.9,26.5 L59.3,26.5 L59.3,14.3 L74.9,0 L74.9,26.5 L89.6,26.5 L89.6,40.4 L74.9,40.4 L74.9,79 C74.9,85.2 75.2,89 75.9,90.5 C76.6,92 78.3,92.7 81,92.7 C83.9,92.7 86.8,92.2 89.5,91.1 L89.5,105.3 C85.5,106.7 81.5,107.4 77.5,107.4 C72.7,107.4 68.9,106.3 65.9,104.2 C62.9,102.1 61.1,99.4 60.3,96.3 C59.5,93.1 59.1,87.6 59.1,79.9 L59.1,40.5 L48.9,40.5 L48.9,40.4 Z" id="Path" fill-rule="nonzero"></path>
                    <path d="M114.2,92.1 L114.2,40.3 L98.2,40.3 L98.2,26.4 L126.7,26.4 L126.7,44.3 C128.5,39.6 130.9,35.8 134,32.7 C137.1,29.6 140.4,27.6 143.9,26.6 C147.4,25.6 152.1,25.1 158.2,25.1 L162.3,25.1 L162.3,40.9 L159.2,40.9 C151.3,40.9 145.3,41.7 141.4,43.3 C137.5,44.9 134.6,47.8 132.7,52 C130.8,56.2 129.9,63.7 129.9,74.6 L129.9,92.1 L147.2,92.1 L147.2,106 L98.2,106 L98.2,92.1 L114.2,92.1 Z" id="Path" fill-rule="nonzero"></path>
                    <path d="M220.7,24.4 L174.6,24.4 C174.1,24.4 173.6,24.6 173.3,24.9 C173,25.2 172.8,25.7 172.8,26.1 L172.8,105.6 C172.8,106.1 173,106.5 173.3,106.8 C173.6,107.1 174.1,107.3 174.6,107.3 L220.7,107.3 C228,107.3 233.9,101.6 233.9,94.6 L233.9,37 C233.9,30 228,24.4 220.7,24.4 Z M178.2,103.7 C178.2,103.9 178.1,104.1 178,104.2 C177.9,104.3 177.7,104.4 177.4,104.4 L174.4,104.4 L174.4,100.2 L177.4,100.2 C177.6,100.2 177.8,100.3 178,100.4 C178.1,100.5 178.2,100.7 178.2,100.9 L178.2,103.7 Z M178.2,97 C178.2,97.2 178.1,97.4 178,97.5 C177.9,97.6 177.7,97.7 177.4,97.7 L174.4,97.7 L174.4,93.5 L177.4,93.5 C177.6,93.5 177.8,93.6 178,93.7 C178.1,93.8 178.2,94 178.2,94.2 L178.2,97 Z M178.2,90.4 C178.2,90.6 178.1,90.8 178,90.9 C177.9,91 177.7,91.1 177.4,91.1 L174.4,91.1 L174.4,86.9 L177.4,86.9 C177.6,86.9 177.8,87 178,87.1 C178.2,87.2 178.2,87.4 178.2,87.6 L178.2,90.4 Z M178.2,83.8 C178.2,84 178.1,84.2 178,84.3 C177.9,84.4 177.7,84.5 177.4,84.5 L174.4,84.5 L174.4,80.3 L177.4,80.3 C177.6,80.3 177.8,80.4 178,80.5 C178.2,80.6 178.2,80.8 178.2,81 L178.2,83.8 Z M178.2,77.2 C178.2,77.4 178.1,77.6 178,77.7 C177.9,77.8 177.7,77.9 177.4,77.9 L174.4,77.9 L174.4,73.7 L177.4,73.7 C177.6,73.7 177.8,73.8 178,73.9 C178.2,74 178.2,74.2 178.2,74.4 L178.2,77.2 Z M178.2,70.5 C178.2,70.7 178.1,70.9 178,71 C177.9,71.1 177.7,71.2 177.4,71.2 L174.4,71.2 L174.4,67 L177.4,67 C177.6,67 177.8,67.1 178,67.2 C178.1,67.3 178.2,67.5 178.2,67.7 L178.2,70.5 Z M178.2,63.9 C178.2,64.1 178.1,64.3 178,64.4 C177.9,64.5 177.7,64.6 177.4,64.6 L174.4,64.6 L174.4,60.4 L177.4,60.4 C177.6,60.4 177.8,60.5 178,60.6 C178.2,60.7 178.2,60.9 178.2,61.1 L178.2,63.9 Z M178.2,57.3 C178.2,57.5 178.1,57.7 178,57.8 C177.9,57.9 177.7,58 177.4,58 L174.4,58 L174.4,53.8 L177.4,53.8 C177.6,53.8 177.8,53.9 178,54 C178.1,54.1 178.2,54.3 178.2,54.5 L178.2,57.3 Z M178.2,50.6 C178.2,50.8 178.1,51 178,51.1 C177.9,51.2 177.7,51.3 177.4,51.3 L174.4,51.3 L174.4,47.1 L177.4,47.1 C177.6,47.1 177.8,47.2 178,47.3 C178.1,47.4 178.2,47.6 178.2,47.8 L178.2,50.6 Z M178.2,44 C178.2,44.2 178.1,44.4 178,44.5 C177.9,44.6 177.7,44.7 177.4,44.7 L174.4,44.7 L174.4,40.5 L177.4,40.5 C177.6,40.5 177.8,40.6 178,40.7 C178.1,40.8 178.2,41 178.2,41.2 L178.2,44 Z M178.2,37.4 C178.2,37.6 178.1,37.8 178,37.9 C177.9,38 177.7,38.1 177.4,38.1 L174.4,38.1 L174.4,33.9 L177.4,33.9 C177.6,33.9 177.8,34 178,34.1 C178.2,34.2 178.2,34.4 178.2,34.6 L178.2,37.4 Z M178.2,30.7 C178.2,30.9 178.1,31.1 178,31.2 C177.9,31.3 177.7,31.4 177.4,31.4 L174.4,31.4 L174.4,27.2 L177.4,27.2 C177.6,27.2 177.8,27.3 178,27.4 C178.2,27.5 178.2,27.7 178.2,27.9 L178.2,30.7 Z M221.4,86.4 C221.4,90.2 218.2,93.3 214.3,93.3 L189.3,93.3 C189,93.3 188.8,93.2 188.6,93 C188.4,92.8 188.3,92.6 188.3,92.3 L188.3,80.7 L188.3,80.7 L188.3,49.2 L188.3,49.2 L188.3,39.5 C188.3,39.2 188.4,39 188.6,38.8 C188.8,38.6 189,38.5 189.3,38.5 L214.3,38.5 C218.2,38.5 221.4,41.6 221.4,45.4 L221.4,86.4 Z" id="Shape" fill-rule="nonzero"></path>
                    <g transform="translate(169.000000, 27.000000)" fill-rule="nonzero">
                        <g transform="translate(0.000000, 7.000000)">
                            <g>
                                <g id="Path">
                                    <path d="M7.7,1.9 L4.6,1.9 L1.5,1.9 C1.3,1.9 1.2,1.8 1.1,1.7 C1,1.6 0.9,1.4 0.9,1.2 L0.9,1.2 L0.9,1.2 C0.9,1 1,0.9 1.1,0.7 C1.2,0.6 1.4,0.5 1.5,0.5 L4.6,0.5 L7.7,0.5 C7.9,0.5 8,0.6 8.1,0.7 C8.2,0.8 8.3,1 8.3,1.2 L8.3,1.2 L8.3,1.2 C8.3,1.4 8.2,1.5 8.1,1.7 C8,1.8 7.8,1.9 7.7,1.9 Z"></path>
                                    <path d="M7.7,1.9 L4.6,1.9 L1.5,1.9 C1.3,1.9 1.2,1.8 1.1,1.7 C1,1.6 0.9,1.4 0.9,1.2 L0.9,1.2 L0.9,1.2 C0.9,1 1,0.9 1.1,0.7 C1.2,0.6 1.4,0.5 1.5,0.5 L4.6,0.5 L7.7,0.5 C7.9,0.5 8,0.6 8.1,0.7 C8.2,0.8 8.3,1 8.3,1.2 L8.3,1.2 L8.3,1.2 C8.3,1.4 8.2,1.5 8.1,1.7 C8,1.8 7.8,1.9 7.7,1.9 Z"></path>
                                </g>
                                <g>
                                    <g id="SVGID_156_-link">
                                        <path d="M7.7,1.9 L4.6,1.9 L1.5,1.9 C1.3,1.9 1.2,1.8 1.1,1.7 C1,1.6 0.9,1.4 0.9,1.2 L0.9,1.2 L0.9,1.2 C0.9,1 1,0.9 1.1,0.7 C1.2,0.6 1.4,0.5 1.5,0.5 L4.6,0.5 L7.7,0.5 C7.9,0.5 8,0.6 8.1,0.7 C8.2,0.8 8.3,1 8.3,1.2 L8.3,1.2 L8.3,1.2 C8.3,1.4 8.2,1.5 8.1,1.7 C8,1.8 7.8,1.9 7.7,1.9 Z" id="SVGID_156_"></path>
                                    </g>
                                    <path d="M9.4,0.9 C9.4,1.3 7.6,1.7 5.5,1.7 C3.3,1.7 1.6,1.3 1.6,0.9 C1.6,0.5 3.4,0.1 5.5,0.1 C7.7,0.1 9.4,0.5 9.4,0.9 Z" id="Path"></path>
                                </g>
                            </g>
                            <g transform="translate(0.000000, 1.000000)">
                                <g transform="translate(0.000000, 1.000000)" id="Path">
                                    <path d="M7.7,1.4 L4.6,1.4 L1.5,1.4 C1.3,1.4 1.2,1.3 1.1,1.2 C1,1.1 0.9,0.9 0.9,0.7 L0.9,0.7 L0.9,0.7 C0.9,0.5 1,0.4 1.1,0.2 C1.2,0.1 1.4,-1.13686838e-13 1.5,-1.13686838e-13 L4.6,-1.13686838e-13 L7.7,-1.13686838e-13 C7.9,-1.13686838e-13 8,0.1 8.1,0.2 C8.2,0.3 8.3,0.5 8.3,0.7 L8.3,0.7 L8.3,0.7 C8.3,0.9 8.2,1 8.1,1.2 C8,1.3 7.8,1.4 7.7,1.4 Z"></path>
                                    <path d="M7.7,1.4 L4.6,1.4 L1.5,1.4 C1.3,1.4 1.2,1.3 1.1,1.2 C1,1.1 0.9,0.9 0.9,0.7 L0.9,0.7 L0.9,0.7 C0.9,0.5 1,0.4 1.1,0.2 C1.2,0.1 1.4,-1.13686838e-13 1.5,-1.13686838e-13 L4.6,-1.13686838e-13 L7.7,-1.13686838e-13 C7.9,-1.13686838e-13 8,0.1 8.1,0.2 C8.2,0.3 8.3,0.5 8.3,0.7 L8.3,0.7 L8.3,0.7 C8.3,0.9 8.2,1 8.1,1.2 C8,1.3 7.8,1.4 7.7,1.4 Z"></path>
                                </g>
                                <g>
                                    <g id="SVGID_158_-link" transform="translate(0.000000, 1.000000)">
                                        <path d="M7.7,1.4 L4.6,1.4 L1.5,1.4 C1.3,1.4 1.2,1.3 1.1,1.2 C1,1.1 0.9,0.9 0.9,0.7 L0.9,0.7 L0.9,0.7 C0.9,0.5 1,0.4 1.1,0.2 C1.2,0.1 1.4,-1.13686838e-13 1.5,-1.13686838e-13 L4.6,-1.13686838e-13 L7.7,-1.13686838e-13 C7.9,-1.13686838e-13 8,0.1 8.1,0.2 C8.2,0.3 8.3,0.5 8.3,0.7 L8.3,0.7 L8.3,0.7 C8.3,0.9 8.2,1 8.1,1.2 C8,1.3 7.8,1.4 7.7,1.4 Z" id="SVGID_158_"></path>
                                    </g>
                                    <path d="M9.4,1.4 C9.4,1.8 7.6,2.2 5.5,2.2 C3.3,2.2 1.6,1.8 1.6,1.4 C1.6,1 3.4,0.6 5.5,0.6 C7.7,0.6 9.4,1 9.4,1.4 Z" id="Path"></path>
                                </g>
                            </g>
                        </g>
                        <g>
                            <g>
                                <g id="Path">
                                    <path d="M7.7,2.3 L4.6,2.3 L1.5,2.3 C1.3,2.3 1.2,2.2 1.1,2.1 C1,2 0.9,1.8 0.9,1.6 L0.9,1.6 L0.9,1.6 C0.9,1.4 1,1.3 1.1,1.1 C1.2,1 1.4,0.9 1.5,0.9 L4.6,0.9 L7.7,0.9 C7.9,0.9 8,1 8.1,1.1 C8.2,1.2 8.3,1.4 8.3,1.6 L8.3,1.6 L8.3,1.6 C8.3,1.8 8.2,1.9 8.1,2.1 C8,2.2 7.8,2.3 7.7,2.3 Z"></path>
                                    <path d="M7.7,2.3 L4.6,2.3 L1.5,2.3 C1.3,2.3 1.2,2.2 1.1,2.1 C1,2 0.9,1.8 0.9,1.6 L0.9,1.6 L0.9,1.6 C0.9,1.4 1,1.3 1.1,1.1 C1.2,1 1.4,0.9 1.5,0.9 L4.6,0.9 L7.7,0.9 C7.9,0.9 8,1 8.1,1.1 C8.2,1.2 8.3,1.4 8.3,1.6 L8.3,1.6 L8.3,1.6 C8.3,1.8 8.2,1.9 8.1,2.1 C8,2.2 7.8,2.3 7.7,2.3 Z"></path>
                                </g>
                                <g>
                                    <g id="SVGID_160_-link">
                                        <path d="M7.7,2.3 L4.6,2.3 L1.5,2.3 C1.3,2.3 1.2,2.2 1.1,2.1 C1,2 0.9,1.8 0.9,1.6 L0.9,1.6 L0.9,1.6 C0.9,1.4 1,1.3 1.1,1.1 C1.2,1 1.4,0.9 1.5,0.9 L4.6,0.9 L7.7,0.9 C7.9,0.9 8,1 8.1,1.1 C8.2,1.2 8.3,1.4 8.3,1.6 L8.3,1.6 L8.3,1.6 C8.3,1.8 8.2,1.9 8.1,2.1 C8,2.2 7.8,2.3 7.7,2.3 Z" id="SVGID_160_"></path>
                                    </g>
                                    <path d="M9.4,1.3 C9.4,1.7 7.6,2.1 5.5,2.1 C3.3,2.1 1.6,1.7 1.6,1.3 C1.6,0.9 3.4,0.5 5.5,0.5 C7.7,0.5 9.4,0.8 9.4,1.3 Z" id="Path"></path>
                                </g>
                            </g>
                            <g transform="translate(0.000000, 2.000000)">
                                <g id="Path">
                                    <path d="M7.7,1.8 L4.6,1.8 L1.5,1.8 C1.3,1.8 1.2,1.7 1.1,1.6 C1,1.5 0.9,1.3 0.9,1.1 L0.9,1.1 L0.9,1.1 C0.9,0.9 1,0.8 1.1,0.6 C1.2,0.5 1.4,0.4 1.5,0.4 L4.6,0.4 L7.7,0.4 C7.9,0.4 8,0.5 8.1,0.6 C8.2,0.7 8.3,0.9 8.3,1.1 L8.3,1.1 L8.3,1.1 C8.3,1.3 8.2,1.4 8.1,1.6 C8,1.7 7.8,1.8 7.7,1.8 Z"></path>
                                    <path d="M7.7,1.8 L4.6,1.8 L1.5,1.8 C1.3,1.8 1.2,1.7 1.1,1.6 C1,1.5 0.9,1.3 0.9,1.1 L0.9,1.1 L0.9,1.1 C0.9,0.9 1,0.8 1.1,0.6 C1.2,0.5 1.4,0.4 1.5,0.4 L4.6,0.4 L7.7,0.4 C7.9,0.4 8,0.5 8.1,0.6 C8.2,0.7 8.3,0.9 8.3,1.1 L8.3,1.1 L8.3,1.1 C8.3,1.3 8.2,1.4 8.1,1.6 C8,1.7 7.8,1.8 7.7,1.8 Z"></path>
                                </g>
                                <g>
                                    <g id="SVGID_162_-link">
                                        <path d="M7.7,1.8 L4.6,1.8 L1.5,1.8 C1.3,1.8 1.2,1.7 1.1,1.6 C1,1.5 0.9,1.3 0.9,1.1 L0.9,1.1 L0.9,1.1 C0.9,0.9 1,0.8 1.1,0.6 C1.2,0.5 1.4,0.4 1.5,0.4 L4.6,0.4 L7.7,0.4 C7.9,0.4 8,0.5 8.1,0.6 C8.2,0.7 8.3,0.9 8.3,1.1 L8.3,1.1 L8.3,1.1 C8.3,1.3 8.2,1.4 8.1,1.6 C8,1.7 7.8,1.8 7.7,1.8 Z" id="SVGID_162_"></path>
                                    </g>
                                    <path d="M9.4,0.8 C9.4,1.2 7.6,1.6 5.5,1.6 C3.3,1.6 1.6,1.2 1.6,0.8 C1.6,0.4 3.4,0 5.5,0 C7.7,0 9.4,0.3 9.4,0.8 Z" id="Path"></path>
                                </g>
                            </g>
                        </g>
                        <g transform="translate(0.000000, 13.000000)">
                            <g>
                                <g transform="translate(0.000000, 1.000000)" id="Path">
                                    <path d="M7.7,1.6 L4.6,1.6 L1.5,1.6 C1.3,1.6 1.2,1.5 1.1,1.4 C1,1.3 0.9,1.1 0.9,0.9 L0.9,0.9 L0.9,0.9 C0.9,0.7 1,0.6 1.1,0.4 C1.2,0.3 1.4,0.2 1.5,0.2 L4.6,0.2 L7.7,0.2 C7.9,0.2 8,0.3 8.1,0.4 C8.2,0.5 8.3,0.7 8.3,0.9 L8.3,0.9 L8.3,0.9 C8.3,1.1 8.2,1.2 8.1,1.4 C8,1.5 7.8,1.6 7.7,1.6 Z"></path>
                                    <path d="M7.7,1.6 L4.6,1.6 L1.5,1.6 C1.3,1.6 1.2,1.5 1.1,1.4 C1,1.3 0.9,1.1 0.9,0.9 L0.9,0.9 L0.9,0.9 C0.9,0.7 1,0.6 1.1,0.4 C1.2,0.3 1.4,0.2 1.5,0.2 L4.6,0.2 L7.7,0.2 C7.9,0.2 8,0.3 8.1,0.4 C8.2,0.5 8.3,0.7 8.3,0.9 L8.3,0.9 L8.3,0.9 C8.3,1.1 8.2,1.2 8.1,1.4 C8,1.5 7.8,1.6 7.7,1.6 Z"></path>
                                </g>
                                <g>
                                    <g id="SVGID_164_-link" transform="translate(0.000000, 1.000000)">
                                        <path d="M7.7,1.6 L4.6,1.6 L1.5,1.6 C1.3,1.6 1.2,1.5 1.1,1.4 C1,1.3 0.9,1.1 0.9,0.9 L0.9,0.9 L0.9,0.9 C0.9,0.7 1,0.6 1.1,0.4 C1.2,0.3 1.4,0.2 1.5,0.2 L4.6,0.2 L7.7,0.2 C7.9,0.2 8,0.3 8.1,0.4 C8.2,0.5 8.3,0.7 8.3,0.9 L8.3,0.9 L8.3,0.9 C8.3,1.1 8.2,1.2 8.1,1.4 C8,1.5 7.8,1.6 7.7,1.6 Z" id="SVGID_164_"></path>
                                    </g>
                                    <path d="M9.4,1.6 C9.4,2 7.6,2.4 5.5,2.4 C3.3,2.4 1.6,2 1.6,1.6 C1.6,1.2 3.4,0.8 5.5,0.8 C7.7,0.7 9.4,1.1 9.4,1.6 Z" id="Path"></path>
                                </g>
                            </g>
                            <g transform="translate(0.000000, 2.000000)">
                                <g id="Path">
                                    <path d="M7.7,2 L4.6,2 L1.5,2 C1.3,2 1.2,1.9 1.1,1.8 C1,1.7 0.9,1.5 0.9,1.3 L0.9,1.3 L0.9,1.3 C0.9,1.1 1,1 1.1,0.8 C1.2,0.7 1.4,0.6 1.5,0.6 L4.6,0.6 L7.7,0.6 C7.9,0.6 8,0.7 8.1,0.8 C8.2,0.9 8.3,1.1 8.3,1.3 L8.3,1.3 L8.3,1.3 C8.3,1.5 8.2,1.6 8.1,1.8 C8,2 7.8,2 7.7,2 Z"></path>
                                    <path d="M7.7,2 L4.6,2 L1.5,2 C1.3,2 1.2,1.9 1.1,1.8 C1,1.7 0.9,1.5 0.9,1.3 L0.9,1.3 L0.9,1.3 C0.9,1.1 1,1 1.1,0.8 C1.2,0.7 1.4,0.6 1.5,0.6 L4.6,0.6 L7.7,0.6 C7.9,0.6 8,0.7 8.1,0.8 C8.2,0.9 8.3,1.1 8.3,1.3 L8.3,1.3 L8.3,1.3 C8.3,1.5 8.2,1.6 8.1,1.8 C8,2 7.8,2 7.7,2 Z"></path>
                                </g>
                                <g>
                                    <g id="SVGID_166_-link">
                                        <path d="M7.7,2 L4.6,2 L1.5,2 C1.3,2 1.2,1.9 1.1,1.8 C1,1.7 0.9,1.5 0.9,1.3 L0.9,1.3 L0.9,1.3 C0.9,1.1 1,1 1.1,0.8 C1.2,0.7 1.4,0.6 1.5,0.6 L4.6,0.6 L7.7,0.6 C7.9,0.6 8,0.7 8.1,0.8 C8.2,0.9 8.3,1.1 8.3,1.3 L8.3,1.3 L8.3,1.3 C8.3,1.5 8.2,1.6 8.1,1.8 C8,2 7.8,2 7.7,2 Z" id="SVGID_166_"></path>
                                    </g>
                                    <path d="M9.4,1 C9.4,1.4 7.6,1.8 5.5,1.8 C3.3,1.8 1.6,1.4 1.6,1 C1.6,0.6 3.4,0.2 5.5,0.2 C7.7,0.2 9.4,0.6 9.4,1 Z" id="Path"></path>
                                </g>
                            </g>
                        </g>
                        <g transform="translate(0.000000, 27.000000)">
                            <g>
                                <g id="Path">
                                    <path d="M7.7,1.8 L4.6,1.8 L1.5,1.8 C1.3,1.8 1.2,1.7 1.1,1.6 C1,1.5 0.9,1.3 0.9,1.1 L0.9,1.1 L0.9,1.1 C0.9,0.9 1,0.8 1.1,0.6 C1.2,0.5 1.4,0.4 1.5,0.4 L4.6,0.4 L7.7,0.4 C7.9,0.4 8,0.5 8.1,0.6 C8.2,0.7 8.3,0.9 8.3,1.1 L8.3,1.1 L8.3,1.1 C8.3,1.3 8.2,1.4 8.1,1.6 C8,1.7 7.8,1.8 7.7,1.8 Z"></path>
                                    <path d="M7.7,1.8 L4.6,1.8 L1.5,1.8 C1.3,1.8 1.2,1.7 1.1,1.6 C1,1.5 0.9,1.3 0.9,1.1 L0.9,1.1 L0.9,1.1 C0.9,0.9 1,0.8 1.1,0.6 C1.2,0.5 1.4,0.4 1.5,0.4 L4.6,0.4 L7.7,0.4 C7.9,0.4 8,0.5 8.1,0.6 C8.2,0.7 8.3,0.9 8.3,1.1 L8.3,1.1 L8.3,1.1 C8.3,1.3 8.2,1.4 8.1,1.6 C8,1.7 7.8,1.8 7.7,1.8 Z"></path>
                                </g>
                                <g>
                                    <g id="SVGID_168_-link">
                                        <path d="M7.7,1.8 L4.6,1.8 L1.5,1.8 C1.3,1.8 1.2,1.7 1.1,1.6 C1,1.5 0.9,1.3 0.9,1.1 L0.9,1.1 L0.9,1.1 C0.9,0.9 1,0.8 1.1,0.6 C1.2,0.5 1.4,0.4 1.5,0.4 L4.6,0.4 L7.7,0.4 C7.9,0.4 8,0.5 8.1,0.6 C8.2,0.7 8.3,0.9 8.3,1.1 L8.3,1.1 L8.3,1.1 C8.3,1.3 8.2,1.4 8.1,1.6 C8,1.7 7.8,1.8 7.7,1.8 Z" id="SVGID_168_"></path>
                                    </g>
                                    <path d="M9.4,0.8 C9.4,1.2 7.6,1.6 5.5,1.6 C3.3,1.6 1.6,1.2 1.6,0.8 C1.6,0.4 3.4,0 5.5,0 C7.7,0 9.4,0.4 9.4,0.8 Z" id="Path"></path>
                                </g>
                            </g>
                            <g transform="translate(0.000000, 1.000000)">
                                <g id="Path">
                                    <path d="M7.7,2.3 L4.6,2.3 L1.5,2.3 C1.3,2.3 1.2,2.2 1.1,2.1 C1,2 0.9,1.8 0.9,1.6 L0.9,1.6 L0.9,1.6 C0.9,1.4 1,1.3 1.1,1.1 C1.2,1 1.4,0.9 1.5,0.9 L4.6,0.9 L7.7,0.9 C7.9,0.9 8,1 8.1,1.1 C8.2,1.2 8.3,1.4 8.3,1.6 L8.3,1.6 L8.3,1.6 C8.3,1.8 8.2,1.9 8.1,2.1 C8,2.2 7.8,2.3 7.7,2.3 Z"></path>
                                    <path d="M7.7,2.3 L4.6,2.3 L1.5,2.3 C1.3,2.3 1.2,2.2 1.1,2.1 C1,2 0.9,1.8 0.9,1.6 L0.9,1.6 L0.9,1.6 C0.9,1.4 1,1.3 1.1,1.1 C1.2,1 1.4,0.9 1.5,0.9 L4.6,0.9 L7.7,0.9 C7.9,0.9 8,1 8.1,1.1 C8.2,1.2 8.3,1.4 8.3,1.6 L8.3,1.6 L8.3,1.6 C8.3,1.8 8.2,1.9 8.1,2.1 C8,2.2 7.8,2.3 7.7,2.3 Z"></path>
                                </g>
                                <g>
                                    <g id="SVGID_170_-link">
                                        <path d="M7.7,2.3 L4.6,2.3 L1.5,2.3 C1.3,2.3 1.2,2.2 1.1,2.1 C1,2 0.9,1.8 0.9,1.6 L0.9,1.6 L0.9,1.6 C0.9,1.4 1,1.3 1.1,1.1 C1.2,1 1.4,0.9 1.5,0.9 L4.6,0.9 L7.7,0.9 C7.9,0.9 8,1 8.1,1.1 C8.2,1.2 8.3,1.4 8.3,1.6 L8.3,1.6 L8.3,1.6 C8.3,1.8 8.2,1.9 8.1,2.1 C8,2.2 7.8,2.3 7.7,2.3 Z" id="SVGID_170_"></path>
                                    </g>
                                    <path d="M9.4,1.3 C9.4,1.7 7.6,2.1 5.5,2.1 C3.3,2.1 1.6,1.7 1.6,1.3 C1.6,0.9 3.4,0.5 5.5,0.5 C7.7,0.5 9.4,0.8 9.4,1.3 Z" id="Path"></path>
                                </g>
                            </g>
                        </g>
                        <g transform="translate(0.000000, 20.000000)">
                            <g>
                                <g id="Path">
                                    <path d="M7.7,2.2 L4.6,2.2 L1.5,2.2 C1.3,2.2 1.2,2.1 1.1,2 C1,1.9 0.9,1.7 0.9,1.5 L0.9,1.5 L0.9,1.5 C0.9,1.3 1,1.2 1.1,1 C1.2,0.9 1.4,0.8 1.5,0.8 L4.6,0.8 L7.7,0.8 C7.9,0.8 8,0.9 8.1,1 C8.2,1.1 8.3,1.3 8.3,1.5 L8.3,1.5 L8.3,1.5 C8.3,1.7 8.2,1.8 8.1,2 C8,2.1 7.8,2.2 7.7,2.2 Z"></path>
                                    <path d="M7.7,2.2 L4.6,2.2 L1.5,2.2 C1.3,2.2 1.2,2.1 1.1,2 C1,1.9 0.9,1.7 0.9,1.5 L0.9,1.5 L0.9,1.5 C0.9,1.3 1,1.2 1.1,1 C1.2,0.9 1.4,0.8 1.5,0.8 L4.6,0.8 L7.7,0.8 C7.9,0.8 8,0.9 8.1,1 C8.2,1.1 8.3,1.3 8.3,1.5 L8.3,1.5 L8.3,1.5 C8.3,1.7 8.2,1.8 8.1,2 C8,2.1 7.8,2.2 7.7,2.2 Z"></path>
                                </g>
                                <g>
                                    <g id="SVGID_172_-link">
                                        <path d="M7.7,2.2 L4.6,2.2 L1.5,2.2 C1.3,2.2 1.2,2.1 1.1,2 C1,1.9 0.9,1.7 0.9,1.5 L0.9,1.5 L0.9,1.5 C0.9,1.3 1,1.2 1.1,1 C1.2,0.9 1.4,0.8 1.5,0.8 L4.6,0.8 L7.7,0.8 C7.9,0.8 8,0.9 8.1,1 C8.2,1.1 8.3,1.3 8.3,1.5 L8.3,1.5 L8.3,1.5 C8.3,1.7 8.2,1.8 8.1,2 C8,2.1 7.8,2.2 7.7,2.2 Z" id="SVGID_172_"></path>
                                    </g>
                                    <path d="M9.4,1.2 C9.4,1.6 7.6,2 5.5,2 C3.3,2 1.6,1.6 1.6,1.2 C1.6,0.8 3.4,0.4 5.5,0.4 C7.7,0.4 9.4,0.7 9.4,1.2 Z" id="Path"></path>
                                </g>
                            </g>
                            <g transform="translate(0.000000, 1.000000)">
                                <g transform="translate(0.000000, 1.000000)" id="Path">
                                    <path d="M7.7,1.7 L4.6,1.7 L1.5,1.7 C1.3,1.7 1.2,1.6 1.1,1.5 C1,1.4 0.9,1.2 0.9,1 L0.9,1 L0.9,1 C0.9,0.8 1,0.7 1.1,0.5 C1.2,0.4 1.4,0.3 1.5,0.3 L4.6,0.3 L7.7,0.3 C7.9,0.3 8,0.4 8.1,0.5 C8.2,0.6 8.3,0.8 8.3,1 L8.3,1 L8.3,1 C8.3,1.2 8.2,1.3 8.1,1.5 C8,1.6 7.8,1.7 7.7,1.7 Z"></path>
                                    <path d="M7.7,1.7 L4.6,1.7 L1.5,1.7 C1.3,1.7 1.2,1.6 1.1,1.5 C1,1.4 0.9,1.2 0.9,1 L0.9,1 L0.9,1 C0.9,0.8 1,0.7 1.1,0.5 C1.2,0.4 1.4,0.3 1.5,0.3 L4.6,0.3 L7.7,0.3 C7.9,0.3 8,0.4 8.1,0.5 C8.2,0.6 8.3,0.8 8.3,1 L8.3,1 L8.3,1 C8.3,1.2 8.2,1.3 8.1,1.5 C8,1.6 7.8,1.7 7.7,1.7 Z"></path>
                                </g>
                                <g>
                                    <g id="SVGID_174_-link" transform="translate(0.000000, 1.000000)">
                                        <path d="M7.7,1.7 L4.6,1.7 L1.5,1.7 C1.3,1.7 1.2,1.6 1.1,1.5 C1,1.4 0.9,1.2 0.9,1 L0.9,1 L0.9,1 C0.9,0.8 1,0.7 1.1,0.5 C1.2,0.4 1.4,0.3 1.5,0.3 L4.6,0.3 L7.7,0.3 C7.9,0.3 8,0.4 8.1,0.5 C8.2,0.6 8.3,0.8 8.3,1 L8.3,1 L8.3,1 C8.3,1.2 8.2,1.3 8.1,1.5 C8,1.6 7.8,1.7 7.7,1.7 Z" id="SVGID_174_"></path>
                                    </g>
                                    <path d="M9.4,1.7 C9.4,2.1 7.6,2.5 5.5,2.5 C3.3,2.5 1.6,2.1 1.6,1.7 C1.6,1.3 3.4,0.9 5.5,0.9 C7.7,0.9 9.4,1.2 9.4,1.7 Z" id="Path"></path>
                                </g>
                            </g>
                        </g>
                        <g transform="translate(0.000000, 33.000000)">
                            <g>
                                <g transform="translate(0.000000, 1.000000)" id="Path">
                                    <path d="M7.7,1.4 L4.6,1.4 L1.5,1.4 C1.3,1.4 1.2,1.3 1.1,1.2 C1,1.1 0.9,0.9 0.9,0.7 L0.9,0.7 L0.9,0.7 C0.9,0.5 1,0.4 1.1,0.2 C1.2,0.1 1.4,-1.13686838e-13 1.5,-1.13686838e-13 L4.6,-1.13686838e-13 L7.7,-1.13686838e-13 C7.9,-1.13686838e-13 8,0.1 8.1,0.2 C8.2,0.3 8.3,0.5 8.3,0.7 L8.3,0.7 L8.3,0.7 C8.3,0.9 8.2,1 8.1,1.2 C8,1.4 7.8,1.4 7.7,1.4 Z"></path>
                                    <path d="M7.7,1.4 L4.6,1.4 L1.5,1.4 C1.3,1.4 1.2,1.3 1.1,1.2 C1,1.1 0.9,0.9 0.9,0.7 L0.9,0.7 L0.9,0.7 C0.9,0.5 1,0.4 1.1,0.2 C1.2,0.1 1.4,-1.13686838e-13 1.5,-1.13686838e-13 L4.6,-1.13686838e-13 L7.7,-1.13686838e-13 C7.9,-1.13686838e-13 8,0.1 8.1,0.2 C8.2,0.3 8.3,0.5 8.3,0.7 L8.3,0.7 L8.3,0.7 C8.3,0.9 8.2,1 8.1,1.2 C8,1.4 7.8,1.4 7.7,1.4 Z"></path>
                                </g>
                                <g>
                                    <g id="SVGID_176_-link" transform="translate(0.000000, 1.000000)">
                                        <path d="M7.7,1.4 L4.6,1.4 L1.5,1.4 C1.3,1.4 1.2,1.3 1.1,1.2 C1,1.1 0.9,0.9 0.9,0.7 L0.9,0.7 L0.9,0.7 C0.9,0.5 1,0.4 1.1,0.2 C1.2,0.1 1.4,-1.13686838e-13 1.5,-1.13686838e-13 L4.6,-1.13686838e-13 L7.7,-1.13686838e-13 C7.9,-1.13686838e-13 8,0.1 8.1,0.2 C8.2,0.3 8.3,0.5 8.3,0.7 L8.3,0.7 L8.3,0.7 C8.3,0.9 8.2,1 8.1,1.2 C8,1.4 7.8,1.4 7.7,1.4 Z" id="SVGID_176_"></path>
                                    </g>
                                    <path d="M9.4,1.4 C9.4,1.8 7.6,2.2 5.5,2.2 C3.3,2.2 1.6,1.8 1.6,1.4 C1.6,1 3.4,0.6 5.5,0.6 C7.7,0.6 9.4,1 9.4,1.4 Z" id="Path"></path>
                                </g>
                            </g>
                            <g transform="translate(0.000000, 2.000000)">
                                <g id="Path">
                                    <path d="M7.7,1.9 L4.6,1.9 L1.5,1.9 C1.3,1.9 1.2,1.8 1.1,1.7 C1,1.6 0.9,1.4 0.9,1.2 L0.9,1.2 L0.9,1.2 C0.9,1 1,0.9 1.1,0.7 C1.2,0.6 1.4,0.5 1.5,0.5 L4.6,0.5 L7.7,0.5 C7.9,0.5 8,0.6 8.1,0.7 C8.2,0.8 8.3,1 8.3,1.2 L8.3,1.2 L8.3,1.2 C8.3,1.4 8.2,1.5 8.1,1.7 C8,1.8 7.8,1.9 7.7,1.9 Z"></path>
                                    <path d="M7.7,1.9 L4.6,1.9 L1.5,1.9 C1.3,1.9 1.2,1.8 1.1,1.7 C1,1.6 0.9,1.4 0.9,1.2 L0.9,1.2 L0.9,1.2 C0.9,1 1,0.9 1.1,0.7 C1.2,0.6 1.4,0.5 1.5,0.5 L4.6,0.5 L7.7,0.5 C7.9,0.5 8,0.6 8.1,0.7 C8.2,0.8 8.3,1 8.3,1.2 L8.3,1.2 L8.3,1.2 C8.3,1.4 8.2,1.5 8.1,1.7 C8,1.8 7.8,1.9 7.7,1.9 Z"></path>
                                </g>
                                <g>
                                    <g id="SVGID_178_-link">
                                        <path d="M7.7,1.9 L4.6,1.9 L1.5,1.9 C1.3,1.9 1.2,1.8 1.1,1.7 C1,1.6 0.9,1.4 0.9,1.2 L0.9,1.2 L0.9,1.2 C0.9,1 1,0.9 1.1,0.7 C1.2,0.6 1.4,0.5 1.5,0.5 L4.6,0.5 L7.7,0.5 C7.9,0.5 8,0.6 8.1,0.7 C8.2,0.8 8.3,1 8.3,1.2 L8.3,1.2 L8.3,1.2 C8.3,1.4 8.2,1.5 8.1,1.7 C8,1.8 7.8,1.9 7.7,1.9 Z" id="SVGID_178_"></path>
                                    </g>
                                    <path d="M9.4,0.9 C9.4,1.3 7.6,1.7 5.5,1.7 C3.3,1.7 1.6,1.3 1.6,0.9 C1.6,0.5 3.4,0.1 5.5,0.1 C7.7,0.1 9.4,0.5 9.4,0.9 Z" id="Path"></path>
                                </g>
                            </g>
                        </g>
                        <g transform="translate(0.000000, 46.000000)">
                            <g>
                                <g transform="translate(0.000000, 1.000000)" id="Path">
                                    <path d="M7.7,1.7 L4.6,1.7 L1.5,1.7 C1.3,1.7 1.2,1.6 1.1,1.5 C1,1.4 0.9,1.2 0.9,1 L0.9,1 L0.9,1 C0.9,0.8 1,0.7 1.1,0.5 C1.2,0.4 1.4,0.3 1.5,0.3 L4.6,0.3 L7.7,0.3 C7.9,0.3 8,0.4 8.1,0.5 C8.2,0.6 8.3,0.8 8.3,1 L8.3,1 L8.3,1 C8.3,1.2 8.2,1.3 8.1,1.5 C8,1.6 7.8,1.7 7.7,1.7 Z"></path>
                                    <path d="M7.7,1.7 L4.6,1.7 L1.5,1.7 C1.3,1.7 1.2,1.6 1.1,1.5 C1,1.4 0.9,1.2 0.9,1 L0.9,1 L0.9,1 C0.9,0.8 1,0.7 1.1,0.5 C1.2,0.4 1.4,0.3 1.5,0.3 L4.6,0.3 L7.7,0.3 C7.9,0.3 8,0.4 8.1,0.5 C8.2,0.6 8.3,0.8 8.3,1 L8.3,1 L8.3,1 C8.3,1.2 8.2,1.3 8.1,1.5 C8,1.6 7.8,1.7 7.7,1.7 Z"></path>
                                </g>
                                <g>
                                    <g id="SVGID_180_-link" transform="translate(0.000000, 1.000000)">
                                        <path d="M7.7,1.7 L4.6,1.7 L1.5,1.7 C1.3,1.7 1.2,1.6 1.1,1.5 C1,1.4 0.9,1.2 0.9,1 L0.9,1 L0.9,1 C0.9,0.8 1,0.7 1.1,0.5 C1.2,0.4 1.4,0.3 1.5,0.3 L4.6,0.3 L7.7,0.3 C7.9,0.3 8,0.4 8.1,0.5 C8.2,0.6 8.3,0.8 8.3,1 L8.3,1 L8.3,1 C8.3,1.2 8.2,1.3 8.1,1.5 C8,1.6 7.8,1.7 7.7,1.7 Z" id="SVGID_180_"></path>
                                    </g>
                                    <path d="M9.4,1.7 C9.4,2.1 7.6,2.5 5.5,2.5 C3.3,2.5 1.6,2.1 1.6,1.7 C1.6,1.3 3.4,0.9 5.5,0.9 C7.7,0.9 9.4,1.3 9.4,1.7 Z" id="Path"></path>
                                </g>
                            </g>
                            <g transform="translate(0.000000, 2.000000)">
                                <g id="Path">
                                    <path d="M7.7,2.2 L4.6,2.2 L1.5,2.2 C1.3,2.2 1.2,2.1 1.1,2 C1,1.9 0.9,1.7 0.9,1.5 L0.9,1.5 L0.9,1.5 C0.9,1.3 1,1.2 1.1,1 C1.2,0.9 1.4,0.8 1.5,0.8 L4.6,0.8 L7.7,0.8 C7.9,0.8 8,0.9 8.1,1 C8.2,1.1 8.3,1.3 8.3,1.5 L8.3,1.5 L8.3,1.5 C8.3,1.7 8.2,1.8 8.1,2 C8,2.1 7.8,2.2 7.7,2.2 Z"></path>
                                    <path d="M7.7,2.2 L4.6,2.2 L1.5,2.2 C1.3,2.2 1.2,2.1 1.1,2 C1,1.9 0.9,1.7 0.9,1.5 L0.9,1.5 L0.9,1.5 C0.9,1.3 1,1.2 1.1,1 C1.2,0.9 1.4,0.8 1.5,0.8 L4.6,0.8 L7.7,0.8 C7.9,0.8 8,0.9 8.1,1 C8.2,1.1 8.3,1.3 8.3,1.5 L8.3,1.5 L8.3,1.5 C8.3,1.7 8.2,1.8 8.1,2 C8,2.1 7.8,2.2 7.7,2.2 Z"></path>
                                </g>
                                <g>
                                    <g id="SVGID_182_-link">
                                        <path d="M7.7,2.2 L4.6,2.2 L1.5,2.2 C1.3,2.2 1.2,2.1 1.1,2 C1,1.9 0.9,1.7 0.9,1.5 L0.9,1.5 L0.9,1.5 C0.9,1.3 1,1.2 1.1,1 C1.2,0.9 1.4,0.8 1.5,0.8 L4.6,0.8 L7.7,0.8 C7.9,0.8 8,0.9 8.1,1 C8.2,1.1 8.3,1.3 8.3,1.5 L8.3,1.5 L8.3,1.5 C8.3,1.7 8.2,1.8 8.1,2 C8,2.1 7.8,2.2 7.7,2.2 Z" id="SVGID_182_"></path>
                                    </g>
                                    <path d="M9.4,1.2 C9.4,1.6 7.6,2 5.5,2 C3.3,2 1.6,1.6 1.6,1.2 C1.6,0.8 3.4,0.4 5.5,0.4 C7.7,0.4 9.4,0.7 9.4,1.2 Z" id="Path"></path>
                                </g>
                            </g>
                        </g>
                        <g transform="translate(0.000000, 40.000000)">
                            <g>
                                <g id="Path">
                                    <path d="M7.7,2.1 L4.6,2.1 L1.5,2.1 C1.3,2.1 1.2,2 1.1,1.9 C1,1.8 0.9,1.6 0.9,1.4 L0.9,1.4 L0.9,1.4 C0.9,1.2 1,1.1 1.1,0.9 C1.2,0.8 1.4,0.7 1.5,0.7 L4.6,0.7 L7.7,0.7 C7.9,0.7 8,0.8 8.1,0.9 C8.2,1 8.3,1.2 8.3,1.4 L8.3,1.4 L8.3,1.4 C8.3,1.6 8.2,1.7 8.1,1.9 C8,2 7.8,2.1 7.7,2.1 Z"></path>
                                    <path d="M7.7,2.1 L4.6,2.1 L1.5,2.1 C1.3,2.1 1.2,2 1.1,1.9 C1,1.8 0.9,1.6 0.9,1.4 L0.9,1.4 L0.9,1.4 C0.9,1.2 1,1.1 1.1,0.9 C1.2,0.8 1.4,0.7 1.5,0.7 L4.6,0.7 L7.7,0.7 C7.9,0.7 8,0.8 8.1,0.9 C8.2,1 8.3,1.2 8.3,1.4 L8.3,1.4 L8.3,1.4 C8.3,1.6 8.2,1.7 8.1,1.9 C8,2 7.8,2.1 7.7,2.1 Z"></path>
                                </g>
                                <g>
                                    <g id="SVGID_184_-link">
                                        <path d="M7.7,2.1 L4.6,2.1 L1.5,2.1 C1.3,2.1 1.2,2 1.1,1.9 C1,1.8 0.9,1.6 0.9,1.4 L0.9,1.4 L0.9,1.4 C0.9,1.2 1,1.1 1.1,0.9 C1.2,0.8 1.4,0.7 1.5,0.7 L4.6,0.7 L7.7,0.7 C7.9,0.7 8,0.8 8.1,0.9 C8.2,1 8.3,1.2 8.3,1.4 L8.3,1.4 L8.3,1.4 C8.3,1.6 8.2,1.7 8.1,1.9 C8,2 7.8,2.1 7.7,2.1 Z" id="SVGID_184_"></path>
                                    </g>
                                    <path d="M9.4,1.1 C9.4,1.5 7.6,1.9 5.5,1.9 C3.3,1.9 1.6,1.5 1.6,1.1 C1.6,0.7 3.4,0.3 5.5,0.3 C7.7,0.3 9.4,0.6 9.4,1.1 Z" id="Path"></path>
                                </g>
                            </g>
                            <g transform="translate(0.000000, 1.000000)">
                                <g transform="translate(0.000000, 1.000000)" id="Path">
                                    <path d="M7.7,1.6 L4.6,1.6 L1.5,1.6 C1.3,1.6 1.2,1.5 1.1,1.4 C1,1.3 0.9,1.1 0.9,0.9 L0.9,0.9 L0.9,0.9 C0.9,0.7 1,0.6 1.1,0.4 C1.2,0.3 1.4,0.2 1.5,0.2 L4.6,0.2 L7.7,0.2 C7.9,0.2 8,0.3 8.1,0.4 C8.2,0.5 8.3,0.7 8.3,0.9 L8.3,0.9 L8.3,0.9 C8.3,1.1 8.2,1.2 8.1,1.4 C8,1.5 7.8,1.6 7.7,1.6 Z"></path>
                                    <path d="M7.7,1.6 L4.6,1.6 L1.5,1.6 C1.3,1.6 1.2,1.5 1.1,1.4 C1,1.3 0.9,1.1 0.9,0.9 L0.9,0.9 L0.9,0.9 C0.9,0.7 1,0.6 1.1,0.4 C1.2,0.3 1.4,0.2 1.5,0.2 L4.6,0.2 L7.7,0.2 C7.9,0.2 8,0.3 8.1,0.4 C8.2,0.5 8.3,0.7 8.3,0.9 L8.3,0.9 L8.3,0.9 C8.3,1.1 8.2,1.2 8.1,1.4 C8,1.5 7.8,1.6 7.7,1.6 Z"></path>
                                </g>
                                <g>
                                    <g id="SVGID_186_-link" transform="translate(0.000000, 1.000000)">
                                        <path d="M7.7,1.6 L4.6,1.6 L1.5,1.6 C1.3,1.6 1.2,1.5 1.1,1.4 C1,1.3 0.9,1.1 0.9,0.9 L0.9,0.9 L0.9,0.9 C0.9,0.7 1,0.6 1.1,0.4 C1.2,0.3 1.4,0.2 1.5,0.2 L4.6,0.2 L7.7,0.2 C7.9,0.2 8,0.3 8.1,0.4 C8.2,0.5 8.3,0.7 8.3,0.9 L8.3,0.9 L8.3,0.9 C8.3,1.1 8.2,1.2 8.1,1.4 C8,1.5 7.8,1.6 7.7,1.6 Z" id="SVGID_186_"></path>
                                    </g>
                                    <path d="M9.4,1.6 C9.4,2 7.6,2.4 5.5,2.4 C3.3,2.4 1.6,2 1.6,1.6 C1.6,1.2 3.4,0.8 5.5,0.8 C7.7,0.7 9.4,1.1 9.4,1.6 Z" id="Path"></path>
                                </g>
                            </g>
                        </g>
                        <g transform="translate(0.000000, 53.000000)">
                            <g>
                                <g id="Path">
                                    <path d="M7.7,2.3 L4.6,2.3 L1.5,2.3 C1.3,2.3 1.2,2.2 1.1,2.1 C1,2 0.9,1.8 0.9,1.6 L0.9,1.6 L0.9,1.6 C0.9,1.4 1,1.3 1.1,1.1 C1.2,1 1.4,0.9 1.5,0.9 L4.6,0.9 L7.7,0.9 C7.9,0.9 8,1 8.1,1.1 C8.2,1.2 8.3,1.4 8.3,1.6 L8.3,1.6 L8.3,1.6 C8.3,1.8 8.2,1.9 8.1,2.1 C8,2.3 7.8,2.3 7.7,2.3 Z"></path>
                                    <path d="M7.7,2.3 L4.6,2.3 L1.5,2.3 C1.3,2.3 1.2,2.2 1.1,2.1 C1,2 0.9,1.8 0.9,1.6 L0.9,1.6 L0.9,1.6 C0.9,1.4 1,1.3 1.1,1.1 C1.2,1 1.4,0.9 1.5,0.9 L4.6,0.9 L7.7,0.9 C7.9,0.9 8,1 8.1,1.1 C8.2,1.2 8.3,1.4 8.3,1.6 L8.3,1.6 L8.3,1.6 C8.3,1.8 8.2,1.9 8.1,2.1 C8,2.3 7.8,2.3 7.7,2.3 Z"></path>
                                </g>
                                <g>
                                    <g id="SVGID_188_-link">
                                        <path d="M7.7,2.3 L4.6,2.3 L1.5,2.3 C1.3,2.3 1.2,2.2 1.1,2.1 C1,2 0.9,1.8 0.9,1.6 L0.9,1.6 L0.9,1.6 C0.9,1.4 1,1.3 1.1,1.1 C1.2,1 1.4,0.9 1.5,0.9 L4.6,0.9 L7.7,0.9 C7.9,0.9 8,1 8.1,1.1 C8.2,1.2 8.3,1.4 8.3,1.6 L8.3,1.6 L8.3,1.6 C8.3,1.8 8.2,1.9 8.1,2.1 C8,2.3 7.8,2.3 7.7,2.3 Z" id="SVGID_188_"></path>
                                    </g>
                                    <path d="M9.4,1.3 C9.4,1.7 7.6,2.1 5.5,2.1 C3.3,2.1 1.6,1.7 1.6,1.3 C1.6,0.9 3.4,0.5 5.5,0.5 C7.7,0.5 9.4,0.9 9.4,1.3 Z" id="Path"></path>
                                </g>
                            </g>
                            <g transform="translate(0.000000, 2.000000)">
                                <g id="Path">
                                    <path d="M7.7,1.8 L4.6,1.8 L1.5,1.8 C1.3,1.8 1.2,1.7 1.1,1.6 C1,1.5 0.9,1.3 0.9,1.1 L0.9,1.1 L0.9,1.1 C0.9,0.9 1,0.8 1.1,0.6 C1.2,0.5 1.4,0.4 1.5,0.4 L4.6,0.4 L7.7,0.4 C7.9,0.4 8,0.5 8.1,0.6 C8.2,0.7 8.3,0.9 8.3,1.1 L8.3,1.1 L8.3,1.1 C8.3,1.3 8.2,1.4 8.1,1.6 C8,1.7 7.8,1.8 7.7,1.8 Z"></path>
                                    <path d="M7.7,1.8 L4.6,1.8 L1.5,1.8 C1.3,1.8 1.2,1.7 1.1,1.6 C1,1.5 0.9,1.3 0.9,1.1 L0.9,1.1 L0.9,1.1 C0.9,0.9 1,0.8 1.1,0.6 C1.2,0.5 1.4,0.4 1.5,0.4 L4.6,0.4 L7.7,0.4 C7.9,0.4 8,0.5 8.1,0.6 C8.2,0.7 8.3,0.9 8.3,1.1 L8.3,1.1 L8.3,1.1 C8.3,1.3 8.2,1.4 8.1,1.6 C8,1.7 7.8,1.8 7.7,1.8 Z"></path>
                                </g>
                                <g>
                                    <g id="SVGID_190_-link">
                                        <path d="M7.7,1.8 L4.6,1.8 L1.5,1.8 C1.3,1.8 1.2,1.7 1.1,1.6 C1,1.5 0.9,1.3 0.9,1.1 L0.9,1.1 L0.9,1.1 C0.9,0.9 1,0.8 1.1,0.6 C1.2,0.5 1.4,0.4 1.5,0.4 L4.6,0.4 L7.7,0.4 C7.9,0.4 8,0.5 8.1,0.6 C8.2,0.7 8.3,0.9 8.3,1.1 L8.3,1.1 L8.3,1.1 C8.3,1.3 8.2,1.4 8.1,1.6 C8,1.7 7.8,1.8 7.7,1.8 Z" id="SVGID_190_"></path>
                                    </g>
                                    <path d="M9.4,0.8 C9.4,1.2 7.6,1.6 5.5,1.6 C3.3,1.6 1.6,1.2 1.6,0.8 C1.6,0.4 3.4,0 5.5,0 C7.7,0 9.4,0.4 9.4,0.8 Z" id="Path"></path>
                                </g>
                            </g>
                        </g>
                        <g transform="translate(0.000000, 60.000000)">
                            <g>
                                <g id="Path">
                                    <path d="M7.7,2 L4.6,2 L1.5,2 C1.3,2 1.2,1.9 1.1,1.8 C1,1.7 0.9,1.5 0.9,1.3 L0.9,1.3 L0.9,1.3 C0.9,1.1 1,1 1.1,0.8 C1.2,0.7 1.4,0.6 1.5,0.6 L4.6,0.6 L7.7,0.6 C7.9,0.6 8,0.7 8.1,0.8 C8.2,0.9 8.3,1.1 8.3,1.3 L8.3,1.3 L8.3,1.3 C8.3,1.5 8.2,1.6 8.1,1.8 C8,1.9 7.8,2 7.7,2 Z"></path>
                                    <path d="M7.7,2 L4.6,2 L1.5,2 C1.3,2 1.2,1.9 1.1,1.8 C1,1.7 0.9,1.5 0.9,1.3 L0.9,1.3 L0.9,1.3 C0.9,1.1 1,1 1.1,0.8 C1.2,0.7 1.4,0.6 1.5,0.6 L4.6,0.6 L7.7,0.6 C7.9,0.6 8,0.7 8.1,0.8 C8.2,0.9 8.3,1.1 8.3,1.3 L8.3,1.3 L8.3,1.3 C8.3,1.5 8.2,1.6 8.1,1.8 C8,1.9 7.8,2 7.7,2 Z"></path>
                                </g>
                                <g>
                                    <g id="SVGID_192_-link">
                                        <path d="M7.7,2 L4.6,2 L1.5,2 C1.3,2 1.2,1.9 1.1,1.8 C1,1.7 0.9,1.5 0.9,1.3 L0.9,1.3 L0.9,1.3 C0.9,1.1 1,1 1.1,0.8 C1.2,0.7 1.4,0.6 1.5,0.6 L4.6,0.6 L7.7,0.6 C7.9,0.6 8,0.7 8.1,0.8 C8.2,0.9 8.3,1.1 8.3,1.3 L8.3,1.3 L8.3,1.3 C8.3,1.5 8.2,1.6 8.1,1.8 C8,1.9 7.8,2 7.7,2 Z" id="SVGID_192_"></path>
                                    </g>
                                    <path d="M9.4,1 C9.4,1.4 7.6,1.8 5.5,1.8 C3.3,1.8 1.6,1.4 1.6,1 C1.6,0.6 3.4,0.2 5.5,0.2 C7.7,0.2 9.4,0.5 9.4,1 Z" id="Path"></path>
                                </g>
                            </g>
                            <g transform="translate(0.000000, 1.000000)">
                                <g transform="translate(0.000000, 1.000000)" id="Path">
                                    <path d="M7.7,1.4 L4.6,1.4 L1.5,1.4 C1.3,1.4 1.2,1.3 1.1,1.2 C1,1.1 0.9,0.9 0.9,0.7 L0.9,0.7 L0.9,0.7 C0.9,0.5 1,0.4 1.1,0.2 C1.2,0.1 1.4,-1.13686838e-13 1.5,-1.13686838e-13 L4.6,-1.13686838e-13 L7.7,-1.13686838e-13 C7.9,-1.13686838e-13 8,0.1 8.1,0.2 C8.2,0.3 8.3,0.5 8.3,0.7 L8.3,0.7 L8.3,0.7 C8.3,0.9 8.2,1 8.1,1.2 C8,1.4 7.8,1.4 7.7,1.4 Z"></path>
                                    <path d="M7.7,1.4 L4.6,1.4 L1.5,1.4 C1.3,1.4 1.2,1.3 1.1,1.2 C1,1.1 0.9,0.9 0.9,0.7 L0.9,0.7 L0.9,0.7 C0.9,0.5 1,0.4 1.1,0.2 C1.2,0.1 1.4,-1.13686838e-13 1.5,-1.13686838e-13 L4.6,-1.13686838e-13 L7.7,-1.13686838e-13 C7.9,-1.13686838e-13 8,0.1 8.1,0.2 C8.2,0.3 8.3,0.5 8.3,0.7 L8.3,0.7 L8.3,0.7 C8.3,0.9 8.2,1 8.1,1.2 C8,1.4 7.8,1.4 7.7,1.4 Z"></path>
                                </g>
                                <g>
                                    <g id="SVGID_194_-link" transform="translate(0.000000, 1.000000)">
                                        <path d="M7.7,1.4 L4.6,1.4 L1.5,1.4 C1.3,1.4 1.2,1.3 1.1,1.2 C1,1.1 0.9,0.9 0.9,0.7 L0.9,0.7 L0.9,0.7 C0.9,0.5 1,0.4 1.1,0.2 C1.2,0.1 1.4,-1.13686838e-13 1.5,-1.13686838e-13 L4.6,-1.13686838e-13 L7.7,-1.13686838e-13 C7.9,-1.13686838e-13 8,0.1 8.1,0.2 C8.2,0.3 8.3,0.5 8.3,0.7 L8.3,0.7 L8.3,0.7 C8.3,0.9 8.2,1 8.1,1.2 C8,1.4 7.8,1.4 7.7,1.4 Z" id="SVGID_194_"></path>
                                    </g>
                                    <path d="M9.4,1.4 C9.4,1.8 7.6,2.2 5.5,2.2 C3.3,2.2 1.6,1.8 1.6,1.4 C1.6,1 3.4,0.6 5.5,0.6 C7.7,0.6 9.4,1 9.4,1.4 Z" id="Path"></path>
                                </g>
                            </g>
                        </g>
                        <g transform="translate(0.000000, 66.000000)">
                            <g>
                                <g transform="translate(0.000000, 1.000000)" id="Path">
                                    <path d="M7.7,1.6 L4.6,1.6 L1.5,1.6 C1.3,1.6 1.2,1.5 1.1,1.4 C1,1.3 0.9,1.1 0.9,0.9 L0.9,0.9 L0.9,0.9 C0.9,0.7 1,0.6 1.1,0.4 C1.2,0.3 1.4,0.2 1.5,0.2 L4.6,0.2 L7.7,0.2 C7.9,0.2 8,0.3 8.1,0.4 C8.2,0.5 8.3,0.7 8.3,0.9 L8.3,0.9 L8.3,0.9 C8.3,1.1 8.2,1.2 8.1,1.4 C8,1.5 7.8,1.6 7.7,1.6 Z"></path>
                                    <path d="M7.7,1.6 L4.6,1.6 L1.5,1.6 C1.3,1.6 1.2,1.5 1.1,1.4 C1,1.3 0.9,1.1 0.9,0.9 L0.9,0.9 L0.9,0.9 C0.9,0.7 1,0.6 1.1,0.4 C1.2,0.3 1.4,0.2 1.5,0.2 L4.6,0.2 L7.7,0.2 C7.9,0.2 8,0.3 8.1,0.4 C8.2,0.5 8.3,0.7 8.3,0.9 L8.3,0.9 L8.3,0.9 C8.3,1.1 8.2,1.2 8.1,1.4 C8,1.5 7.8,1.6 7.7,1.6 Z"></path>
                                </g>
                                <g>
                                    <g id="SVGID_196_-link" transform="translate(0.000000, 1.000000)">
                                        <path d="M7.7,1.6 L4.6,1.6 L1.5,1.6 C1.3,1.6 1.2,1.5 1.1,1.4 C1,1.3 0.9,1.1 0.9,0.9 L0.9,0.9 L0.9,0.9 C0.9,0.7 1,0.6 1.1,0.4 C1.2,0.3 1.4,0.2 1.5,0.2 L4.6,0.2 L7.7,0.2 C7.9,0.2 8,0.3 8.1,0.4 C8.2,0.5 8.3,0.7 8.3,0.9 L8.3,0.9 L8.3,0.9 C8.3,1.1 8.2,1.2 8.1,1.4 C8,1.5 7.8,1.6 7.7,1.6 Z" id="SVGID_196_"></path>
                                    </g>
                                    <path d="M9.4,1.6 C9.4,2 7.6,2.4 5.5,2.4 C3.3,2.4 1.6,2 1.6,1.6 C1.6,1.2 3.4,0.8 5.5,0.8 C7.7,0.8 9.4,1.1 9.4,1.6 Z" id="Path"></path>
                                </g>
                            </g>
                            <g transform="translate(0.000000, 2.000000)">
                                <g id="Path">
                                    <path d="M7.7,2.1 L4.6,2.1 L1.5,2.1 C1.3,2.1 1.2,2 1.1,1.9 C1,1.8 0.9,1.6 0.9,1.4 L0.9,1.4 L0.9,1.4 C0.9,1.2 1,1.1 1.1,0.9 C1.2,0.8 1.4,0.7 1.5,0.7 L4.6,0.7 L7.7,0.7 C7.9,0.7 8,0.8 8.1,0.9 C8.2,1 8.3,1.2 8.3,1.4 L8.3,1.4 L8.3,1.4 C8.3,1.6 8.2,1.7 8.1,1.9 C8,2 7.8,2.1 7.7,2.1 Z"></path>
                                    <path d="M7.7,2.1 L4.6,2.1 L1.5,2.1 C1.3,2.1 1.2,2 1.1,1.9 C1,1.8 0.9,1.6 0.9,1.4 L0.9,1.4 L0.9,1.4 C0.9,1.2 1,1.1 1.1,0.9 C1.2,0.8 1.4,0.7 1.5,0.7 L4.6,0.7 L7.7,0.7 C7.9,0.7 8,0.8 8.1,0.9 C8.2,1 8.3,1.2 8.3,1.4 L8.3,1.4 L8.3,1.4 C8.3,1.6 8.2,1.7 8.1,1.9 C8,2 7.8,2.1 7.7,2.1 Z"></path>
                                </g>
                                <g>
                                    <g id="SVGID_198_-link">
                                        <path d="M7.7,2.1 L4.6,2.1 L1.5,2.1 C1.3,2.1 1.2,2 1.1,1.9 C1,1.8 0.9,1.6 0.9,1.4 L0.9,1.4 L0.9,1.4 C0.9,1.2 1,1.1 1.1,0.9 C1.2,0.8 1.4,0.7 1.5,0.7 L4.6,0.7 L7.7,0.7 C7.9,0.7 8,0.8 8.1,0.9 C8.2,1 8.3,1.2 8.3,1.4 L8.3,1.4 L8.3,1.4 C8.3,1.6 8.2,1.7 8.1,1.9 C8,2 7.8,2.1 7.7,2.1 Z" id="SVGID_198_"></path>
                                    </g>
                                    <path d="M9.4,1.1 C9.4,1.5 7.6,1.9 5.5,1.9 C3.3,1.9 1.6,1.5 1.6,1.1 C1.6,0.7 3.4,0.3 5.5,0.3 C7.7,0.3 9.4,0.6 9.4,1.1 Z" id="Path"></path>
                                </g>
                            </g>
                        </g>
                        <g transform="translate(0.000000, 73.000000)">
                            <g>
                                <g id="Path">
                                    <path d="M7.7,2.2 L4.6,2.2 L1.5,2.2 C1.3,2.2 1.2,2.1 1.1,2 C1,1.9 0.9,1.7 0.9,1.5 L0.9,1.5 L0.9,1.5 C0.9,1.3 1,1.2 1.1,1 C1.2,0.9 1.4,0.8 1.5,0.8 L4.6,0.8 L7.7,0.8 C7.9,0.8 8,0.9 8.1,1 C8.2,1.1 8.3,1.3 8.3,1.5 L8.3,1.5 L8.3,1.5 C8.3,1.7 8.2,1.8 8.1,2 C8,2.2 7.8,2.2 7.7,2.2 Z"></path>
                                    <path d="M7.7,2.2 L4.6,2.2 L1.5,2.2 C1.3,2.2 1.2,2.1 1.1,2 C1,1.9 0.9,1.7 0.9,1.5 L0.9,1.5 L0.9,1.5 C0.9,1.3 1,1.2 1.1,1 C1.2,0.9 1.4,0.8 1.5,0.8 L4.6,0.8 L7.7,0.8 C7.9,0.8 8,0.9 8.1,1 C8.2,1.1 8.3,1.3 8.3,1.5 L8.3,1.5 L8.3,1.5 C8.3,1.7 8.2,1.8 8.1,2 C8,2.2 7.8,2.2 7.7,2.2 Z"></path>
                                </g>
                                <g>
                                    <g id="SVGID_200_-link">
                                        <path d="M7.7,2.2 L4.6,2.2 L1.5,2.2 C1.3,2.2 1.2,2.1 1.1,2 C1,1.9 0.9,1.7 0.9,1.5 L0.9,1.5 L0.9,1.5 C0.9,1.3 1,1.2 1.1,1 C1.2,0.9 1.4,0.8 1.5,0.8 L4.6,0.8 L7.7,0.8 C7.9,0.8 8,0.9 8.1,1 C8.2,1.1 8.3,1.3 8.3,1.5 L8.3,1.5 L8.3,1.5 C8.3,1.7 8.2,1.8 8.1,2 C8,2.2 7.8,2.2 7.7,2.2 Z" id="SVGID_200_"></path>
                                    </g>
                                    <path d="M9.4,1.2 C9.4,1.6 7.6,2 5.5,2 C3.3,2 1.6,1.6 1.6,1.2 C1.6,0.8 3.4,0.4 5.5,0.4 C7.7,0.4 9.4,0.8 9.4,1.2 Z" id="Path"></path>
                                </g>
                            </g>
                            <g transform="translate(0.000000, 1.000000)">
                                <g transform="translate(0.000000, 1.000000)" id="Path">
                                    <path d="M7.7,1.7 L4.6,1.7 L1.5,1.7 C1.3,1.7 1.2,1.6 1.1,1.5 C1,1.4 0.9,1.2 0.9,1 L0.9,1 L0.9,1 C0.9,0.8 1,0.7 1.1,0.5 C1.2,0.4 1.4,0.3 1.5,0.3 L4.6,0.3 L7.7,0.3 C7.9,0.3 8,0.4 8.1,0.5 C8.2,0.6 8.3,0.8 8.3,1 L8.3,1 L8.3,1 C8.3,1.2 8.2,1.3 8.1,1.5 C8,1.6 7.8,1.7 7.7,1.7 Z"></path>
                                    <path d="M7.7,1.7 L4.6,1.7 L1.5,1.7 C1.3,1.7 1.2,1.6 1.1,1.5 C1,1.4 0.9,1.2 0.9,1 L0.9,1 L0.9,1 C0.9,0.8 1,0.7 1.1,0.5 C1.2,0.4 1.4,0.3 1.5,0.3 L4.6,0.3 L7.7,0.3 C7.9,0.3 8,0.4 8.1,0.5 C8.2,0.6 8.3,0.8 8.3,1 L8.3,1 L8.3,1 C8.3,1.2 8.2,1.3 8.1,1.5 C8,1.6 7.8,1.7 7.7,1.7 Z"></path>
                                </g>
                                <g>
                                    <g id="SVGID_202_-link" transform="translate(0.000000, 1.000000)">
                                        <path d="M7.7,1.7 L4.6,1.7 L1.5,1.7 C1.3,1.7 1.2,1.6 1.1,1.5 C1,1.4 0.9,1.2 0.9,1 L0.9,1 L0.9,1 C0.9,0.8 1,0.7 1.1,0.5 C1.2,0.4 1.4,0.3 1.5,0.3 L4.6,0.3 L7.7,0.3 C7.9,0.3 8,0.4 8.1,0.5 C8.2,0.6 8.3,0.8 8.3,1 L8.3,1 L8.3,1 C8.3,1.2 8.2,1.3 8.1,1.5 C8,1.6 7.8,1.7 7.7,1.7 Z" id="SVGID_202_"></path>
                                    </g>
                                    <path d="M9.4,1.7 C9.4,2.1 7.6,2.5 5.5,2.5 C3.3,2.5 1.6,2.1 1.6,1.7 C1.6,1.3 3.4,0.9 5.5,0.9 C7.7,0.9 9.4,1.3 9.4,1.7 Z" id="Path"></path>
                                </g>
                            </g>
                        </g>
                    </g>
                    <path d="M202.6,85.9 L194.6,85.9 C193.9,85.9 193.3,85.3 193.3,84.6 L193.3,55.9 C193.3,55.2 193.9,54.6 194.6,54.6 L202.6,54.6 C203.3,54.6 203.9,55.2 203.9,55.9 L203.9,84.6 C203.9,85.3 203.3,85.9 202.6,85.9 Z" id="Path" fill-rule="nonzero"></path>
                    <path d="M207.1,85.9 L207,85.9 C206.3,85.9 205.7,85.3 205.7,84.6 L205.7,55.9 C205.7,55.2 206.3,54.6 207,54.6 L215,54.6 C215.7,54.6 216.3,55.2 216.3,55.9 L216.3,76.7 C216.3,81.7 212.2,85.9 207.1,85.9 Z" id="Path" fill-rule="nonzero"></path>
                    <path d="M215.3,52.8 L194.3,52.8 C193.7,52.8 193.3,52.3 193.3,51.8 L193.3,46.9 C193.3,46.3 193.8,45.9 194.3,45.9 L210.5,45.9 C213.8,45.9 216.4,48.5 216.4,51.8 L216.4,51.8 C216.3,52.3 215.9,52.8 215.3,52.8 Z" id="Path" fill-rule="nonzero"></path>
                </g>
            </g>
        </g>
    </g>
</svg>