<?xml version="1.0" encoding="iso-8859-1"?>
<!-- Generator: Adobe Illustrator 19.0.0, SVG Export Plug-In . SVG Version: 6.00 Build 0)  -->
<svg xmlns="http://www.w3.org/2000/svg" xmlns:xlink="http://www.w3.org/1999/xlink" version="1.1" id="Layer_1" x="0px" y="0px" viewBox="0 0 512 512" style="enable-background:new 0 0 512 512;" xml:space="preserve" width="512px" height="512px">
<g>
	<g>
		<path d="M473.698,61.975c-2.351-3.48-7.078-4.393-10.558-2.04c-3.48,2.352-4.392,7.08-2.04,10.558    c14.011,20.721,21.417,44.918,21.417,69.976c0,4.199,3.404,7.604,7.604,7.604s7.604-3.405,7.604-7.604    C497.724,112.364,489.417,85.221,473.698,61.975z" fill="#424242"/>
	</g>
</g>
<g>
	<g>
		<path d="M451.659,36.534C425.744,12.974,392.217,0,357.256,0c-4.2,0-7.604,3.405-7.604,7.604s3.404,7.604,7.604,7.604    c31.17,0,61.064,11.57,84.174,32.579c1.458,1.324,3.287,1.977,5.113,1.977c2.067,0,4.127-0.838,5.629-2.489    C454.996,44.168,454.768,39.359,451.659,36.534z" fill="#424242"/>
	</g>
</g>
<g>
	<g>
		<path d="M357.256,44.043c-4.2,0-7.604,3.405-7.604,7.604c0,4.199,3.404,7.604,7.604,7.604c44.783,0,81.216,36.434,81.216,81.217    c0,4.199,3.404,7.604,7.604,7.604s7.604-3.405,7.604-7.604C453.68,87.3,410.424,44.043,357.256,44.043z" fill="#424242"/>
	</g>
</g>
<g>
	<g>
		<path d="M357.256,88.087c-4.2,0-7.604,3.405-7.604,7.604s3.404,7.604,7.604,7.604c20.497,0,37.173,16.676,37.173,37.173    c0,4.199,3.404,7.604,7.604,7.604c4.2,0,7.604-3.405,7.604-7.604C409.637,111.586,386.138,88.087,357.256,88.087z" fill="#424242"/>
	</g>
</g>
<g>
	<g>
		<path d="M360.33,133.519c-2.785-1.224-6.146-0.643-8.343,1.468c-2.606,2.504-3.088,6.691-1.054,9.7    c3.782,5.751,13.051,3.538,13.865-3.286C365.189,138.112,363.368,134.855,360.33,133.519z" fill="#424242"/>
	</g>
</g>
<g>
	<g>
		<path d="M370.226,225.782c-17.323-35.634-43.165-70.513-76.81-103.668c-57.025-56.197-115.979-87.618-118.461-88.928    c-2.356-1.244-5.192-1.164-7.475,0.213c-2.283,1.376-3.678,3.847-3.678,6.512c0,57.197-5.686,118.475-73.638,183.435    c-3.036,2.902-3.144,7.715-0.241,10.751c2.9,3.036,7.713,3.144,10.751,0.242c38.043-36.369,75.221-80.423,78.151-181.434    c19.669,11.713,62.733,39.454,103.917,80.04c32.41,31.94,57.242,65.41,73.807,99.484c20.533,42.235,28.344,85.571,23.213,128.803    c-2.646,22.332-9.704,42.718-20.977,60.591c-2.241,3.552-1.177,8.248,2.375,10.488c1.259,0.794,2.662,1.173,4.049,1.173    c2.523,0,4.992-1.256,6.439-3.549c12.49-19.802,20.301-42.316,23.216-66.913C400.343,316.854,392.053,270.679,370.226,225.782z" fill="#424242"/>
	</g>
</g>
<g>
	<g>
		<path d="M349.662,446.59c-2.96-2.979-7.773-2.991-10.752-0.031c-17.445,17.34-40.039,30.968-65.989,39.903    c3.818-11.961,5.745-25.784,5.745-41.301c0-30.664-16.141-49.761-33.228-69.979c-18.585-21.989-37.804-44.728-39.87-86.521    c-0.136-2.741-1.738-5.196-4.192-6.424s-5.382-1.038-7.656,0.496c-42.926,28.955-67.305,63.31-72.462,102.11    c-6.026,45.359,15.986,86.072,32.12,108.99c-31.357-6.426-59.423-19.34-80.408-37.202c-27.592-23.486-42.61-55.078-43.432-91.363    c-1.138-49.78,15.84-76.984,43.6-104.743c2.971-2.97,2.971-7.784,0.001-10.754c-2.97-2.969-7.784-2.97-10.753,0    c-29.752,29.749-49.309,60.834-48.052,115.843c0.922,40.742,17.789,76.22,48.778,102.598    c27.343,23.274,65.415,38.807,107.204,43.736c0.299,0.036,0.597,0.053,0.894,0.053c2.788,0,5.387-1.536,6.715-4.042    c1.47-2.772,1.086-6.163-0.967-8.537c-11.303-13.067-47.636-59.801-40.624-112.575c4.13-31.08,22.72-59.275,55.307-83.949    c5.409,38.593,24.837,61.579,42.182,82.102c15.902,18.814,29.635,35.063,29.635,60.161c0,20.219-3.532,36.906-10.499,49.595    c-1.462,2.662-1.199,5.939,0.668,8.335c1.868,2.395,4.982,3.449,7.92,2.681c34.948-9.14,65.407-25.886,88.083-48.427    C352.608,454.383,352.622,449.568,349.662,446.59z" fill="#424242"/>
	</g>
</g>
<g>
</g>
<g>
</g>
<g>
</g>
<g>
</g>
<g>
</g>
<g>
</g>
<g>
</g>
<g>
</g>
<g>
</g>
<g>
</g>
<g>
</g>
<g>
</g>
<g>
</g>
<g>
</g>
<g>
</g>
</svg>
