<?xml version="1.0" encoding="iso-8859-1"?>
<!-- Generator: Adobe Illustrator 19.0.0, SVG Export Plug-In . SVG Version: 6.00 Build 0)  -->
<svg xmlns="http://www.w3.org/2000/svg" xmlns:xlink="http://www.w3.org/1999/xlink" version="1.1" id="Layer_1" x="0px" y="0px" viewBox="0 0 488 488" style="enable-background:new 0 0 488 488;" xml:space="preserve" width="512px" height="512px">
<g>
	<g>
		<path d="M487.9,19.014c0-0.1,0-0.2-0.1-0.4c0-0.2-0.1-0.4-0.1-0.6c0-0.1-0.1-0.3-0.1-0.4c-0.1-0.2-0.1-0.4-0.2-0.5    s-0.1-0.3-0.2-0.4c-0.1-0.2-0.1-0.3-0.2-0.5s-0.2-0.3-0.2-0.4s-0.1-0.2-0.1-0.3s-0.1-0.1-0.1-0.2s-0.1-0.1-0.1-0.2    c-0.1-0.1-0.1-0.2-0.2-0.3c-0.1-0.1-0.2-0.3-0.3-0.4c-0.1-0.1-0.2-0.2-0.3-0.3c-0.1-0.1-0.2-0.3-0.4-0.4c-0.1-0.1-0.2-0.2-0.3-0.3    s-0.3-0.3-0.4-0.4c-0.1-0.1-0.2-0.2-0.3-0.2c-0.2-0.1-0.3-0.3-0.5-0.4c-0.1-0.1-0.2-0.1-0.3-0.2c-0.2-0.1-0.3-0.2-0.5-0.3    c-0.1-0.1-0.2-0.1-0.3-0.2c-0.2-0.1-0.3-0.2-0.5-0.2c-0.1-0.1-0.3-0.1-0.4-0.2c-0.2-0.1-0.3-0.1-0.5-0.2c-0.1,0-0.3-0.1-0.4-0.1    c-0.2,0-0.3-0.1-0.5-0.1c-0.1,0-0.1,0-0.2,0l-51.11-10.704c-5.401-1.1-10.702,2.301-11.802,7.703s2.3,10.704,7.702,11.805    l26.005,5.402l-75.816,45.318C337.469,11.911,259.353-7.296,197.941,27.918l-0.1,0.1c-28.506,16.907-49.31,43.117-59.212,74.329    c-2.2-0.1-4.401-0.2-6.601-0.2c-35.207,0-68.314,13.705-93.219,38.515C13.803,165.572,0,198.885,0,234.299    c0,69.528,53.811,126.65,122.025,131.852v72.029H91.619c-5.501,0-10.002,4.502-10.002,10.004c0,5.502,4.501,10.004,10.002,10.004    h30.406v19.808c0,5.502,4.501,10.004,10.002,10.004c5.501,0,10.002-4.502,10.002-10.004v-19.808h30.406    c5.501,0,10.002-4.502,10.002-10.004s-4.501-10.004-10.002-10.004h-30.406v-72.029c31.606-2.301,61.013-15.806,83.517-38.515    c15.103-15.206,26.105-33.513,32.407-53.421c2.2,0.1,4.501,0.2,6.701,0.2c22.905,0,45.609-6.002,66.013-17.707    c58.612-34.013,81.217-107.443,54.011-168.767l78.916-47.219l-5.901,28.011c-1.1,5.402,2.3,10.704,7.702,11.905    c0.7,0.1,1.4,0.2,2.1,0.2c4.601,0,8.802-3.201,9.802-7.903L488,22.515c0-0.1,0-0.2,0-0.3c0,0,0-0.2,0-0.3s0-0.3,0-0.4    c0-0.2,0-0.4,0-0.5s0-0.3,0-0.4c0-0.2,0-0.4,0-0.6c0-0.1,0-0.3,0-0.4C488,19.414,488,19.214,487.9,19.014z M132.027,346.644    L132.027,346.644c-61.713,0-112.023-50.32-112.023-112.245c0-61.825,50.21-112.244,112.023-112.244c0.6,0,1.3,0,1.9,0    c-4.601,29.712,0.9,60.024,16.103,86.534l0.1,0.1c18.004,30.412,46.51,52.121,80.417,61.124c2.401,0.6,4.801,1.2,7.201,1.701    C222.246,315.331,180.637,346.644,132.027,346.644z M242.45,252.606c-30.306-6.002-57.912-24.61-75.215-53.721    c-13.503-23.709-17.704-49.92-13.703-74.63c52.111,9.804,90.318,54.722,90.318,110.144    C243.95,240.602,243.45,246.704,242.45,252.606z M320.666,239.501c-18.504,10.604-38.608,15.506-58.212,15.206    c1-6.603,1.5-13.405,1.5-20.208c0-35.514-13.703-68.827-38.508-93.637c-18.504-18.507-41.609-30.812-66.914-35.914    c8.502-24.11,25.305-45.418,49.31-59.624c53.811-30.712,122.525-12.505,153.231,40.616    C391.88,139.862,373.677,208.789,320.666,239.501z" fill="#9e9e9e"/>
	</g>
</g>
<g>
</g>
<g>
</g>
<g>
</g>
<g>
</g>
<g>
</g>
<g>
</g>
<g>
</g>
<g>
</g>
<g>
</g>
<g>
</g>
<g>
</g>
<g>
</g>
<g>
</g>
<g>
</g>
<g>
</g>
</svg>
