<?xml version="1.0" encoding="iso-8859-1"?>
<!-- Generator: Adobe Illustrator 19.0.0, SVG Export Plug-In . SVG Version: 6.00 Build 0)  -->
<svg xmlns="http://www.w3.org/2000/svg" xmlns:xlink="http://www.w3.org/1999/xlink" version="1.1" id="Layer_1" x="0px" y="0px" viewBox="0 0 489.994 489.994" style="enable-background:new 0 0 489.994 489.994;" xml:space="preserve" width="512px" height="512px">
<g>
	<g>
		<g>
			<path d="M451.713,80.39H38.281H0v15.312h38.281v76.562h30.625v30.625h7.656v38.281c0,92.876,75.56,168.435,168.435,168.435     s168.435-75.56,168.435-168.435v-38.281h7.656v-30.625h30.625V95.702h38.281V80.39H451.713z M398.12,241.169     c0,84.431-68.692,153.123-153.123,153.123S91.874,325.599,91.874,241.169v-38.281H398.12V241.169z M405.776,187.576H84.218     v-15.312h321.558V187.576z M53.593,156.951V95.702H436.4v61.249H53.593z" fill="#424242"/>
			<path d="M244.997,378.979c37.993,0,68.905-30.912,68.905-68.905c0-37.993-30.912-68.905-68.905-68.905     c-37.993,0-68.905,30.913-68.905,68.905S207.004,378.979,244.997,378.979z M244.997,256.48c29.552,0,53.593,24.041,53.593,53.593     s-24.041,53.593-53.593,53.593s-53.593-24.041-53.593-53.593S215.445,256.48,244.997,256.48z" fill="#424242"/>
			<path d="M244.997,348.354c21.107,0,38.281-17.174,38.281-38.281s-17.174-38.281-38.281-38.281s-38.281,17.174-38.281,38.281     S223.89,348.354,244.997,348.354z M244.997,287.105c12.665,0,22.968,10.303,22.968,22.969c0,12.665-10.303,22.968-22.968,22.968     s-22.968-10.303-22.968-22.968C222.028,297.409,232.331,287.105,244.997,287.105z" fill="#424242"/>
			
				<rect x="237.341" y="299.242" transform="matrix(0.7071 0.7071 -0.7071 0.7071 291.0104 -82.4215)" width="15.311" height="21.655" fill="#424242"/>
			<rect x="206.716" y="118.67" width="15.312" height="15.312" fill="#424242"/>
			<rect x="237.341" y="118.67" width="15.312" height="15.312" fill="#424242"/>
			<rect x="267.965" y="118.67" width="15.312" height="15.312" fill="#424242"/>
		</g>
	</g>
</g>
<g>
</g>
<g>
</g>
<g>
</g>
<g>
</g>
<g>
</g>
<g>
</g>
<g>
</g>
<g>
</g>
<g>
</g>
<g>
</g>
<g>
</g>
<g>
</g>
<g>
</g>
<g>
</g>
<g>
</g>
</svg>
